SplineFontDB: 3.2
FontName: Paribartan
FullName: Paribartan 
FamilyName: Paribartan
Weight: Regular
Copyright: Copyright 2024 The Paribartan Project Authors (github.com/mitradranirban/paribartan)
Version: 0.001
ItalicAngle: 0
UnderlinePosition: 0
UnderlineWidth: 0
Ascent: 800
Descent: 200
InvalidEm: 1
UFOAscent: 800
UFODescent: -250
LayerCount: 2
Layer: 0 0 "Back" 1
Layer: 1 0 "Fore" 0
StyleMap: 0x0000
FSType: 0
OS2Version: 0
OS2_WeightWidthSlopeOnly: 0
OS2_UseTypoMetrics: 0
CreationTime: 1733728903
ModificationTime: 1734362800
PfmFamily: 17
TTFWeight: 400
TTFWidth: 5
LineGap: 0
VLineGap: 0
OS2TypoAscent: 1200
OS2TypoAOffset: 0
OS2TypoDescent: -400
OS2TypoDOffset: 0
OS2TypoLinegap: 0
OS2WinAscent: 1160
OS2WinAOffset: 0
OS2WinDescent: 348
OS2WinDOffset: 0
HheadAscent: 1200
HheadAOffset: 0
HheadDescent: -400
HheadDOffset: 0
OS2CapHeight: 750
OS2XHeight: 500
OS2Vendor: 'anir'
MarkAttachClasses: 1
DEI: 91125
LangName: 1033 "" "" "" "" "" "" "" "" "Dr Anirban Mitra" "Dr Anirban Mitra" "Variable Color Bengali Font" "https://fonts.atipra.in" "https://github.com/mitradranirban" "This Font Software is licensed under the SIL Open Font License, Version 1.1. This license is available with a FAQ at: https://openfontlicense.org+ACIA" " https://openfontlicense.org"
PickledDataWithLists: "(dp0
Vxyz.fontra.lineMetricsHorizontalLayout.zones
p1
(dp2
Vascender
p3
I16
sVbaseline
p4
I-16
sVcapHeight
p5
I16
sVdescender
p6
I-16
sVxHeight
p7
I16
ss."
Encoding: UnicodeBmp
Compacted: 1
UnicodeInterp: none
NameList: AGL For New Fonts
DisplaySize: -128
AntiAlias: 1
FitToEm: 1
WidthSeparation: 150
WinInfo: 0 10 4
BeginPrivate: 0
EndPrivate
Grid
-1000 -402 m 0
 2000 -402 l 1024
-1000 510.5 m 0
 2000 510.5 l 1024
  Named: "XHGHT"
-982 752 m 0
 2018 752 l 1024
  Named: "CAPS"
-1000 1202 m 0
 2000 1202 l 1024
EndSplineSet
BeginChars: 65537 396

StartChar: exclam
Encoding: 33 33 0
Width: 252
VWidth: 0
Flags: HW
HStem: -2 142<50 202>
VStem: 50 152<-2 140 258 772>
LayerCount: 2
Fore
SplineSet
52.5 769.5 m 1
 52.5 260.5 l 1
 199.5 260.5 l 1
 199.5 769.5 l 1
 52.5 769.5 l 1
47.5 258 m 2
 47.5 772 l 2
 47.5 773.3797875 48.6202125 774.5 50 774.5 c 2
 202 774.5 l 2
 203.3797875 774.5 204.5 773.3797875 204.5 772 c 2
 204.5 258 l 2
 204.5 256.6202125 203.3797875 255.5 202 255.5 c 2
 50 255.5 l 2
 48.6202125 255.5 47.5 256.6202125 47.5 258 c 2
52.5 137.5 m 1
 52.5 0.5 l 1
 199.5 0.5 l 1
 199.5 137.5 l 1
 52.5 137.5 l 1
47.5 -2 m 2
 47.5 140 l 2
 47.5 141.3797875 48.6202125 142.5 50 142.5 c 2
 202 142.5 l 2
 203.3797875 142.5 204.5 141.3797875 204.5 140 c 2
 204.5 -2 l 2
 204.5 -3.3797875 203.3797875 -4.5 202 -4.5 c 2
 50 -4.5 l 2
 48.6202125 -4.5 47.5 -3.3797875 47.5 -2 c 2
EndSplineSet
EndChar

StartChar: quotedbl
Encoding: 34 34 1
Width: 452
VWidth: 0
Flags: HW
HStem: 532 257<50 202 250 402>
VStem: 50 152<532 789> 250 152<532 789>
LayerCount: 2
Fore
SplineSet
252.5 786.5 m 1
 252.5 534.5 l 1
 399.5 534.5 l 1
 399.5 786.5 l 1
 252.5 786.5 l 1
247.5 532 m 2
 247.5 789 l 2
 247.5 790.3797875 248.6202125 791.5 250 791.5 c 2
 402 791.5 l 2
 403.3797875 791.5 404.5 790.3797875 404.5 789 c 2
 404.5 532 l 2
 404.5 530.6202125 403.3797875 529.5 402 529.5 c 2
 250 529.5 l 2
 248.6202125 529.5 247.5 530.6202125 247.5 532 c 2
52.5 786.5 m 1
 52.5 534.5 l 1
 199.5 534.5 l 1
 199.5 786.5 l 1
 52.5 786.5 l 1
47.5 532 m 2
 47.5 789 l 2
 47.5 790.3797875 48.6202125 791.5 50 791.5 c 2
 202 791.5 l 2
 203.3797875 791.5 204.5 790.3797875 204.5 789 c 2
 204.5 532 l 2
 204.5 530.6202125 203.3797875 529.5 202 529.5 c 2
 50 529.5 l 2
 48.6202125 529.5 47.5 530.6202125 47.5 532 c 2
EndSplineSet
EndChar

StartChar: numbersign
Encoding: 35 35 2
Width: 644
VWidth: 0
Flags: HW
HStem: 216 152<55 64.8453 243.718 364.845 543.718 599> 466 152<55 109.044 287.917 409.044 587.917 599>
LayerCount: 2
Fore
SplineSet
135.917127072 615.5 m 2
 57.5 615.5 l 1
 57.5 468.5 l 1
 109.044198895 468.5 l 2
 110.423986395 468.5 111.544198895 467.3797875 111.544198895 466 c 0
 111.544198895 465.850776819 111.531096563 465.704589702 111.50598056 465.562527311 c 2
 94.1800137096 367.562527311 l 2
 93.9728953743 366.391014227 92.9487963628 365.5 91.7182320442 365.5 c 2
 57.5 365.5 l 1
 57.5 218.5 l 1
 64.8453038674 218.5 l 2
 66.2250913674 218.5 67.3453038674 217.3797875 67.3453038674 216 c 0
 67.3453038674 215.850776819 67.3322015356 215.704589702 67.3070855328 215.562527311 c 2
 55.9811138535 151.5 l 1
 202.902864047 151.5 l 1
 214.383522202 216.437472689 l 2
 214.590640537 217.608985773 215.614739548 218.5 216.845303867 218.5 c 2
 364.845303867 218.5 l 2
 366.225091367 218.5 367.345303867 217.3797875 367.345303867 216 c 0
 367.345303867 215.850776819 367.332201535 215.704589702 367.307085532 215.562527311 c 2
 355.981113854 151.5 l 1
 502.902864047 151.5 l 1
 514.383522202 216.437472689 l 2
 514.590640537 217.608985773 515.614739548 218.5 516.845303867 218.5 c 2
 596.5 218.5 l 1
 596.5 365.5 l 1
 543.718232044 365.5 l 2
 542.338444544 365.5 541.218232044 366.6202125 541.218232044 368 c 0
 541.218232044 368.149223181 541.231334376 368.295410298 541.256450379 368.437472689 c 2
 558.58241723 466.437472689 l 2
 558.789535565 467.608985773 559.813634576 468.5 561.044198895 468.5 c 2
 596.5 468.5 l 1
 596.5 615.5 l 1
 587.917127072 615.5 l 2
 586.537339572 615.5 585.417127072 616.6202125 585.417127072 618 c 0
 585.417127072 618.149223181 585.430229404 618.295410298 585.455345407 618.437472689 c 2
 598.018886146 689.5 l 1
 451.097135953 689.5 l 1
 438.378908737 617.562527311 l 2
 438.171790402 616.391014227 437.147691391 615.5 435.917127072 615.5 c 2
 287.917127072 615.5 l 2
 286.537339572 615.5 285.417127072 616.6202125 285.417127072 618 c 0
 285.417127072 618.149223181 285.430229404 618.295410298 285.455345407 618.437472689 c 2
 298.018886146 689.5 l 1
 151.097135953 689.5 l 1
 138.378908737 617.562527311 l 2
 138.171790402 616.391014227 137.147691391 615.5 135.917127072 615.5 c 2
149 694.5 m 2
 301 694.5 l 2
 302.3797875 694.5 303.5 693.3797875 303.5 692 c 0
 303.5 691.850776819 303.486897668 691.704589702 303.461781665 691.562527311 c 2
 290.898240926 620.5 l 1
 433.819991119 620.5 l 1
 446.538218335 692.437472689 l 2
 446.74533667 693.608985773 447.769435681 694.5 449 694.5 c 2
 601 694.5 l 2
 602.3797875 694.5 603.5 693.3797875 603.5 692 c 0
 603.5 691.850776819 603.486897668 691.704589702 603.461781665 691.562527311 c 2
 590.898240926 620.5 l 1
 599 620.5 l 2
 600.3797875 620.5 601.5 619.3797875 601.5 618 c 2
 601.5 466 l 2
 601.5 464.6202125 600.3797875 463.5 599 463.5 c 2
 563.141334848 463.5 l 1
 546.699345898 370.5 l 1
 599 370.5 l 2
 600.3797875 370.5 601.5 369.3797875 601.5 368 c 2
 601.5 216 l 2
 601.5 214.6202125 600.3797875 213.5 599 213.5 c 2
 518.94243982 213.5 l 1
 507.461781665 148.562527311 l 2
 507.25466333 147.391014227 506.230564319 146.5 505 146.5 c 2
 353 146.5 l 2
 351.6202125 146.5 350.5 147.6202125 350.5 149 c 0
 350.5 149.149223181 350.513102332 149.295410298 350.538218335 149.437472689 c 2
 361.864190013 213.5 l 1
 218.94243982 213.5 l 1
 207.461781665 148.562527311 l 2
 207.25466333 147.391014227 206.230564319 146.5 205 146.5 c 2
 53 146.5 l 2
 51.6202125 146.5 50.5 147.6202125 50.5 149 c 0
 50.5 149.149223181 50.5131023318 149.295410298 50.5382183346 149.437472689 c 2
 61.8641900139 213.5 l 1
 55 213.5 l 2
 53.6202125 213.5 52.5 214.6202125 52.5 216 c 2
 52.5 368 l 2
 52.5 369.3797875 53.6202125 370.5 55 370.5 c 2
 89.6210960912 370.5 l 1
 106.063085041 463.5 l 1
 55 463.5 l 2
 53.6202125 463.5 52.5 464.6202125 52.5 466 c 2
 52.5 618 l 2
 52.5 619.3797875 53.6202125 620.5 55 620.5 c 2
 133.819991119 620.5 l 1
 146.538218335 692.437472689 l 2
 146.74533667 693.608985773 147.769435681 694.5 149 694.5 c 2
389.621096091 370.5 m 1
 406.063085041 463.5 l 1
 263.141334848 463.5 l 1
 246.699345898 370.5 l 1
 389.621096091 370.5 l 1
391.718232044 365.5 m 2
 243.718232044 365.5 l 2
 242.338444544 365.5 241.218232044 366.6202125 241.218232044 368 c 0
 241.218232044 368.149223181 241.231334376 368.295410298 241.256450379 368.437472689 c 2
 258.58241723 466.437472689 l 2
 258.789535565 467.608985773 259.813634576 468.5 261.044198895 468.5 c 2
 409.044198895 468.5 l 2
 410.423986395 468.5 411.544198895 467.3797875 411.544198895 466 c 0
 411.544198895 465.850776819 411.531096563 465.704589702 411.50598056 465.562527311 c 2
 394.180013709 367.562527311 l 2
 393.972895374 366.391014227 392.948796363 365.5 391.718232044 365.5 c 2
EndSplineSet
EndChar

StartChar: dollar
Encoding: 36 36 3
Width: 512
VWidth: 0
Flags: HW
VStem: 253 210.5<155.062 301.804> 253 79<-182 -0.345529 442.672 585.787 774.489 1030>
LayerCount: 2
Fore
SplineSet
200.157841037 -4.00505050505 m 0
 217.928671228 -4.00505050505 235.080648049 -1.95014292222 252.431713819 2.0894829763 c 0
 252.614303068 2.13199288717 252.804547227 2.15447099102 253 2.15447099102 c 0
 254.3797875 2.15447099102 255.5 1.03425849102 255.5 -0.345529008978 c 2
 255.5 -179.5 l 1
 329.5 -179.5 l 1
 329.5 32.2021391306 l 2
 329.5 33.4461350292 330.320786455 34.1117766552 331.223204192 34.6493665183 c 0
 373.910526791 60.1293962861 406.74080005 92.3202278226 429.84827189 131.27282321 c 0
 449.702067059 165.024274999 460.019999081 196.296642194 461.001473077 225.08654609 c 0
 461.058197831 226.750472188 461.086538457 228.403940076 461.086538462 230.046959552 c 0
 461.086538546 256.876313805 453.554511173 280.991605558 438.450528139 302.568724178 c 0
 409.691102679 343.65361769 375.314460403 371.661305067 330.717179339 398.398747009 c 0
 329.98828408 398.835742139 329.5 399.633555079 329.5 400.544512926 c 2
 329.5 615.966567057 l 2
 329.5 617.346354557 330.6202125 618.466567057 332.063845504 618.465765995 c 0
 359.275920443 617.782206893 384.910249429 605.659557976 403.346394291 590.769754631 c 1
 475.797396715 711.521425338 l 1
 471.599638027 714.989870705 459.553655398 721.911503977 456.232579687 725.232579687 c 0
 421.300975879 756.581454901 381.925864339 772.072815534 337.662550663 772.072815534 c 0
 335.808536336 772.072815534 333.945850213 772.045393056 332 771.989432646 c 0
 330.6202125 771.989432646 329.5 773.109645146 329.5 774.489432646 c 2
 329.5 1027.5 l 1
 255.5 1027.5 l 1
 255.5 758.017191734 l 2
 255.5 756.936782705 254.81316501 756.015526687 253.852683563 755.666612215 c 0
 190.521605301 732.660306545 142.032493608 693.388123535 108.137081488 637.702803624 c 0
 87.6350633688 603.973677041 76.4659075102 571.032183574 74.4952738743 538.84516752 c 0
 74.248340628 534.811924498 74.125 530.821889644 74.125 526.875 c 0
 74.125 499.248145935 80.1586240206 473.698480555 92.2266002094 450.13719371 c 0
 106.086133806 423.078104307 124.891767477 398.656660149 148.688385702 376.843093443 c 0
 172.429335676 355.080555966 200.470992315 335.261219236 232.829905894 317.397419276 c 0
 240.226784976 316.168529901 247.235627782 314.357338591 253.851019386 311.959504902 c 0
 254.812371549 311.611050469 255.5 310.689354425 255.5 309.608321509 c 2
 255.5 159.563726878 l 2
 255.5 158.498738 254.83263082 157.588391527 253.893640582 157.228435582 c 0
 242.350805186 152.803562929 226.276361099 149.375 211.613281249 149.375 c 0
 192.164680634 149.375 173.510748049 154.552357093 155.750088614 164.834844135 c 0
 147.608909933 170.068459 140.898892594 174.595030633 135.728678484 178.35536666 c 1
 63.2026032848 57.4785746618 l 1
 67.4003619734 54.0101292946 79.4463446024 47.0884960226 82.7674203125 43.7674203125 c 0
 118.012798917 11.7855026905 157.007609527 -4.00505050505 200.157841037 -4.00505050505 c 0
250.5 -3.47415275608 m 1
 233.799212971 -7.13671332432 217.2753824 -9.00505050505 200.157841037 -9.00505050505 c 0
 155.703678438 -9.00505050505 115.259928357 7.54109663616 79.2325796875 40.2325796875 c 0
 75.8888113407 43.5763480343 61.6186321076 51.8465272674 58.2325796875 55.2325796875 c 0
 57.780053125 55.68510625 57.5 56.31010625 57.5 57 c 0
 57.5 57.4691380355 57.6295022434 57.9082678852 57.854678009 58.2835608279 c 2
 132.854678009 183.283560828 l 2
 133.291769387 184.012046458 134.089350536 184.5 135 184.5 c 0
 135.561662354 184.5 136.080312762 184.314379203 136.497900241 184.001188594 c 0
 141.752522095 180.060222203 148.948071931 175.1449098 158.249911386 169.165155865 c 0
 175.322585284 159.28097624 193.077506864 154.375 211.613281249 154.375 c 0
 224.821683358 154.375 239.830342651 157.409406309 250.5 161.298458262 c 1
 250.5 307.839176608 l 1
 244.548732569 309.883885032 238.248840105 311.449515211 231.595930933 312.532546937 c 0
 231.310224267 312.579057325 231.040710513 312.674066415 230.796126905 312.808836974 c 0
 197.979672677 330.891372978 169.4792544 351.003236462 145.311614298 373.156906557 c 0
 121.108232523 395.343339851 101.913866194 420.255229025 87.7733997906 447.86280629 c 0
 75.3413759794 472.134852778 69.125 498.501854065 69.125 526.875 c 0
 69.125 530.928110356 69.251659372 535.021408835 69.5047261257 539.15483248 c 0
 71.5340924898 572.30114976 83.031603298 606.026322961 103.862918512 640.297196376 c 0
 138.045020168 696.453506241 187.004696687 736.323777345 250.5 759.764498201 c 1
 250.5 1030 l 2
 250.5 1031.3797875 251.6202125 1032.5 253 1032.5 c 2
 332 1032.5 l 2
 333.3797875 1032.5 334.5 1031.3797875 334.5 1030 c 2
 334.5 777.047045372 l 1
 335.556640625 777.064224085 337.662550663 777.072815534 337.662550663 777.072815534 c 2
 383.169557786 777.072815534 424.019412471 760.848965812 459.767420313 728.767420313 c 0
 463.111188659 725.423651966 477.381367892 717.153472733 480.767420313 713.767420313 c 0
 481.219946875 713.31489375 481.5 712.68989375 481.5 712 c 0
 481.5 711.530861964 481.370497757 711.091732115 481.145321991 710.716439172 c 2
 406.145321991 585.716439172 l 2
 405.708230613 584.987953542 404.910649464 584.5 404 584.5 c 0
 403.392107467 584.5 402.834598867 584.717435084 402.401071872 585.07870758 c 0
 384.31677708 600.148953241 361.070467294 612.040296017 334.5 613.371024767 c 1
 334.5 401.958579262 l 1
 379.108685564 375.070036813 413.673374554 346.682843402 442.549471861 305.431275822 c 0
 458.227543077 283.034031228 466.086538549 257.847296014 466.086538462 230.046959552 c 0
 466.086538457 228.345309676 466.057186603 226.634137866 465.998526923 224.91345391 c 0
 464.980000919 195.03669114 454.297932941 162.975725003 434.15172811 128.72717679 c 0
 410.723823873 89.2344239323 377.462575839 56.5698290985 334.5 30.7835071059 c 1
 334.5 -182 l 2
 334.5 -183.3797875 333.3797875 -184.5 332 -184.5 c 2
 253 -184.5 l 2
 251.6202125 -184.5 250.5 -183.3797875 250.5 -182 c 2
 250.5 -3.47415275608 l 1
225.763736263 517.529887695 m 0
 225.763736263 492.86209396 238.061322012 464.424253918 250.5 449.263029248 c 1
 250.5 579.448760437 l 1
 246.3467292 574.704224831 242.56381388 569.465682152 239.150430957 563.724992689 c 0
 230.208985862 549.061022734 225.763736263 533.68406528 225.763736263 517.529887695 c 0
255.5 585.786987628 m 2
 255.5 442.672057836 l 2
 255.5 441.292270336 254.3797875 440.172057836 253 440.172057836 c 0
 252.289983989 440.172057836 251.648702472 440.468685933 251.193425757 440.944671818 c 0
 235.70236704 457.140372273 220.763736263 488.268390482 220.763736263 517.529887695 c 0
 220.763736263 534.632563147 225.475995823 550.90234723 234.849569043 566.275007311 c 0
 239.594474627 574.255075793 245.055010007 581.353514208 251.229226159 587.551048086 c 0
 251.682015951 588.005547896 252.308400449 588.286987628 253 588.286987628 c 0
 254.3797875 588.286987628 255.5 587.166775128 255.5 585.786987628 c 2
EndSplineSet
EndChar

StartChar: percent
Encoding: 37 37 4
Width: 691
VWidth: 0
Flags: HW
HStem: 82 75<498.188 521.812> 264 75<498.188 521.812> 483 75<193.188 216.812> 665 75<193.188 216.812>
VStem: 75 76<568.334 654.111> 259 76<568.933 653.698> 380 76<167.334 253.111> 564 76<167.933 252.698>
LayerCount: 2
Fore
SplineSet
195.094964274 485.5 m 1
 206 485.5 l 2
 276.640151455 485.5 332.5 541.383802367 332.5 611 c 0
 332.5 681.631224732 276.631224732 737.5 206 737.5 c 2
 195.0949734 737.5 l 1
 129.426024048 732.551007529 77.5 677.644461189 77.5 611 c 0
 77.5 544.373386187 129.399810448 490.450004306 195.094964274 485.5 c 1
206 480.5 m 2
 195 480.5 l 2
 194.936646918 480.5 194.873841071 480.502361628 194.811665767 480.507001576 c 0
 126.551007345 485.601080563 72.5 541.658175277 72.5 611 c 0
 72.5 680.323959372 126.524754061 737.396960237 194.811665767 742.492998424 c 0
 194.873841071 742.497638372 194.936646918 742.5 195 742.5 c 2
 206 742.5 l 2
 279.368775268 742.5 337.5 684.368775268 337.5 611 c 0
 337.5 538.616197633 279.359848545 480.5 206 480.5 c 2
205 662.5 m 0
 201.421392839 662.5 197.611899286 661.575554218 193.607440219 660.574439452 c 0
 193.412949808 660.525816849 193.209466037 660.5 193 660.5 c 0
 192.389738753 660.5 191.830254857 660.7191329 191.396009681 661.08293733 c 0
 168.772144256 655.550763575 153.5 635.164828613 153.5 611 c 0
 153.5 586.873324243 168.714605197 567.403276149 191.393506465 561.914962499 c 0
 191.828103736 562.280023409 192.388565442 562.499999692 193 562.5 c 0
 193.209466037 562.5 193.412949808 562.474183151 193.607440219 562.425560548 c 0
 197.611899286 561.424445782 201.421392839 560.5 205 560.5 c 0
 208.578607161 560.5 212.388100714 561.424445782 216.392559781 562.425560548 c 0
 216.587050192 562.474183151 216.790533963 562.5 217 562.5 c 0
 217.611434766 562.5 218.171896707 562.280023514 218.606494063 561.914962301 c 0
 241.285395006 567.403276409 256.5 586.873324404 256.5 611 c 0
 256.5 635.164828832 241.227855467 655.550763944 218.603989601 661.082937061 c 0
 218.169744541 660.719133043 217.610260965 660.500000419 217 660.5 c 0
 216.790533963 660.5 216.587050192 660.525816849 216.392559781 660.574439452 c 0
 212.388100714 661.575554218 208.578607161 662.5 205 662.5 c 0
500.094964274 84.5 m 1
 511 84.5 l 2
 581.640151455 84.5 637.5 140.383802367 637.5 210 c 0
 637.5 280.631224732 581.631224732 336.5 511 336.5 c 2
 500.0949734 336.5 l 1
 434.426024048 331.551007529 382.5 276.644461189 382.5 210 c 0
 382.5 143.373386187 434.399810448 89.4500043058 500.094964274 84.5 c 1
511 79.5 m 2
 500 79.5 l 2
 499.936646918 79.5 499.873841071 79.502361628 499.811665767 79.5070015761 c 0
 431.551007345 84.6010805628 377.5 140.658175277 377.5 210 c 0
 377.5 279.323959372 431.524754061 336.396960237 499.811665767 341.492998424 c 0
 499.873841071 341.497638372 499.936646918 341.5 500 341.5 c 2
 511 341.5 l 2
 584.368775268 341.5 642.5 283.368775268 642.5 210 c 0
 642.5 137.616197633 584.359848545 79.5 511 79.5 c 2
510 261.5 m 0
 506.421392839 261.5 502.611899286 260.575554218 498.607440219 259.574439452 c 0
 498.412949808 259.525816849 498.209466037 259.5 498 259.5 c 0
 497.389738753 259.5 496.830254857 259.7191329 496.396009681 260.08293733 c 0
 473.772144256 254.550763575 458.5 234.164828613 458.5 210 c 0
 458.5 185.873324243 473.714605197 166.403276149 496.393506465 160.914962499 c 0
 496.828103736 161.280023409 497.388565442 161.499999692 498 161.5 c 0
 498.209466037 161.5 498.412949808 161.474183151 498.607440219 161.425560548 c 0
 502.611899286 160.424445782 506.421392839 159.5 510 159.5 c 0
 513.578607161 159.5 517.388100714 160.424445782 521.392559781 161.425560548 c 0
 521.587050192 161.474183151 521.790533963 161.5 522 161.5 c 0
 522.611434766 161.5 523.171896707 161.280023514 523.606494063 160.914962301 c 0
 546.285395006 166.403276409 561.5 185.873324404 561.5 210 c 0
 561.5 234.164828832 546.227855467 254.550763944 523.603989601 260.082937061 c 0
 523.169744541 259.719133043 522.610260965 259.500000419 522 259.5 c 0
 521.790533963 259.5 521.587050192 259.525816849 521.392559781 259.574439452 c 0
 517.388100714 260.575554218 513.578607161 261.5 510 261.5 c 0
637.58306938 756.081892575 m 1
 535.91678655 814.587960995 l 1
 53.4169306201 -21.0818925746 l 1
 155.08321345 -79.5879609954 l 1
 637.58306938 756.081892575 l 1
643.5 757 m 0
 643.5 756.545860444 643.378645841 756.119841004 643.166624326 755.752628483 c 2
 158.166624326 -84.2473715166 l 2
 157.73447241 -84.9958408151 156.925647944 -85.5 156 -85.5 c 0
 155.54713887 -85.5 155.12223976 -85.3793281159 154.755731047 -85.1684127243 c 2
 48.7557310469 -24.1684127243 l 2
 48.0055527501 -23.7367063459 47.5 -22.9269263701 47.5 -22 c 0
 47.5 -21.545860444 47.6213541588 -21.1198410042 47.8333756738 -20.7526284834 c 2
 532.833375674 819.247371517 l 2
 533.26552759 819.995840815 534.074352056 820.5 535 820.5 c 0
 535.45286113 820.5 535.87776024 820.379328116 536.244268953 820.168412724 c 2
 642.244268953 759.168412724 l 2
 642.99444725 758.736706346 643.5 757.92692637 643.5 757 c 0
205 667.5 m 0
 208.63252537 667.5 212.109204101 666.774008705 215.449956485 665.961003208 c 0
 215.876140554 666.298438674 216.414717439 666.499999979 217 666.5 c 0
 217.168464796 666.5 217.333060075 666.483300852 217.492219407 666.451468985 c 0
 243.720605798 661.205791707 261.5 638.096106785 261.5 611 c 0
 261.5 583.863576482 243.658197461 561.781726626 217.492219407 556.548531015 c 0
 217.333060075 556.516699148 217.168464796 556.5 217 556.5 c 0
 216.414717425 556.5 215.876140523 556.701561319 215.449956447 557.038996805 c 0
 212.109204078 556.22599129 208.632525359 555.5 205 555.5 c 0
 201.36747463 555.5 197.890795899 556.225991295 194.550043515 557.038996792 c 0
 194.123859446 556.701561326 193.585282561 556.500000021 193 556.5 c 0
 192.831535204 556.5 192.666939925 556.516699148 192.507780593 556.548531015 c 0
 166.341802539 561.781726626 148.5 583.863576482 148.5 611 c 0
 148.5 638.096106785 166.279394202 661.205791707 192.507780593 666.451468985 c 0
 192.666939925 666.483300852 192.831535204 666.5 193 666.5 c 0
 193.585282575 666.5 194.123859477 666.298438681 194.550043553 665.961003195 c 0
 197.890795922 666.77400871 201.367474641 667.5 205 667.5 c 0
510 266.5 m 0
 513.63252537 266.5 517.109204101 265.774008705 520.449956485 264.961003208 c 0
 520.876140554 265.298438674 521.414717439 265.499999979 522 265.5 c 0
 522.168464796 265.5 522.333060075 265.483300852 522.492219407 265.451468985 c 0
 548.720605798 260.205791707 566.5 237.096106785 566.5 210 c 0
 566.5 182.863576482 548.658197461 160.781726626 522.492219407 155.548531015 c 0
 522.333060075 155.516699148 522.168464796 155.5 522 155.5 c 0
 521.414717425 155.5 520.876140523 155.701561319 520.449956447 156.038996805 c 0
 517.109204078 155.22599129 513.632525359 154.5 510 154.5 c 0
 506.36747463 154.5 502.890795899 155.225991295 499.550043515 156.038996792 c 0
 499.123859446 155.701561326 498.585282561 155.500000021 498 155.5 c 0
 497.831535204 155.5 497.666939925 155.516699148 497.507780593 155.548531015 c 0
 471.341802539 160.781726626 453.5 182.863576482 453.5 210 c 0
 453.5 237.096106785 471.279394202 260.205791707 497.507780593 265.451468985 c 0
 497.666939925 265.483300852 497.831535204 265.5 498 265.5 c 0
 498.585282575 265.5 499.123859477 265.298438681 499.550043553 264.961003195 c 0
 502.890795922 265.77400871 506.367474641 266.5 510 266.5 c 0
EndSplineSet
EndChar

StartChar: ampersand
Encoding: 38 38 5
Width: 649
VWidth: 0
Flags: HW
HStem: 3 151<250.364 321.357> 498 20G<297.268 319.279>
VStem: 56.8926 151<196.066 271.468>
LayerCount: 2
Fore
SplineSet
52.5000212613 505.987888314 m 0
 52.5000212613 472.764917636 59.9468538226 439.932102415 77.9123325164 407.512641563 c 1
 93.5173458544 391.753780044 l 2
 93.9647505134 391.30196447 94.2412109375 390.680571454 94.2412109375 389.995117188 c 0
 94.2412109375 389.538175123 94.1183543969 389.109701305 93.903899739 388.740954158 c 0
 71.9488729449 350.990067448 59.392578125 307.025734441 59.392578125 260 c 0
 59.392578125 119.38315218 173.263757892 5.5 314.892578125 5.5 c 1
 314.892578125 5.5 323.356615456 10.9952680936 337.11211415 21.5851803591 c 0
 353.843718852 34.4663001051 377.859996833 53.6961205072 404.119564826 74.9009942216 c 0
 404.548668751 75.247500095 405.094522725 75.455078125 405.688476562 75.455078125 c 0
 406.382807963 75.455078125 407.011408088 75.1714106027 407.464607891 74.7137446044 c 2
 481.901265624 -0.456471876299 l 1
 596.3577375 114 l 1
 534.136876562 176.220860937 l 2
 533.68435 176.6733875 533.404296875 177.2983875 533.404296875 177.98828125 c 0
 533.404296875 178.78415239 533.776998697 179.493661277 534.357239661 179.951645233 c 0
 550.223494741 192.47487387 561.112124442 201.392686331 566.392578125 204.005746158 c 1
 566.392578125 350.575414937 l 1
 555.616352235 342.546601535 497.026803884 295.368863348 453.603342618 259.930379186 c 0
 453.172731826 259.578992002 452.622999409 259.368164062 452.024414062 259.368164062 c 0
 451.334520312 259.368164062 450.709520312 259.648217187 450.256993749 260.10074375 c 2
 339.125157812 371.232579688 l 2
 338.67263125 371.68510625 338.392578125 372.31010625 338.392578125 373 c 2
 338.392578125 514.431787576 l 1
 330.651106433 515.138324713 322.813152549 515.5 314.892578125 515.5 c 0
 279.98042544 515.5 246.755867427 508.579546858 216.508120128 496.030556579 c 0
 216.213455125 495.908307864 215.890425557 495.840820312 215.551757812 495.840820312 c 0
 214.861864062 495.840820312 214.236864062 496.120873437 213.784337499 496.5734 c 2
 191.125157812 519.232579688 l 2
 189.646406416 520.711331084 190.143153835 525.862882768 190.143153835 528.489672886 c 0
 190.143153835 556.705295569 200.527521198 585.169783698 222.125157812 606.767420313 c 0
 241.29741502 625.93967752 353.206040258 688.031307588 383.447270281 693.201525965 c 1
 386.354161927 808.508227905 l 1
 382.787574459 810.122749844 376.869216528 811.067855442 369.171679197 811.067855442 c 0
 306.999421216 811.067855442 141.780501816 754.15449809 119.108999353 710.843148615 c 0
 82.950492079 641.76624176 52.5000212613 573.001436773 52.5000212613 505.987888314 c 0
195.143153835 528.489672886 m 0
 195.143153835 526.357190786 195.205193862 524.22562994 195.328930659 522.098488091 c 1
 216.14096284 501.286455909 l 1
 246.565813269 513.679178321 279.90018105 520.5 314.892578125 520.5 c 0
 323.751142982 520.5 332.507949449 520.056280944 341.14418393 519.191572913 c 0
 342.406008942 519.065231945 343.392578125 517.998970377 343.392578125 516.704101562 c 2
 343.392578125 374.034840625 l 1
 452.194265993 265.233152756 l 1
 460.255931714 271.81238907 l 2
 514.545962364 316.121778657 562.734887464 356.192554656 568.294414754 357.559696717 c 0
 568.486095629 357.606832916 568.686440034 357.631835938 568.892578125 357.631835938 c 0
 570.272365625 357.631835938 571.392578125 356.511623438 571.392578125 355.131835938 c 2
 571.392578125 202.295898438 l 2
 571.392578125 201.001101723 570.406118806 199.934886798 569.144394708 199.808448201 c 2
 569.047187566 199.682618721 l 1
 566.004896514 198.082450591 554.976703629 189.816813683 539.661081897 177.766336853 c 1
 601.659998438 115.767420312 l 2
 602.112525 115.31489375 602.392578125 114.68989375 602.392578125 114 c 0
 602.392578125 113.31010625 602.112525 112.68510625 601.659998438 112.232579688 c 2
 483.659998438 -5.7674203125 l 2
 483.207471875 -6.219946875 482.582471875 -6.5 481.892578125 -6.5 c 0
 481.198246724 -6.5 480.569646599 -6.21633247769 480.116446796 -5.75866647936 c 2
 405.501547012 69.5915485929 l 1
 379.916488645 48.9385998713 356.583863851 30.2665991111 340.158306588 17.6210953611 c 0
 326.797783347 7.33526188534 318.629148178 0.5 314.892578125 0.5 c 0
 170.521398358 0.5 54.392578125 116.61684782 54.392578125 260 c 0
 54.392578125 307.246936163 66.8278559118 351.471833319 88.622819149 389.591944373 c 1
 74.1164432081 404.241337144 l 2
 73.956135662 404.403225145 73.8177744198 404.586883978 73.7062132546 404.787459867 c 0
 55.2003585154 438.05914785 47.5000212613 471.890570281 47.5000212613 505.987888314 c 0
 47.5000212613 574.513856595 78.4494181398 643.949595683 114.676156897 713.156851385 c 0
 139.289327574 760.17753908 305.86885246 816.067855442 369.171679197 816.067855442 c 0
 378.21704264 816.067855442 385.407396375 815.018519227 390.18008308 812.142950577 c 0
 390.906385277 811.705349712 391.416294933 810.908696283 391.3917713 809.935925503 c 2
 388.3917713 690.935925503 l 2
 388.35943355 689.653194734 387.35891654 688.609205938 386.094297578 688.508036421 c 0
 362.539319546 686.623638179 243.976029267 621.548610517 225.659998438 603.232579687 c 0
 205.077749838 582.650331088 195.143153835 555.482059017 195.143153835 528.489672886 c 0
210.392578125 260 m 0
 210.392578125 202.47076767 256.10519379 156.640996177 314.622390342 156.500324895 c 0
 314.953550619 156.660727609 316.077008415 157.281766479 317.665979387 158.291956877 c 1
 210.578442184 266.435040439 l 1
 210.455146212 264.308578593 210.392578125 262.163064032 210.392578125 260 c 0
205.392578125 260 m 0
 205.392578125 263.886974209 204.586535286 274.551757812 208.534179688 274.551757812 c 0
 209.228512008 274.551757812 209.857112878 274.268089539 210.310312816 273.810422475 c 2
 323.354258128 159.652219351 l 2
 323.801663839 159.200403626 324.078125 158.579009868 324.078125 157.893554688 c 0
 324.078125 157.04309622 323.652544009 156.291253136 323.002913545 155.839556954 c 0
 319.377479481 153.31874733 317.328410765 151.5 314.892578125 151.5 c 0
 253.539190881 151.5 205.392578125 199.617744609 205.392578125 260 c 0
EndSplineSet
EndChar

StartChar: quotesingle
Encoding: 39 39 6
Width: 252
VWidth: 0
Flags: HW
HStem: 532 257<50 202>
VStem: 50 152<532 789>
LayerCount: 2
Fore
SplineSet
52.5 786.5 m 1
 52.5 534.5 l 1
 199.5 534.5 l 1
 199.5 786.5 l 1
 52.5 786.5 l 1
47.5 532 m 2
 47.5 789 l 2
 47.5 790.3797875 48.6202125 791.5 50 791.5 c 2
 202 791.5 l 2
 203.3797875 791.5 204.5 790.3797875 204.5 789 c 2
 204.5 532 l 2
 204.5 530.6202125 203.3797875 529.5 202 529.5 c 2
 50 529.5 l 2
 48.6202125 529.5 47.5 530.6202125 47.5 532 c 2
EndSplineSet
EndChar

StartChar: parenleft
Encoding: 40 40 7
Width: 555
VWidth: 0
Flags: HW
HStem: -14 25<373.819 460.389> 744 29<364.924 455.227>
VStem: 50 104<252.783 504.708>
LayerCount: 2
Fore
SplineSet
432 770.5 m 0
 222.440093519 770.5 52.5 595.681843628 52.5 380 c 0
 52.5 163.313255241 222.442974481 -11.5 432 -11.5 c 0
 452.951758405 -11.5 473.160973061 -10.0883655896 493.245101666 -6.6768855376 c 1
 431.693144516 8.50030937622 l 1
 301.809300106 8.76215163589 151.5 175.198635903 151.5 378 c 0
 151.5 579.773763288 301.762136761 746.182430017 431.628268434 746.499546015 c 1
 494.529239448 765.456003033 l 1
 474.022169735 769.027545182 453.398353027 770.5 432 770.5 c 0
432 741.5 m 0
 305.950940957 741.5 156.5 578.033687279 156.5 378 c 0
 156.5 176.96109255 305.953836333 13.5 432 13.5 c 0
 432.206679963 13.5 432.40753574 13.4748653553 432.599674795 13.4274886019 c 2
 505.599674795 -4.57251139815 l 2
 506.690248703 -4.84142003283 507.5 -5.82689246259 507.5 -7 c 0
 507.5 -8.20444335987 506.646411087 -9.21109358491 505.511690158 -9.44749377846 c 0
 481.316687871 -14.4881192549 457.135451637 -16.5 432 -16.5 c 0
 219.557025519 -16.5 47.5 160.686744759 47.5 380 c 0
 47.5 598.318156372 219.559906481 775.5 432 775.5 c 0
 457.135451637 775.5 481.316687871 773.488119255 505.511690158 768.447493778 c 0
 506.646411087 768.211093585 507.5 767.20444336 507.5 766 c 0
 507.5 764.871023665 506.750026912 763.915830664 505.721533475 763.605873738 c 2
 432.721533475 741.605873738 l 2
 432.493045393 741.537014316 432.250811165 741.5 432 741.5 c 0
EndSplineSet
EndChar

StartChar: parenright
Encoding: 41 41 8
Width: 555
VWidth: 0
Flags: HW
HStem: -14 25<94.6111 181.181> 744 29<99.7727 190.076>
VStem: 401 104<252.783 504.708>
LayerCount: 2
Fore
SplineSet
403.5 378 m 0
 403.5 175.198635903 253.190699894 8.76215163589 123.306855484 8.50030937622 c 1
 61.7548983337 -6.6768855376 l 1
 81.8390269387 -10.0883655896 102.048241595 -11.5 123 -11.5 c 0
 332.557025519 -11.5 502.5 163.313255241 502.5 380 c 0
 502.5 595.681843628 332.559906481 770.5 123 770.5 c 0
 101.601646973 770.5 80.9778302653 769.027545182 60.4707605524 765.456003033 c 1
 123.371731566 746.499546015 l 1
 253.237863239 746.182430017 403.5 579.773763288 403.5 378 c 0
47.5 766 m 0
 47.5 767.20444336 48.3535889129 768.211093585 49.4883098419 768.447493778 c 0
 73.6833121287 773.488119255 97.8645483634 775.5 123 775.5 c 0
 335.440093519 775.5 507.5 598.318156372 507.5 380 c 0
 507.5 160.686744759 335.442974481 -16.5 123 -16.5 c 0
 97.8645483634 -16.5 73.6833121287 -14.4881192549 49.4883098419 -9.44749377846 c 0
 48.3535889129 -9.21109358491 47.5 -8.20444335987 47.5 -7 c 0
 47.5 -5.82689246259 48.3097512974 -4.84142003283 49.4003252047 -4.57251139815 c 2
 122.400325205 13.4274886019 l 2
 122.59246426 13.4748653553 122.793320037 13.5 123 13.5 c 0
 249.046163667 13.5 398.5 176.96109255 398.5 378 c 0
 398.5 578.033687279 249.049059043 741.5 123 741.5 c 0
 122.749188835 741.5 122.506954607 741.537014316 122.278466525 741.605873738 c 2
 49.2784665255 763.605873738 l 2
 48.2499730881 763.915830664 47.5 764.871023665 47.5 766 c 0
EndSplineSet
EndChar

StartChar: asterisk
Encoding: 42 42 9
Width: 644
VWidth: 0
Flags: HW
HStem: 344 152<50 139 505 594>
VStem: 246 152<149 237 603 692>
LayerCount: 2
Fore
SplineSet
591.5 346.5 m 1
 591.5 493.5 l 1
 505 493.5 l 2
 503.6202125 493.5 502.5 494.6202125 502.5 496 c 0
 502.5 496.68989375 502.780053125 497.31489375 503.232579687 497.767420313 c 2
 564.465159375 559 l 1
 461 662.465159375 l 1
 399.767420313 601.232579687 l 2
 399.31489375 600.780053125 398.68989375 600.5 398 600.5 c 0
 396.6202125 600.5 395.5 601.6202125 395.5 603 c 2
 395.5 689.5 l 1
 248.5 689.5 l 1
 248.5 603 l 2
 248.5 601.6202125 247.3797875 600.5 246 600.5 c 0
 245.31010625 600.5 244.68510625 600.780053125 244.232579687 601.232579687 c 2
 183 662.465159375 l 1
 79.534840625 559 l 1
 140.767420313 497.767420313 l 2
 141.219946875 497.31489375 141.5 496.68989375 141.5 496 c 0
 141.5 494.6202125 140.3797875 493.5 139 493.5 c 2
 52.5 493.5 l 1
 52.5 346.5 l 1
 139 346.5 l 2
 140.3797875 346.5 141.5 345.3797875 141.5 344 c 0
 141.5 343.31010625 141.219946875 342.68510625 140.767420313 342.232579687 c 2
 79.534840625 281 l 1
 183 177.534840625 l 1
 244.232579687 238.767420313 l 2
 244.68510625 239.219946875 245.31010625 239.5 246 239.5 c 0
 247.3797875 239.5 248.5 238.3797875 248.5 237 c 2
 248.5 151.5 l 1
 395.5 151.5 l 1
 395.5 237 l 2
 395.5 238.3797875 396.6202125 239.5 398 239.5 c 0
 398.68989375 239.5 399.31489375 239.219946875 399.767420313 238.767420313 c 2
 461 177.534840625 l 1
 564.465159375 281 l 1
 503.232579687 342.232579687 l 2
 502.780053125 342.68510625 502.5 343.31010625 502.5 344 c 0
 502.5 345.3797875 503.6202125 346.5 505 346.5 c 2
 591.5 346.5 l 1
596.5 496 m 2
 596.5 344 l 2
 596.5 342.6202125 595.3797875 341.5 594 341.5 c 2
 511.034840625 341.5 l 1
 569.767420313 282.767420313 l 2
 570.219946875 282.31489375 570.5 281.68989375 570.5 281 c 0
 570.5 280.31010625 570.219946875 279.68510625 569.767420313 279.232579687 c 2
 462.767420313 172.232579687 l 2
 462.31489375 171.780053125 461.68989375 171.5 461 171.5 c 0
 460.31010625 171.5 459.68510625 171.780053125 459.232579687 172.232579687 c 2
 400.5 230.965159375 l 1
 400.5 149 l 2
 400.5 147.6202125 399.3797875 146.5 398 146.5 c 2
 246 146.5 l 2
 244.6202125 146.5 243.5 147.6202125 243.5 149 c 2
 243.5 230.965159375 l 1
 184.767420313 172.232579687 l 2
 184.31489375 171.780053125 183.68989375 171.5 183 171.5 c 0
 182.31010625 171.5 181.68510625 171.780053125 181.232579687 172.232579687 c 2
 74.2325796875 279.232579687 l 2
 73.780053125 279.68510625 73.5 280.31010625 73.5 281 c 0
 73.5 281.68989375 73.780053125 282.31489375 74.2325796875 282.767420313 c 2
 132.965159375 341.5 l 1
 50 341.5 l 2
 48.6202125 341.5 47.5 342.6202125 47.5 344 c 2
 47.5 496 l 2
 47.5 497.3797875 48.6202125 498.5 50 498.5 c 2
 132.965159375 498.5 l 1
 74.2325796875 557.232579687 l 2
 73.780053125 557.68510625 73.5 558.31010625 73.5 559 c 0
 73.5 559.68989375 73.780053125 560.31489375 74.2325796875 560.767420313 c 2
 181.232579687 667.767420313 l 2
 181.68510625 668.219946875 182.31010625 668.5 183 668.5 c 0
 183.68989375 668.5 184.31489375 668.219946875 184.767420313 667.767420313 c 2
 243.5 609.034840625 l 1
 243.5 692 l 2
 243.5 693.3797875 244.6202125 694.5 246 694.5 c 2
 398 694.5 l 2
 399.3797875 694.5 400.5 693.3797875 400.5 692 c 2
 400.5 609.034840625 l 1
 459.232579687 667.767420313 l 2
 459.68510625 668.219946875 460.31010625 668.5 461 668.5 c 0
 461.68989375 668.5 462.31489375 668.219946875 462.767420313 667.767420313 c 2
 569.767420313 560.767420313 l 2
 570.219946875 560.31489375 570.5 559.68989375 570.5 559 c 0
 570.5 558.31010625 570.219946875 557.68510625 569.767420313 557.232579687 c 2
 511.034840625 498.5 l 1
 594 498.5 l 2
 595.3797875 498.5 596.5 497.3797875 596.5 496 c 2
EndSplineSet
EndChar

StartChar: plus
Encoding: 43 43 10
Width: 644
VWidth: 0
Flags: HW
HStem: 344 152<50 594>
VStem: 246 152<149 692>
LayerCount: 2
Fore
SplineSet
395.5 689.5 m 1
 248.5 689.5 l 1
 248.5 496 l 2
 248.5 494.6202125 247.3797875 493.5 246 493.5 c 2
 52.5 493.5 l 1
 52.5 346.5 l 1
 246 346.5 l 2
 247.3797875 346.5 248.5 345.3797875 248.5 344 c 2
 248.5 151.5 l 1
 395.5 151.5 l 1
 395.5 344 l 2
 395.5 345.3797875 396.6202125 346.5 398 346.5 c 2
 591.5 346.5 l 1
 591.5 493.5 l 1
 398 493.5 l 2
 396.6202125 493.5 395.5 494.6202125 395.5 496 c 2
 395.5 689.5 l 1
246 694.5 m 2
 398 694.5 l 2
 399.3797875 694.5 400.5 693.3797875 400.5 692 c 2
 400.5 498.5 l 1
 594 498.5 l 2
 595.3797875 498.5 596.5 497.3797875 596.5 496 c 2
 596.5 344 l 2
 596.5 342.6202125 595.3797875 341.5 594 341.5 c 2
 400.5 341.5 l 1
 400.5 149 l 2
 400.5 147.6202125 399.3797875 146.5 398 146.5 c 2
 246 146.5 l 2
 244.6202125 146.5 243.5 147.6202125 243.5 149 c 2
 243.5 341.5 l 1
 50 341.5 l 2
 48.6202125 341.5 47.5 342.6202125 47.5 344 c 2
 47.5 496 l 2
 47.5 497.3797875 48.6202125 498.5 50 498.5 c 2
 243.5 498.5 l 1
 243.5 692 l 2
 243.5 693.3797875 244.6202125 694.5 246 694.5 c 2
EndSplineSet
EndChar

StartChar: comma
Encoding: 44 44 11
Width: 252
VWidth: 0
Flags: HW
HStem: -134 274<92.7671 145.182>
VStem: 50 152<-2 140>
LayerCount: 2
Fore
SplineSet
52.5 137.5 m 1
 52.5 0.5 l 1
 92.7671232877 0.5 l 2
 94.1469107877 0.5 95.2671232877 -0.6202125 95.2671232877 -2 c 0
 95.2671232877 -2.05815654392 95.2651331956 -2.11585194483 95.2612174549 -2.17302175919 c 2
 86.6650020777 -127.677766266 l 1
 140.441466712 -131.386487965 l 1
 199.5 -1.45771473176 l 1
 199.5 137.5 l 1
 52.5 137.5 l 1
47.5 -2 m 2
 47.5 140 l 2
 47.5 141.3797875 48.6202125 142.5 50 142.5 c 2
 202 142.5 l 2
 203.3797875 142.5 204.5 141.3797875 204.5 140 c 2
 204.5 -2 l 2
 204.5 -2.36805769598 204.420290918 -2.71764524901 204.277208213 -3.03242719956 c 2
 144.277208213 -135.0324272 l 2
 143.883897494 -135.89771078 143.011729804 -136.5 142 -136.5 c 0
 141.941443157 -136.5 141.883353828 -136.497982417 141.825797795 -136.494013036 c 2
 83.8257977946 -132.494013036 l 2
 82.5271486194 -132.404451024 81.5 -131.321230657 81.5 -130 c 0
 81.5 -129.941843456 81.5019900921 -129.884148055 81.5059058328 -129.826978241 c 2
 90.0899454384 -4.5 l 1
 50 -4.5 l 2
 48.6202125 -4.5 47.5 -3.3797875 47.5 -2 c 2
EndSplineSet
EndChar

StartChar: hyphen
Encoding: 45 45 12
Width: 644
VWidth: 0
Flags: HW
HStem: 344 152<50 594>
LayerCount: 2
Fore
SplineSet
591.5 346.5 m 1
 591.5 493.5 l 1
 52.5 493.5 l 1
 52.5 346.5 l 1
 591.5 346.5 l 1
596.5 496 m 2
 596.5 344 l 2
 596.5 342.6202125 595.3797875 341.5 594 341.5 c 2
 50 341.5 l 2
 48.6202125 341.5 47.5 342.6202125 47.5 344 c 2
 47.5 496 l 2
 47.5 497.3797875 48.6202125 498.5 50 498.5 c 2
 594 498.5 l 2
 595.3797875 498.5 596.5 497.3797875 596.5 496 c 2
EndSplineSet
EndChar

StartChar: period
Encoding: 46 46 13
Width: 252
VWidth: 0
Flags: HW
HStem: -2 142<50 202>
VStem: 50 152<-2 140>
LayerCount: 2
Fore
SplineSet
52.5 137.5 m 1
 52.5 0.5 l 1
 199.5 0.5 l 1
 199.5 137.5 l 1
 52.5 137.5 l 1
47.5 -2 m 2
 47.5 140 l 2
 47.5 141.3797875 48.6202125 142.5 50 142.5 c 2
 202 142.5 l 2
 203.3797875 142.5 204.5 141.3797875 204.5 140 c 2
 204.5 -2 l 2
 204.5 -3.3797875 203.3797875 -4.5 202 -4.5 c 2
 50 -4.5 l 2
 48.6202125 -4.5 47.5 -3.3797875 47.5 -2 c 2
EndSplineSet
EndChar

StartChar: slash
Encoding: 47 47 14
Width: 691
VWidth: 0
Flags: HW
LayerCount: 2
Fore
SplineSet
637.58306938 756.081892575 m 1
 535.91678655 814.587960995 l 1
 53.4169306201 -21.0818925746 l 1
 155.08321345 -79.5879609954 l 1
 637.58306938 756.081892575 l 1
643.5 757 m 0
 643.5 756.545860444 643.378645841 756.119841004 643.166624326 755.752628483 c 2
 158.166624326 -84.2473715166 l 2
 157.73447241 -84.9958408151 156.925647944 -85.5 156 -85.5 c 0
 155.54713887 -85.5 155.12223976 -85.3793281159 154.755731047 -85.1684127243 c 2
 48.7557310469 -24.1684127243 l 2
 48.0055527501 -23.7367063459 47.5 -22.9269263701 47.5 -22 c 0
 47.5 -21.545860444 47.6213541588 -21.1198410042 47.8333756738 -20.7526284834 c 2
 532.833375674 819.247371517 l 2
 533.26552759 819.995840815 534.074352056 820.5 535 820.5 c 0
 535.45286113 820.5 535.87776024 820.379328116 536.244268953 820.168412724 c 2
 642.244268953 759.168412724 l 2
 642.99444725 758.736706346 643.5 757.92692637 643.5 757 c 0
EndSplineSet
EndChar

StartChar: zero
Encoding: 48 48 15
Width: 864
VWidth: 0
Flags: HW
HStem: -14 157<356.32 508.56> 612 161<356.32 508.56>
VStem: 126.5 122<271.459 485.999> 615.5 122<268.943 488.503>
LayerCount: 2
Fore
SplineSet
735 380 m 0
 735 596.166998844 599.586137731 770.5 432.5 770.5 c 0
 265.406758087 770.5 129 596.156408706 129 380 c 0
 129 162.838949282 265.409346384 -11.5 432.5 -11.5 c 0
 599.583557361 -11.5 735 162.828369312 735 380 c 0
740 380 m 0
 740 161.171630688 603.416442639 -16.5 432.5 -16.5 c 0
 261.590653616 -16.5 124 161.161050718 124 380 c 0
 124 597.843591294 261.593241913 775.5 432.5 775.5 c 0
 603.413862269 775.5 740 597.833001156 740 380 c 0
613 378 m 0
 613 506.157913915 532.599199677 609.5 432.5 609.5 c 0
 332.388932384 609.5 251 506.140216708 251 378 c 0
 251 248.851981194 332.393289836 145.5 432.5 145.5 c 0
 532.594864351 145.5 613 248.834312365 613 378 c 0
618 378 m 0
 618 247.165687635 536.405135649 140.5 432.5 140.5 c 0
 328.606710164 140.5 246 247.148018806 246 378 c 0
 246 507.859783292 328.611067616 614.5 432.5 614.5 c 0
 536.400800323 614.5 618 507.842086085 618 378 c 0
EndSplineSet
EndChar

StartChar: one
Encoding: 49 49 16
Width: 436
VWidth: 0
Flags: HW
HStem: -2 21G<234 386> 754 20G<234 386>
VStem: 234 152<-2 774>
LayerCount: 2
Fore
SplineSet
234 565.5 m 0
 235.3797875 565.5 236.5 564.3797875 236.5 563 c 2
 236.5 0.5 l 1
 383.5 0.5 l 1
 383.5 771.5 l 1
 234.018691589 771.5 l 2
 233.145236569 771.5 232.529875808 771.956516478 232.008201296 772.473360671 c 2
 53.5430804486 594.008239824 l 1
 157.991798704 490.526639329 l 1
 232.232579687 564.767420313 l 2
 232.68510625 565.219946875 233.31010625 565.5 234 565.5 c 0
47.5 594 m 0
 47.5 594.68989375 47.780053125 595.31489375 48.2325796875 595.767420313 c 2
 230.232579687 777.767420313 l 2
 230.68510625 778.219946875 231.31010625 778.5 232 778.5 c 0
 233.436482536 778.5 234.274893295 777.264684503 235.046724383 776.5 c 2
 386 776.5 l 2
 387.3797875 776.5 388.5 775.3797875 388.5 774 c 2
 388.5 -2 l 2
 388.5 -3.3797875 387.3797875 -4.5 386 -4.5 c 2
 234 -4.5 l 2
 232.6202125 -4.5 231.5 -3.3797875 231.5 -2 c 2
 231.5 556.965159375 l 1
 159.767420313 485.232579687 l 2
 159.31489375 484.780053125 158.68989375 484.5 158 484.5 c 0
 157.314315762 484.5 156.692735768 484.776645961 156.240882446 485.224315456 c 2
 48.2408824462 592.224315456 l 2
 47.7834811417 592.677481564 47.5 593.305896738 47.5 594 c 0
EndSplineSet
EndChar

StartChar: two
Encoding: 50 50 17
Width: 555
VWidth: 0
Flags: HW
HStem: 0 226<58.0748 244.22> 586 128.801<58.0915 234.536>
VStem: 359 153<324.465 477.36>
LayerCount: 2
Fore
SplineSet
130 588.5 m 0
 257.950922806 588.5 361.5 503.799995125 361.5 398.80078125 c 0
 361.5 292.826243943 257.679430382 223.5 130 223.5 c 0
 105.375559641 223.5 81.6802852142 226.630109531 59.4588772224 232.435766816 c 1
 56.532337911 2.52428541168 l 1
 554.5 7.27703653546 l 1
 554.5 123.876420427 l 1
 281.915899421 121.275506504 l 2
 280.511814062 121.275506504 279.391601562 122.395603125 279.391601562 123.775390625 c 0
 279.391601562 124.885219287 280.11635098 125.827109429 281.117980348 126.153191582 c 0
 415.823404396 170.006772621 509.5 271.969012497 509.5 400.400390625 c 0
 509.5 572.208782643 340.03777059 712.30078125 130 712.30078125 c 0
 105.908917911 712.30078125 82.3431323703 710.454867401 59.5 706.927612305 c 1
 59.5 579.581890092 l 1
 81.709359898 585.374599443 105.39058192 588.5 130 588.5 c 0
130 583.5 m 0
 104.671366427 583.5 80.3494668004 580.129216243 57.6612047587 573.913717857 c 0
 57.450561843 573.856011776 57.2288513082 573.825195312 57 573.825195312 c 0
 55.6202125 573.825195312 54.5 574.945407812 54.5 576.325195312 c 2
 54.5 709.06640625 l 2
 54.5 710.311603852 55.4123312554 711.345396578 56.6044385025 711.535229162 c 0
 80.3629388167 715.318561188 104.899965815 717.30078125 130 717.30078125 c 0
 341.96222941 717.30078125 514.5 575.791217357 514.5 400.400390625 c 0
 514.5 273.993077016 425.560184356 173.215546155 297.232601376 126.421885706 c 1
 557 128.900390625 l 0
 558.3797875 128.900390625 559.5 127.780178125 559.5 126.400390625 c 2
 559.5 4.80078125 l 2
 559.5 3.42910427062 558.392918223 2.31395964757 557.024304481 2.30089719191 c 2
 557.024304481 2.30089719191 54.0243044806 -2.49988405809 54 -2.5 c 0
 52.6202125 -2.5 51.5 -1.3797875 51.5002061201 0.0324020628961 c 2
 54.5002061201 235.715019251 l 2
 54.517579658 237.079899548 55.6310292786 238.182617188 57 238.182617188 c 0
 57.2290917215 238.182617188 57.4510276588 238.151735944 57.6618685772 238.093912689 c 0
 80.3497672241 231.871742216 104.671429429 228.5 130 228.5 c 0
 256.320569618 228.5 356.5 296.775318557 356.5 398.80078125 c 0
 356.5 500.200004875 256.049077194 583.5 130 583.5 c 0
EndSplineSet
EndChar

StartChar: three
Encoding: 51 51 18
Width: 435
VWidth: 0
Flags: HW
HStem: -6.12012 122.31<50 177.642> 288.149 122.641<101.207 198.605> 582.75 122.311<56 180.704>
VStem: 234 151<159.615 254.202 444.41 539.831>
LayerCount: 2
Fore
SplineSet
114.557617188 408.290039062 m 0
 110.853301371 408.290039062 107.03440911 409.125822828 103.5 409.745288468 c 1
 103.5 289.192381237 l 1
 107.057365035 289.817054501 110.910503016 290.687613006 114.656545994 290.647526387 c 0
 118.746928115 290.489607798 122.861730865 290.41015625 127 290.41015625 c 0
 131.191017953 290.41015625 135.357580034 290.490585214 139.595703125 290.65234375 c 0
 139.672937689 290.65234375 139.749358932 290.648833812 139.824815909 290.641964882 c 0
 194.549557937 285.660312451 236.5 248.856550748 236.5 202.049804688 c 0
 236.5 151.673244959 164.701653695 113.689453125 76 113.689453125 c 0
 67.9362720904 113.689453125 60.0733611044 114.387586622 52.5 115.71500511 c 1
 52.5 -2.7564843683 l 1
 60.2412586062 -3.32809228476 68.0792545848 -3.6201171875 76 -3.6201171875 c 0
 246.727576758 -3.6201171875 382.5 89.2248796895 382.5 202.049804688 c 0
 382.5 258.821385346 354.471378752 310.151810404 308.731496253 347.48126005 c 0
 308.16958451 347.939850125 307.810546875 348.637799721 307.810546875 349.418945312 c 0
 307.810546875 350.201294532 308.170691809 350.900191174 308.734095164 351.358748725 c 0
 354.475628838 388.588072039 382.5 439.717683809 382.5 496.080078125 c 0
 382.5 609.762065245 249.355736437 702.560546875 82 702.560546875 c 0
 74.0794109886 702.560546875 66.2414151001 702.267724929 58.5 701.695959824 c 1
 58.5 583.222429997 l 1
 66.07358719 584.551906258 73.9365026031 585.25 82 585.25 c 0
 167.42530352 585.25 236.5 547.178639197 236.5 496.080078125 c 0
 236.5 450.007614129 194.538205805 413.275043382 139.826638322 408.297476347 c 0
 135.690283382 407.921157683 131.218690871 408.530273438 127 408.530273438 c 0
 122.862128902 408.530273438 118.747326686 408.44986101 114.557617188 408.290039062 c 0
47.5 -5.0703125 m 2
 47.5 118.7265625 l 2
 47.5 120.10635 48.6202125 121.2265625 50 121.2265625 c 0
 50.1677667191 121.2265625 50.3316959234 121.210001459 50.4902405744 121.178426416 c 0
 58.6558428631 119.552201611 67.2027470089 118.689453125 76 118.689453125 c 0
 164.493658805 118.689453125 231.5 156.848239417 231.5 202.049804688 c 0
 231.5 245.483937135 192.428580751 280.767757763 139.528416323 285.647892762 c 0
 135.377266786 285.489710997 131.200502395 285.41015625 127 285.41015625 c 0
 122.85280516 285.41015625 118.728395726 285.488712344 114.627730955 285.644894336 c 0
 110.15595618 285.225738268 105.771473 284.582366428 101.491287203 283.728032259 c 0
 101.332417408 283.696321511 101.168135916 283.6796875 101 283.6796875 c 0
 99.6202125 283.6796875 98.5 284.7999 98.5 286.1796875 c 2
 98.5 412.756835938 l 2
 98.5 414.136623438 99.6202125 415.256835938 101 415.256835938 c 0
 101.167770449 415.256835938 101.331703212 415.240274161 101.490251148 415.208697748 c 0
 105.770758588 414.356191735 110.155605225 413.713724337 114.626783634 413.294558919 c 0
 118.727986617 413.450751281 122.852407116 413.530273409 127 413.530273438 c 0
 131.201881517 413.530273438 135.378706212 413.449751014 139.530428567 413.291557071 c 0
 192.441806858 418.169811743 231.5 453.416708792 231.5 496.080078125 c 0
 231.5 542.180735803 167.041493356 580.25 82 580.25 c 0
 73.2027453752 580.25 64.6561261962 579.387251397 56.4910652148 577.758261399 c 0
 56.3322643768 577.726579458 56.1680576054 577.709960938 56 577.709960938 c 0
 54.6202125 577.709960938 53.5 578.830173438 53.5 580.209960938 c 2
 53.5 704.009765625 l 2
 53.5 705.320657041 54.5111356926 706.397248672 55.7953604415 706.501493882 c 0
 64.4164536257 707.201299482 73.1575150383 707.560546875 82 707.560546875 c 0
 250.527076063 707.560546875 387.5 614.058247255 387.5 496.080078125 c 0
 387.5 438.967975169 359.556604648 387.263914691 314.236661745 349.416307708 c 1
 359.559612052 311.46202568 387.5 259.553785446 387.5 202.049804688 c 0
 387.5 84.8356671855 247.807579492 -8.6201171875 76 -8.6201171875 c 0
 67.1577043772 -8.6201171875 58.4166431214 -8.26186173924 49.7953604414 -7.56204075677 c 0
 48.5111356925 -7.45779554654 47.5 -6.38120391554 47.5 -5.0703125 c 2
EndSplineSet
EndChar

StartChar: four
Encoding: 52 52 19
Width: 752
VWidth: 0
Flags: HW
HStem: 191.015 150<287.765 385.765> 754 20G<368.718 522.766>
VStem: 385.765 137.001<341.015 521.015> 393.764 129.002<0 192.015>
LayerCount: 2
Fore
SplineSet
393.763671875 194.514648438 m 0
 395.143459375 194.514648438 396.263671875 193.394435938 396.263671875 192.014648438 c 2
 396.263671875 2.5 l 1
 520.265625 2.5 l 1
 520.265625 771.5 l 1
 381.239923792 771.5 l 1
 62.0015712249 193.514648438 l 1
 391.729091978 193.514648438 l 2
 392.254429184 194.040499171 392.873911139 194.514648438 393.763671875 194.514648438 c 0
291.936499756 346.388130292 m 1
 383.264648438 343.592370639 l 1
 383.264648438 511.33794985 l 1
 291.936499756 346.388130292 l 1
285.264648438 344.014648438 m 0
 285.264648438 344.452776679 285.377596426 344.864732677 285.575938228 345.222962258 c 2
 383.575938228 522.222962258 l 2
 384.00222984 522.992897109 384.822989179 523.514648438 385.764648438 523.514648438 c 0
 387.144435938 523.514648438 388.264648438 522.394435938 388.264648438 521.014648438 c 2
 388.264648438 341.014648438 l 2
 388.264648438 339.634860938 387.143753966 338.471239333 385.686897909 338.515836968 c 2
 287.686897909 341.515836968 l 2
 286.343023749 341.556975973 285.264648438 342.66087195 285.264648438 344.014648438 c 0
391.263671875 188.514648438 m 1
 57.7646484375 188.514648438 l 2
 56.3848609375 188.514648438 55.2646484375 189.634860938 55.2646484375 191.014648438 c 0
 55.2646484375 191.451860989 55.3771247951 191.863010583 55.5746957407 192.22071545 c 2
 377.574695741 775.206067012 l 2
 378.000633706 775.977233453 378.822073489 776.5 379.764648438 776.5 c 2
 522.765625 776.5 l 2
 524.1454125 776.5 525.265625 775.3797875 525.265625 774 c 2
 525.265625 0 l 2
 525.265625 -1.3797875 524.1454125 -2.5 522.765625 -2.5 c 2
 393.763671875 -2.5 l 2
 392.383884375 -2.5 391.263671875 -1.3797875 391.263671875 0 c 2
 391.263671875 188.514648438 l 1
EndSplineSet
EndChar

StartChar: five
Encoding: 53 53 20
Width: 384
VWidth: 0
Flags: HW
HStem: 3 151<50 140.529> 622 152<202 367>
VStem: 50 152<471.593 622> 183 151<196.066 325.061>
LayerCount: 2
Fore
SplineSet
76 5.5 m 0
 217.628820233 5.5 331.5 119.38315218 331.5 260 c 0
 331.5 356.06914407 279.016499838 439.24303011 200.786197587 482.814337694 c 0
 200.019272789 483.241485682 199.5 484.060580044 199.5 485 c 2
 199.5 622 l 2
 199.5 623.3797875 200.6202125 624.5 202 624.5 c 2
 364.516392226 624.5 l 1
 365.483497489 771.5 l 1
 52.9996120594 771.5 l 2
 52.8574613678 771.310877888 52.6891221124 771.142538632 52.5 771.000387941 c 2
 52.5 367.143780225 l 1
 59.9063407847 368.720599051 67.9518294713 369.5 76 369.5 c 0
 137.364160423 369.5 185.5 321.364160423 185.5 260 c 0
 185.5 199.617744609 137.353387244 151.5 76 151.5 c 0
 67.9518294713 151.5 59.9063407847 152.279400949 52.5 153.856219775 c 1
 52.5 6.2560600069 l 1
 60.4536830847 5.50252956548 67.7561976783 5.5 76 5.5 c 0
47.5 4 m 2
 47.5 157 l 2
 47.5 158.3797875 48.6202125 159.5 50 159.5 c 0
 50.2094660369 159.5 50.4129498084 159.474183151 50.6074402191 159.425560548 c 0
 58.3731880325 157.484123595 67.1883417818 156.5 76 156.5 c 0
 134.646612756 156.5 180.5 202.382255391 180.5 260 c 0
 180.5 318.635839577 134.635839577 364.5 76 364.5 c 0
 67.1883417818 364.5 58.3731880325 363.515876405 50.6074402191 361.574439452 c 0
 50.4129498084 361.525816849 50.2094660369 361.5 50 361.5 c 0
 48.6202125 361.5 47.5 362.6202125 47.5 364 c 2
 47.5 773 l 2
 47.5 773.946806667 48.0274710353 774.771388047 48.8043345008 775.195665549 c 0
 49.2286120043 775.972528984 50.0531933648 776.499999991 51 776.5 c 2
 368 776.5 l 2
 369.3797875 776.5 370.5 775.3797875 370.5 774 c 2
 369.499944885 621.983240986 l 2
 369.490917992 620.611153144 368.374196881 619.5 367 619.5 c 2
 204.5 619.5 l 1
 204.5 486.464516028 l 1
 283.558234491 441.843150576 336.5 357.403577835 336.5 260 c 0
 336.5 116.61684782 220.371179767 0.5 76 0.5 c 0
 67.0050688044 0.5 58.859813529 0.5 49.7213394292 1.51538601109 c 0
 48.4724955368 1.65414644358 47.5 2.71440016692 47.5 4 c 2
EndSplineSet
EndChar

StartChar: six
Encoding: 54 54 21
Width: 729
VWidth: 0
Flags: HW
HStem: 612 161<337.002 549.858>
VStem: 50 224<251.187 324.857> 492 167<195.982 323.016>
LayerCount: 2
Fore
SplineSet
401.001609272 -12.5 m 0
 411.514524737 -12.5 421.252967577 -11.4999789591 432.000004991 -11.5 c 0
 465.378118663 -11.5 498.100883802 -0.0264791868724 529.964392473 22.0960270649 c 0
 530.018518971 22.1336065352 530.074198247 22.1691034482 530.131313912 22.2024014129 c 0
 584.152992451 53.6965977279 625.403975978 104.385603366 644.616671558 164.895101833 c 0
 652.338564796 189.212537946 656.5 215.117571758 656.5 242 c 0
 656.5 261.767244487 654.281184031 280.992997356 650.07891571 299.443324803 c 0
 624.171557552 413.188512647 522.86186622 497.5 401 497.5 c 0
 399.664833763 497.5 398.329667526 497.5 396.994501289 497.5 c 0
 390.868016279 497.5 385.330257241 497.311288897 379.299864644 496.903226296 c 0
 311.289895536 492.299155684 250.779966752 461.353341325 207.818738026 414.131120409 c 0
 207.361310347 413.628324014 206.701873543 413.312511233 205.969256783 413.312511233 c 0
 204.589469283 413.312511233 203.469256783 414.432723733 203.469256783 415.812511233 c 0
 203.469256783 415.946659584 203.479845581 416.078354306 203.500232245 416.206804463 c 0
 221.314881823 528.451483379 316.388201562 614.5 432 614.5 c 0
 456.702453531 614.5 522.155076404 610.729512207 548.5 603.296944716 c 1
 548.5 763.754561511 l 1
 523.54464154 768.119908489 456.111425233 770.5 432 770.5 c 0
 222.440093519 770.5 52.5 595.681843628 52.5 380 c 0
 52.5 236.447895461 127.102597972 111.254920868 238.381719452 43.1176545941 c 0
 238.464560233 43.066930395 238.544225188 43.0115180176 238.620344006 42.9517877739 c 0
 277.794734765 12.2117425092 326.3037267 -7.57332720847 379.339712928 -11.9058372642 c 0
 385.278199824 -12.3903930314 390.884279963 -12.5 397 -12.5 c 0
 398.333869757 -12.5 399.667739515 -12.5 401.001609272 -12.5 c 0
381.654516586 364.493835645 m 0
 374.05094485 364.493835645 366.464965187 363.28856767 359.607356658 361.574418563 c 0
 359.412891525 361.525809455 359.209436039 361.5 359 361.5 c 0
 358.458202105 361.5 357.956427527 361.672723181 357.546783208 361.966062602 c 0
 310.59617015 351.596595124 276.5 310.560753664 276.5 260 c 0
 276.5 225.400209583 293.034308896 195.06058428 318.910932551 176.323741334 c 0
 329.134056438 170.28903849 339.8650801 165.050085122 351.025533331 160.688380997 c 0
 353.16848693 160.07052503 355.342051645 159.517630982 357.5440517 159.031978643 c 0
 357.954196054 159.326507768 358.456997266 159.5 359 159.5 c 0
 359.209439015 159.5 359.412897308 159.474189812 359.607364948 159.425579365 c 0
 366.784559659 157.631519231 374.858879951 156.654332639 382.997940388 156.517217325 c 0
 391.08389451 156.659784499 398.860525414 157.705881231 406.402037408 159.559746082 c 0
 406.593657405 159.606850373 406.793933882 159.631835938 407 159.631835938 c 0
 407.603244106 159.631835938 408.156871883 159.417713502 408.588961141 159.06139082 c 0
 455.480483389 169.465813271 489.5 210.366288406 489.5 260 c 0
 489.5 310.511572147 455.470114464 351.516753964 408.590187781 361.93571555 c 0
 408.157919915 361.578786265 407.60381516 361.364258324 407 361.364257812 c 0
 406.793566319 361.364257812 406.592942951 361.389332591 406.401012105 361.436599941 c 0
 398.860095336 363.29372276 390.996087081 364.34020398 382.910208308 364.482817289 c 0
 382.491625372 364.482817289 382.073022859 364.493835645 381.654516586 364.493835645 c 0
47.5 380 m 0
 47.5 598.318156372 219.559906481 775.5 432 775.5 c 0
 457.139263418 775.5 527.355848704 773.088630072 551.490069393 768.283929252 c 0
 552.635550946 768.055883928 553.5 767.044112409 553.5 765.83203125 c 2
 553.5 599.90625 l 2
 553.5 598.5264625 552.3797875 597.40625 551 597.40625 c 0
 550.716807297 597.40625 550.444549186 597.453438929 550.19066664 597.540375812 c 0
 528.069728274 605.11523856 457.296112858 609.5 432 609.5 c 0
 321.786092409 609.5 230.565530258 529.525404792 209.892070352 423.636043274 c 1
 253.270499156 468.32249773 312.624116711 497.401094422 378.957947856 501.89169558 c 0
 385.080647309 502.30600437 390.750247497 502.499994069 397.005498711 502.499994069 c 0
 398.33699914 502.499994069 399.66849957 502.499994069 401 502.499994069 c 0
 525.222118156 502.499994069 628.539379948 416.530237353 654.954287414 300.556675197 c 0
 659.238347219 281.74723702 661.5 262.148771137 661.5 242 c 0
 661.5 214.591412618 657.257138328 188.178087054 649.383328442 163.382241917 c 0
 629.802708053 101.713981239 587.769989028 50.0456944751 532.729737463 17.929570554 c 0
 503.407679835 -2.4111201549 436.357230078 -17.022859 431.331282791 -17.022859 c 1
 431.489407104 -16.952466514 431.711390715 -16.5986453621 431.999995009 -16.5 c 1
 429.615772064 -16.5 427.236620123 -16.4776731922 424.862726058 -16.4332197636 c 0
 417.006322364 -17.1392829677 409.045417611 -17.499999492 400.998390728 -17.499999492 c 0
 399.665593818 -17.499999492 398.332796909 -17.499999492 397 -17.499999492 c 0
 390.75085541 -17.499999492 385.11434415 -17.3938754958 378.927865196 -16.8890846108 c 0
 324.955617115 -12.4800913182 275.56845114 7.63970275008 235.652195809 38.9262428739 c 1
 122.958370164 107.98873285 47.5 234.745377271 47.5 380 c 0
494.5 260 m 0
 494.5 207.238867485 457.733231428 163.816215786 407.494529662 153.71891608 c 0
 407.334653022 153.686783037 407.16928004 153.669921875 407 153.669921875 c 0
 406.419132532 153.669921875 405.884268743 153.868453689 405.459620427 154.201305521 c 0
 398.203941394 152.573349475 390.61756384 151.653795457 382.912215862 151.517938925 c 0
 375.164325869 151.648464355 367.470324373 152.502517902 360.39835902 154.097796927 c 0
 359.999134632 153.827713053 359.517848956 153.669922088 359 153.669921875 c 0
 355.937915267 153.669921875 352.039177622 154.924661099 349.315221538 155.987636402 c 0
 337.828898871 160.469969058 326.787444437 165.860809598 316.273024631 172.074767829 c 0
 316.206876185 172.113861159 316.142680848 172.15591461 316.080621495 172.20074531 c 0
 288.873606107 191.854664626 271.5 223.728780957 271.5 260 c 0
 271.5 313.617386083 308.25489917 357.165250934 358.50480906 367.278997794 c 0
 358.664890957 367.31121731 358.830486558 367.328125 359 367.328125 c 0
 359.514059266 367.328125 359.992088484 367.172635028 360.389581177 366.906161562 c 0
 367.019325568 368.439609637 374.265883533 369.493835645 381.654516586 369.493835645 c 0
 382.102550554 369.493835645 382.55106386 369.482026461 382.999947942 369.482026461 c 0
 390.704102893 369.346145742 398.216952879 368.426559008 405.458987735 366.796245197 c 0
 405.883737413 367.129395834 406.418844003 367.328124914 407 367.328125 c 0
 407.169513494 367.328125 407.335109144 367.311217299 407.495191086 367.278997764 c 0
 457.74508544 357.165250889 494.5 313.617386512 494.5 260 c 0
EndSplineSet
EndChar

StartChar: seven
Encoding: 55 55 22
Width: 610
VWidth: 0
Flags: HW
HStem: 610 152<50 389>
LayerCount: 2
Fore
SplineSet
557.5 759.5 m 1
 52.5 759.5 l 1
 52.5 612.5 l 1
 389 612.5 l 2
 390.3797875 612.5 391.5 611.3797875 391.5 610 c 0
 391.5 609.561581432 391.386902272 609.149369804 391.188315802 608.790974104 c 2
 55.2434809705 2.5 l 1
 211.545877228 2.5 l 1
 557.5 610.661426198 l 1
 557.5 759.5 l 1
213 -2.5 m 2
 51 -2.5 l 2
 49.6202125 -2.5 48.5 -1.3797875 48.5 0 c 0
 48.5 0.438418568462 48.6130977282 0.850630196005 48.8116841981 1.20902589604 c 2
 384.756519029 607.5 l 1
 50 607.5 l 2
 48.6202125 607.5 47.5 608.6202125 47.5 610 c 2
 47.5 762 l 2
 47.5 763.3797875 48.6202125 764.5 50 764.5 c 2
 560 764.5 l 2
 561.3797875 764.5 562.5 763.3797875 562.5 762 c 2
 562.5 610 l 2
 562.5 609.551585982 562.381686483 609.130587504 562.174600177 608.766545294 c 2
 215.174600177 -1.23345470566 l 2
 214.744473807 -1.98958463558 213.931373482 -2.5 213 -2.5 c 2
EndSplineSet
EndChar

StartChar: eight
Encoding: 56 56 23
Width: 616
VWidth: 0
Flags: HW
HStem: 366.983 92.0348<286.347 333.638>
VStem: 50 151<197.14 324.826 500.772 628.449> 419 151<195.844 324.826 500.772 629.753>
LayerCount: 2
Fore
SplineSet
288.879882812 318.379882812 m 0
 288.386819671 318.379882812 287.926903477 318.522930577 287.539406974 318.769753363 c 0
 246.422500406 309.628252683 216.580078125 273.668255931 216.580078125 229.359375 c 0
 216.580078125 185.827448393 246.410654572 149.958291055 287.537511053 140.829623893 c 0
 287.925402948 141.077188411 288.386015305 141.220703125 288.879882812 141.220703125 c 0
 289.089379354 141.220703125 289.292891888 141.194878756 289.487408003 141.146242429 c 0
 295.777433246 139.573500112 302.861361677 138.715439815 310.003095129 138.594361167 c 0
 317.096465655 138.719907548 323.907301756 139.63771217 330.522132876 141.263842304 c 0
 330.713759458 141.310950046 330.914043284 141.3359375 331.120117188 141.3359375 c 0
 331.669199676 141.3359375 332.177175367 141.158538492 332.589807166 140.85797757 c 0
 373.650896352 150.032348068 403.419921875 185.872382388 403.419921875 229.359375 c 0
 403.419921875 273.620987885 373.641136525 309.551520016 332.592143195 318.740405758 c 0
 332.179093257 318.438811679 331.670236303 318.260742209 331.120117188 318.260742188 c 0
 330.913575098 318.260742188 330.712849425 318.28584331 330.520826921 318.333158804 c 0
 323.907054298 319.96283193 317.008536874 320.879730508 309.914934278 321.005280997 c 0
 302.773655712 320.885163377 295.777543365 320.026169294 289.487068103 318.454258546 c 0
 289.292654812 318.405677107 289.089257332 318.379882812 288.879882812 318.379882812 c 0
288.879882812 586.779296875 m 0
 288.386799188 586.779296875 287.926865265 586.922356526 287.539358682 587.169198187 c 0
 246.422524148 578.02859572 216.580078125 542.067695421 216.580078125 497.759765625 c 0
 216.580078125 454.227877141 246.410621738 418.35958822 287.53760997 409.229100452 c 0
 287.92548122 409.476626175 288.386057191 409.620116633 288.879882812 409.620117188 c 0
 289.089379354 409.620117188 289.292891888 409.594292819 289.487408003 409.545656492 c 0
 295.777431437 407.972914627 302.861140871 407.114904027 310.002417232 406.995739757 c 0
 317.094797632 407.120334344 323.907454996 408.037189558 330.521806337 409.664152632 c 0
 330.713531927 409.711312276 330.913926228 409.736328125 331.120117188 409.736328125 c 0
 331.669613013 409.736328125 332.17794013 409.558661932 332.590738864 409.257689219 c 0
 373.651426966 418.434242807 403.419921875 454.273174728 403.419921875 497.759765625 c 0
 403.419921875 542.020429333 373.641111564 577.95186266 332.592188492 587.139853416 c 0
 332.179130485 586.838239343 331.67025649 586.660156894 331.120117188 586.66015625 c 0
 330.913575097 586.66015625 330.712849424 586.685257372 330.52082692 586.732572866 c 0
 323.906884935 588.362287725 317.00742289 589.280098551 309.915268676 589.404689163 c 0
 302.773537379 589.284563927 295.777321382 588.427415898 289.487747865 586.853842575 c 0
 289.293128946 586.805151334 289.089501369 586.779296875 288.879882812 586.779296875 c 0
536.299804688 229.359375 m 0
 536.299804688 279.266533818 520.209550314 325.247396497 492.913206301 362.427981833 c 0
 492.609275053 362.841969205 492.4296875 363.352814359 492.4296875 363.905273438 c 0
 492.4296875 364.459186179 492.610221378 364.971265714 492.915608047 365.385830953 c 0
 520.211753304 402.44060164 536.299804688 448.210989961 536.299804688 497.759765625 c 0
 536.299804688 622.223975256 436.223975256 722.299804688 311.759765625 722.299804688 c 0
 310.584503823 722.299804688 309.409242021 722.299804688 308.233980219 722.299804688 c 0
 302.86227066 722.299804688 297.945451482 722.20397367 292.719198795 721.777875182 c 0
 175.578884689 713.84720905 83.7001953125 616.995965944 83.7001953125 497.759765625 c 0
 83.7001953125 448.21098996 99.7882466956 402.44060164 127.084391953 365.385830953 c 0
 127.389778622 364.971265714 127.5703125 364.459186179 127.5703125 363.905273438 c 0
 127.5703125 363.352814359 127.390724947 362.841969205 127.086793699 362.427981833 c 0
 99.7904496854 325.247396497 83.7001953125 279.266533818 83.7001953125 229.359375 c 0
 83.7001953125 110.972497439 175.541680319 14.1508422237 292.689512971 6.22372683688 c 0
 297.924016616 5.79795381304 302.860196748 5.7001953125 308.240234375 5.7001953125 c 0
 309.413716237 5.7001953125 310.587198098 5.7001953125 311.76067996 5.7001953125 c 0
 436.229346913 5.7001953125 536.299804688 105.783551557 536.299804688 229.359375 c 0
78.7001953125 229.359375 m 0
 78.7001953125 279.702597415 94.7223864257 326.151043083 121.976514651 363.902786216 c 1
 94.723594785 401.5254105 78.7001953125 447.764072364 78.7001953125 497.759765625 c 0
 78.7001953125 619.629034056 172.571505935 718.654744074 292.308144955 726.761187318 c 0
 297.760302085 727.205703887 302.730972701 727.299797015 308.246488531 727.299797015 c 0
 309.417580896 727.299797015 310.58867326 727.299797015 311.759765625 727.299797015 c 0
 438.975243494 727.299797015 541.299804688 624.975243494 541.299804688 497.759765625 c 0
 541.299804688 447.76407236 525.276405192 401.525410514 498.02348539 363.90278621 c 1
 525.27761355 326.151043061 541.299804646 279.702597417 541.299804688 229.359375 c 0
 541.299804688 103.017229693 438.969871837 0.700195476475 311.75885129 0.700195476475 c 0
 310.585978985 0.700195476475 309.41310668 0.700195476475 308.240234375 0.700195476475 c 0
 302.736624004 0.700195476475 297.787129306 0.792807493528 292.347596405 1.23525753812 c 0
 172.612616557 9.33743902631 78.7001953125 108.324377561 78.7001953125 229.359375 c 0
331.120117188 324.109375 m 0
 331.28963908 324.109375 331.455242742 324.092465624 331.615332068 324.060242975 c 0
 375.973869388 315.131792834 408.419921875 276.684757729 408.419921875 229.359375 c 0
 408.419921875 182.786781852 375.962009709 144.451397778 331.614591363 135.539217429 c 0
 331.454731946 135.507091636 331.289377645 135.490234375 331.120117188 135.490234375 c 0
 330.591771499 135.490234375 330.101486336 135.654487007 329.697582948 135.934671023 c 0
 323.331679324 134.516153146 316.671600026 133.714645467 309.916826747 133.595091957 c 0
 303.124218798 133.710251644 296.378854643 134.454708927 290.166183673 135.846559158 c 0
 289.790288833 135.62036839 289.35016311 135.490234805 288.879882812 135.490234375 c 0
 288.710622355 135.490234375 288.545268054 135.507091636 288.385408637 135.539217429 c 0
 244.037990291 144.451397778 211.580078125 182.786781852 211.580078125 229.359375 c 0
 211.580078125 276.684757729 244.026130612 315.131792834 288.384667932 324.060242975 c 0
 288.544757258 324.092465624 288.71036092 324.109375 288.879882812 324.109375 c 0
 289.350025676 324.109375 289.790031669 323.979317411 290.165854236 323.753248789 c 0
 296.392357299 325.144797709 303.210987593 325.890208296 310.004987598 326.004484627 c 0
 316.757830833 325.884965278 323.344617777 325.084690767 329.696032476 323.663862247 c 0
 330.100231359 323.944701978 330.591095303 324.109375 331.120117188 324.109375 c 0
331.120117188 592.508789062 m 0
 331.289620407 592.508789062 331.455206258 592.491883411 331.615279166 592.459667685 c 0
 375.973893184 583.532204629 408.419921875 545.084160942 408.419921875 497.759765625 c 0
 408.419921875 451.187134177 375.961976433 412.852809688 331.614697187 403.938652761 c 0
 331.454804921 403.90651314 331.289414994 403.889648438 331.120117188 403.889648438 c 0
 330.591416407 403.889648438 330.10082733 404.054121927 329.696768697 404.334650163 c 0
 323.33080452 402.915611898 316.671049344 402.115089872 309.917504644 401.996447743 c 0
 303.124480877 402.109800829 296.378896787 402.854131223 290.166186512 404.245974619 c 0
 289.790291032 404.019782768 289.350164248 403.889648509 288.879882812 403.889648438 c 0
 288.710585006 403.889648438 288.545195079 403.90651314 288.385302813 403.938652761 c 0
 244.038023567 412.852809688 211.580078125 451.187134177 211.580078125 497.759765625 c 0
 211.580078125 545.084160942 244.026106816 583.532204629 288.384720834 592.459667685 c 0
 288.544793742 592.491883411 288.710379593 592.508789062 288.879882812 592.508789062 c 0
 289.349798032 592.508789062 289.78960556 592.37885739 290.16530827 592.152991172 c 0
 296.392489892 593.545913188 303.211030439 594.2896346 310.0046532 594.403904587 c 0
 316.757041389 594.285282775 323.344608942 593.484244529 329.696054094 592.063291148 c 0
 330.100248852 592.34412171 330.591104707 592.508789062 331.120117188 592.508789062 c 0
EndSplineSet
EndChar

StartChar: nine
Encoding: 57 57 24
Width: 729
VWidth: 0
Flags: HW
HStem: -15 161<159.125 372.237> 753 20G<303.991 308.522 311.849 312.592>
VStem: 50 167<434.984 562.018> 435 224<269.5 508.141>
LayerCount: 2
Fore
SplineSet
307.998390728 770.5 m 0
 297.485450578 770.5 287.746384106 769.5 277 769.5 c 0
 243.622284594 769.5 210.89933788 758.026443002 179.035664673 735.90399408 c 0
 178.981545033 735.866419662 178.925873021 735.830927268 178.868764982 735.797633244 c 0
 124.847263305 704.303061985 83.595659563 653.614022372 64.3833312083 593.10490688 c 0
 56.6614379705 568.787470768 52.5 542.882428242 52.5 516 c 0
 52.5 496.232755513 54.7188159686 477.007002644 58.9210842896 458.556675197 c 0
 84.8284424481 344.811487352 186.13813378 260.5 308 260.5 c 0
 309.335166237 260.5 310.670332474 260.5 312.005498711 260.5 c 0
 318.131983721 260.5 323.669742759 260.688711103 329.700135356 261.096773704 c 0
 397.709940393 265.700657201 458.220316834 296.646793555 501.180779613 343.868876993 c 0
 501.638207782 344.371681428 502.297649961 344.6875 503.030273438 344.6875 c 0
 504.410060938 344.6875 505.530273438 343.5672875 505.530273438 342.1875 c 0
 505.530273438 342.053352752 505.519684814 341.921659093 505.499298478 341.793209938 c 0
 487.684730765 229.548113119 392.612204308 143.5 277 143.5 c 0
 252.297517433 143.5 186.844921206 147.270487842 160.5 154.70305524 c 1
 160.5 -5.75456157097 l 1
 185.455351473 -10.119908642 252.888426066 -12.5 277 -12.5 c 0
 486.559906481 -12.5 656.5 162.318156372 656.5 378 c 0
 656.5 521.551815374 581.896944497 646.745268069 470.618085816 714.881972226 c 0
 470.535236299 714.932701476 470.455563259 714.988119885 470.379437121 715.047857026 c 0
 431.205736114 745.787954617 382.696566042 765.573146263 329.660279708 769.905837866 c 0
 323.721793762 770.390393555 318.115719281 770.5 312 770.5 c 0
 310.666130242 770.5 309.332260485 770.5 307.998390728 770.5 c 0
327.344854873 393.506179627 m 0
 334.948539138 393.506179627 342.535361007 394.711034427 349.392485 396.425541852 c 0
 349.586998032 396.474176533 349.790507117 396.5 350 396.5 c 0
 350.5417944 396.5 351.043566 396.327279047 351.453208866 396.033943074 c 0
 398.404054375 406.403627903 432.5 447.439213399 432.5 498 c 0
 432.5 532.599627955 415.965813224 562.939805528 390.089387189 581.676331841 c 0
 379.865567812 587.711362512 369.135113474 592.94963879 357.974474747 597.311821853 c 0
 355.831484011 597.929754424 353.657856987 598.482724871 351.456155185 598.968169939 c 0
 351.045973034 598.673550581 350.543094038 598.5 350 598.5 c 0
 349.790507116 598.5 349.586998032 598.525823467 349.392484999 598.574458148 c 0
 342.215855502 600.368852503 334.140749973 601.346054204 326.002178353 601.482780677 c 0
 317.916923128 601.340616052 310.139641971 600.293951962 302.597899956 598.440238522 c 0
 302.406298952 598.393144183 302.206043666 598.368164062 302 598.368164062 c 0
 301.396763154 598.368164062 300.843141442 598.582281345 300.411054459 598.938596316 c 0
 253.519273168 588.533770458 219.5 547.633679613 219.5 498 c 0
 219.5 447.488394307 253.529647051 406.483468243 300.409819244 396.064290432 c 0
 300.842086096 396.421216265 301.396188137 396.635741898 302 396.635742188 c 0
 302.206455657 396.635742188 302.407099763 396.61066207 302.59904919 396.563384963 c 0
 310.140053034 394.706037146 318.004396119 393.659349808 326.08965427 393.517185131 c 0
 326.508038007 393.517185131 326.926542856 393.506179627 327.344854873 393.506179627 c 0
661.5 378 m 0
 661.5 159.681843628 489.440093519 -17.5 277 -17.5 c 0
 251.8605844 -17.5 181.64415058 -15.0886299298 157.509930607 -10.2839292516 c 0
 156.364449054 -10.0558839284 155.5 -9.04411240947 155.5 -7.83203125 c 2
 155.5 158.09375 l 2
 155.5 159.4735375 156.6202125 160.59375 158 160.59375 c 0
 158.283192703 160.59375 158.555450814 160.546561071 158.80933336 160.459624188 c 0
 180.930271939 152.884761367 251.703856508 148.5 277 148.5 c 0
 387.214286852 148.5 478.434085779 228.474168842 499.107455612 334.363881726 c 1
 455.729657796 289.677556903 396.375689611 260.59872063 330.042052144 256.10830442 c 0
 323.919352691 255.69399563 318.249752503 255.500005931 311.994501289 255.500005931 c 0
 310.66300086 255.500005931 309.33150043 255.500005931 308 255.500005931 c 0
 183.777881844 255.500005931 80.4606200519 341.469762648 54.0457125854 457.443324803 c 0
 49.7616527814 476.25276298 47.5 495.851228863 47.5 516 c 0
 47.5 543.408587382 51.7428589044 569.821904232 59.6166687917 594.61774937 c 0
 79.196934889 656.285682624 121.230289267 707.953973235 176.270324976 740.070453795 c 0
 205.592556119 760.411109389 272.642840739 775.022848509 277.668704903 775.022848509 c 1
 277.510583038 774.952456941 277.288601867 774.598644529 277 774.5 c 1
 279.384140277 774.5 281.763281636 774.477295122 284.137419222 774.432823466 c 0
 291.994091597 775.139440834 299.954419941 775.499999477 308.001609272 775.499999492 c 0
 309.334406182 775.499999492 310.667203091 775.499999492 312 775.499999492 c 0
 318.249145382 775.499999492 323.885662219 775.393874975 330.072142168 774.88908401 c 0
 384.044672362 770.479907867 433.432018684 750.360002941 473.347612304 719.073382563 c 1
 586.041181161 650.011448949 661.5 523.254335071 661.5 378 c 0
327.344854873 388.506179627 m 0
 326.897039988 388.506179627 326.448847942 388.517971119 326.00018948 388.517971119 c 0
 318.296322059 388.653429727 310.783142252 389.573181175 303.540958316 391.203712308 c 0
 303.116217268 390.870587135 302.581131366 390.671875 302 390.671875 c 0
 301.830483322 390.671875 301.664884634 390.688783336 301.504799892 390.721004052 c 0
 251.254676367 400.834990728 214.5 444.382583225 214.5 498 c 0
 214.5 550.761107208 251.266535239 594.183337736 301.505451717 604.281080177 c 0
 301.665334138 604.313215653 301.830713388 604.330078125 302 604.330078125 c 0
 302.580885171 604.330078125 303.11576386 604.13153421 303.5404184 603.798664045 c 0
 310.796078743 605.426538307 318.382558258 606.346582666 326.087665397 606.482063073 c 0
 333.835241442 606.351905252 341.529903945 605.497884744 348.601764799 603.902286564 c 0
 349.000964866 604.17231927 349.482204539 604.330077592 350 604.330078125 c 0
 353.061989591 604.330078125 356.96080766 603.07565494 359.684930804 602.012513955 c 0
 371.171226646 597.529768049 382.212101417 592.139637506 392.727271645 585.925320001 c 0
 392.793421357 585.886226453 392.857617912 585.844172681 392.919678426 585.799341567 c 0
 420.126564829 566.14570125 437.5 534.27102685 437.5 498 c 0
 437.5 444.382583225 400.745323633 400.834990728 350.495200108 390.721004052 c 0
 350.335115366 390.688783336 350.169516678 390.671875 350 390.671875 c 0
 349.485991831 390.671875 349.008006547 390.827334063 348.610537355 391.093758981 c 0
 341.980650693 389.560006666 334.733405979 388.506179627 327.344854873 388.506179627 c 0
EndSplineSet
EndChar

StartChar: colon
Encoding: 58 58 25
Width: 252
VWidth: 0
Flags: HW
HStem: -2 142<50 202> 398 142<50 202>
VStem: 50 152<-2 140 398 540>
LayerCount: 2
Fore
SplineSet
52.5 537.5 m 1
 52.5 400.5 l 1
 199.5 400.5 l 1
 199.5 537.5 l 1
 52.5 537.5 l 1
47.5 398 m 2
 47.5 540 l 2
 47.5 541.3797875 48.6202125 542.5 50 542.5 c 2
 202 542.5 l 2
 203.3797875 542.5 204.5 541.3797875 204.5 540 c 2
 204.5 398 l 2
 204.5 396.6202125 203.3797875 395.5 202 395.5 c 2
 50 395.5 l 2
 48.6202125 395.5 47.5 396.6202125 47.5 398 c 2
52.5 137.5 m 1
 52.5 0.5 l 1
 199.5 0.5 l 1
 199.5 137.5 l 1
 52.5 137.5 l 1
47.5 -2 m 2
 47.5 140 l 2
 47.5 141.3797875 48.6202125 142.5 50 142.5 c 2
 202 142.5 l 2
 203.3797875 142.5 204.5 141.3797875 204.5 140 c 2
 204.5 -2 l 2
 204.5 -3.3797875 203.3797875 -4.5 202 -4.5 c 2
 50 -4.5 l 2
 48.6202125 -4.5 47.5 -3.3797875 47.5 -2 c 2
EndSplineSet
EndChar

StartChar: semicolon
Encoding: 59 59 26
Width: 252
VWidth: 0
Flags: HW
HStem: 398 142<50 202>
VStem: 50 152<-2 140 398 540>
LayerCount: 2
Fore
SplineSet
52.5 137.5 m 1
 52.5 0.5 l 1
 92.7671232877 0.5 l 2
 94.1469107877 0.5 95.2671232877 -0.6202125 95.2671232877 -2 c 0
 95.2671232877 -2.05815654392 95.2651331956 -2.11585194483 95.2612174549 -2.17302175919 c 2
 86.6650020777 -127.677766266 l 1
 140.441466712 -131.386487965 l 1
 199.5 -1.45771473176 l 1
 199.5 137.5 l 1
 52.5 137.5 l 1
47.5 -2 m 2
 47.5 140 l 2
 47.5 141.3797875 48.6202125 142.5 50 142.5 c 2
 202 142.5 l 2
 203.3797875 142.5 204.5 141.3797875 204.5 140 c 2
 204.5 -2 l 2
 204.5 -2.36805769598 204.420290918 -2.71764524901 204.277208213 -3.03242719956 c 2
 144.277208213 -135.0324272 l 2
 143.883897494 -135.89771078 143.011729804 -136.5 142 -136.5 c 0
 141.941443157 -136.5 141.883353828 -136.497982417 141.825797795 -136.494013036 c 2
 83.8257977946 -132.494013036 l 2
 82.5271486194 -132.404451024 81.5 -131.321230657 81.5 -130 c 0
 81.5 -129.941843456 81.5019900921 -129.884148055 81.5059058328 -129.826978241 c 2
 90.0899454384 -4.5 l 1
 50 -4.5 l 2
 48.6202125 -4.5 47.5 -3.3797875 47.5 -2 c 2
52.5 537.5 m 1
 52.5 400.5 l 1
 199.5 400.5 l 1
 199.5 537.5 l 1
 52.5 537.5 l 1
47.5 398 m 2
 47.5 540 l 2
 47.5 541.3797875 48.6202125 542.5 50 542.5 c 2
 202 542.5 l 2
 203.3797875 542.5 204.5 541.3797875 204.5 540 c 2
 204.5 398 l 2
 204.5 396.6202125 203.3797875 395.5 202 395.5 c 2
 50 395.5 l 2
 48.6202125 395.5 47.5 396.6202125 47.5 398 c 2
EndSplineSet
EndChar

StartChar: less
Encoding: 60 60 27
Width: 644
VWidth: 0
Flags: HW
LayerCount: 2
Fore
SplineSet
377.395582329 337.718875502 m 0
 377.395582329 338.878760437 378.187182388 339.85521626 379.259138333 340.136998797 c 2
 591.5 395.928254713 l 1
 591.5 542.757407052 l 1
 52.5 401.071745287 l 1
 52.5 252.060278096 l 1
 591.5 147.034542802 l 1
 591.5 293.939721904 l 1
 379.41544002 335.265022194 l 2
 378.265029441 335.489183079 377.395582329 336.503295397 377.395582329 337.718875502 c 0
596.5 546 m 2
 596.5 394 l 2
 596.5 392.840115065 595.708399941 391.863659242 594.636443996 391.581876705 c 2
 391.109485333 338.081223968 l 1
 594.480142309 298.453853308 l 2
 595.630552888 298.229692423 596.5 297.215580105 596.5 296 c 2
 596.5 144 l 2
 596.5 142.6202125 595.3797875 141.5 594 141.5 c 0
 593.835792605 141.5 593.67526162 141.51586578 593.519857691 141.546146692 c 2
 49.5198576909 247.546146692 l 2
 48.369447112 247.770307577 47.5 248.784419895 47.5 250 c 2
 47.5 403 l 2
 47.5 404.159884935 48.2916000589 405.136340758 49.3635560045 405.418123295 c 2
 593.363556004 548.418123295 l 2
 593.566788113 548.471546441 593.780097435 548.5 594 548.5 c 0
 595.3797875 548.5 596.5 547.3797875 596.5 546 c 2
EndSplineSet
EndChar

StartChar: equal
Encoding: 61 61 28
Width: 644
VWidth: 0
Flags: HW
HStem: 144 152<50 594> 394 152<50 594>
LayerCount: 2
Fore
SplineSet
591.5 146.5 m 1
 591.5 293.5 l 1
 52.5 293.5 l 1
 52.5 146.5 l 1
 591.5 146.5 l 1
596.5 296 m 2
 596.5 144 l 2
 596.5 142.6202125 595.3797875 141.5 594 141.5 c 2
 50 141.5 l 2
 48.6202125 141.5 47.5 142.6202125 47.5 144 c 2
 47.5 296 l 2
 47.5 297.3797875 48.6202125 298.5 50 298.5 c 2
 594 298.5 l 2
 595.3797875 298.5 596.5 297.3797875 596.5 296 c 2
591.5 396.5 m 1
 591.5 543.5 l 1
 52.5 543.5 l 1
 52.5 396.5 l 1
 591.5 396.5 l 1
596.5 546 m 2
 596.5 394 l 2
 596.5 392.6202125 595.3797875 391.5 594 391.5 c 2
 50 391.5 l 2
 48.6202125 391.5 47.5 392.6202125 47.5 394 c 2
 47.5 546 l 2
 47.5 547.3797875 48.6202125 548.5 50 548.5 c 2
 594 548.5 l 2
 595.3797875 548.5 596.5 547.3797875 596.5 546 c 2
EndSplineSet
EndChar

StartChar: greater
Encoding: 62 62 29
Width: 644
VWidth: 0
Flags: HW
LayerCount: 2
Fore
SplineSet
266.5 338 m 0
 266.5 336.785585763 265.632219869 335.772253041 264.483451623 335.546793853 c 2
 52.5 293.942565029 l 1
 52.5 147.034542802 l 1
 591.5 252.060278096 l 1
 591.5 401.071745287 l 1
 52.5 542.757407052 l 1
 52.5 395.930465356 l 1
 264.63378367 340.418821032 l 2
 265.707089981 340.137955829 266.5 339.160844243 266.5 338 c 0
596.5 403 m 2
 596.5 250 l 2
 596.5 248.784419895 595.630552888 247.770307577 594.480142309 247.546146692 c 2
 50.4801423091 141.546146692 l 2
 50.3247383802 141.51586578 50.1642073948 141.5 50 141.5 c 0
 48.6202125 141.5 47.5 142.6202125 47.5 144 c 2
 47.5 296 l 2
 47.5 297.214414237 48.3677801313 298.227746959 49.5165483766 298.453206147 c 2
 252.791727857 338.34833483 l 1
 49.36621633 391.581178968 l 2
 48.292910019 391.862044171 47.5 392.839155757 47.5 394 c 2
 47.5 546 l 2
 47.5 547.3797875 48.6202125 548.5 50 548.5 c 0
 50.2199025645 548.5 50.4332118867 548.471546441 50.6364439955 548.418123295 c 2
 594.636443996 405.418123295 l 2
 595.708399941 405.136340758 596.5 404.159884935 596.5 403 c 2
EndSplineSet
EndChar

StartChar: question
Encoding: 63 63 30
Width: 384
VWidth: 0
Flags: HW
HStem: -2 142<50 202> 230 238<50 144.438> 678 151<50 140.529>
VStem: 50 152<-2 140 230 359.991> 183 151<508.983 635.934>
LayerCount: 2
Fore
SplineSet
52.5 137.5 m 1
 52.5 0.5 l 1
 199.5 0.5 l 1
 199.5 137.5 l 1
 52.5 137.5 l 1
47.5 -2 m 2
 47.5 140 l 2
 47.5 141.3797875 48.6202125 142.5 50 142.5 c 2
 202 142.5 l 2
 203.3797875 142.5 204.5 141.3797875 204.5 140 c 2
 204.5 -2 l 2
 204.5 -3.3797875 203.3797875 -4.5 202 -4.5 c 2
 50 -4.5 l 2
 48.6202125 -4.5 47.5 -3.3797875 47.5 -2 c 2
199.5 232.5 m 1
 199.5 346.573282595 l 2
 199.5 347.512086352 200.018591794 348.330722315 200.784688747 348.758103851 c 0
 278.915160081 392.344650812 331.5 475.760499053 331.5 572 c 0
 331.5 712.61684782 217.628820233 826.5 76 826.5 c 0
 67.7561976783 826.5 60.4536830847 825.743939993 52.5 825.743939993 c 1
 52.5 678.143780225 l 1
 59.9063407847 679.720599051 67.9518294713 680.5 76 680.5 c 0
 137.353387244 680.5 185.5 632.382255391 185.5 572 c 0
 185.5 510.635839577 137.364160423 462.5 76 462.5 c 0
 67.9518294713 462.5 59.9063407847 463.279400949 52.5 464.856219775 c 1
 52.5 232.5 l 1
 199.5 232.5 l 1
75.5320855713 831.500002732 m 0
 75.6877833671 831.500002732 75.8437511963 831.5 76 831.5 c 0
 220.371179767 831.5 336.5 715.38315218 336.5 572 c 0
 336.5 474.429227187 283.46335447 389.751556213 204.5 345.109944411 c 1
 204.5 230 l 2
 204.5 228.6202125 203.3797875 227.5 202 227.5 c 2
 50 227.5 l 2
 48.6202125 227.5 47.5 228.6202125 47.5 230 c 2
 47.5 468 l 2
 47.5 469.3797875 48.6202125 470.5 50 470.5 c 0
 50.2094660369 470.5 50.4129498084 470.474183151 50.6074402191 470.425560548 c 0
 58.3731880325 468.484123595 67.1883417818 467.5 76 467.5 c 0
 134.635839577 467.5 180.5 513.364160423 180.5 572 c 0
 180.5 629.617744609 134.646612756 675.5 76 675.5 c 0
 67.1883417818 675.5 58.3731880325 674.515876405 50.6074402191 672.574439452 c 0
 50.4129498084 672.525816849 50.2094660369 672.5 50 672.5 c 0
 48.6202125 672.5 47.5 673.6202125 47.5 675 c 2
 47.5 828 l 2
 47.5 829.285599833 48.4724955368 830.345853556 49.7213394292 830.484613989 c 0
 58.7811502136 831.491259632 66.7245725994 831.500002732 75.5320855713 831.500002732 c 0
EndSplineSet
EndChar

StartChar: at
Encoding: 64 64 31
Width: 864
VWidth: 0
Flags: HW
HStem: 239 75<431.227 473> 421 71<431.227 485>
VStem: 343 76<325.505 409.715> 485 83.0107<315.318 421> 485 76<318.62 421>
LayerCount: 2
Fore
SplineSet
473 418.5 m 0
 444.31021257 418.5 421.5 396.58222845 421.5 368 c 0
 421.5 339.373347 444.373347 316.5 473 316.5 c 0
 476.010406381 316.5 479.184200905 317.154189612 482.5 317.957890313 c 1
 482.5 417.96924551 l 1
 479.461952316 418.486042367 476.313510662 418.5 473 418.5 c 0
473.431494087 423.500026361 m 0
 476.697256184 423.500026361 487.5 424.16835729 487.5 420 c 2
 487.5 316 l 2
 487.5 314.829678537 486.694090377 313.846101991 485.607440219 313.574439452 c 0
 481.611899286 312.575554218 477.421392839 311.5 473 311.5 c 0
 441.626653 311.5 416.5 336.626653 416.5 368 c 0
 416.5 399.41777155 441.68978743 423.5 473 423.5 c 0
 473.143521107 423.5 473.287353965 423.500026361 473.431494087 423.500026361 c 0
660.500409151 341.79123891 m 0
 660.833752088 340.134547606 664.477214445 328.460530183 664.499892943 326.018232278 c 0
 664.499892943 325.930857603 664.497297311 325.866360947 664.492300253 325.802534407 c 0
 661.10113141 282.487733227 645.294286666 265.974292985 626.018169673 265.974292985 c 0
 599.024026657 265.974292985 568.607532488 298.031241075 565.53989011 317.970916533 c 0
 565.525759203 318.062767428 565.516635164 318.156260072 565.512805863 318.251106594 c 2
 558.598863171 489.5 l 1
 473 489.5 l 2
 402.234082187 489.5 345.5 437.51520531 345.5 368 c 0
 345.5 297.394765007 402.350353476 241.5 473 241.5 c 0
 473.581919809 241.5 474.117669101 241.300748186 474.542686457 240.966805977 c 2
 488.163907804 230.264417776 l 1
 544.132399592 213.832519151 607.554556287 190.087356031 668.713943782 190.087356031 c 0
 706.313619623 190.087356031 744.786272108 198.50537675 785.042250132 221.754930797 c 1
 806.854484728 271.211970692 817.704763506 325.184529481 817.704763781 379.287390992 c 0
 817.704763781 479.372169897 780.577868792 579.887290583 707.232579687 653.232579687 c 0
 634.710496262 725.754663113 539.040626449 761.794698066 442.414006689 761.794698066 c 0
 341.870118739 761.794698066 240.301649011 722.766808386 162.767420313 645.232579687 c 0
 84.853605525 567.3187649 45.8375626288 465.713522895 45.8375626288 365.214411221 c 0
 45.8375626288 268.298699905 82.1162316379 172.418608987 154.767420313 99.7674203125 c 0
 227.474334151 27.0605064744 322.8565433 -9.12169719481 419.304353118 -9.12169719481 c 0
 493.309465322 -9.12169719481 567.953241289 12.1882040336 633.42741517 54.652254668 c 1
 627.569950572 62.6257374371 605.898902061 91.7464369692 582.776238479 118.051439118 c 0
 560.913502315 142.923111872 537.899363288 164.196149828 527.426871501 164.196149828 c 0
 526.477472444 164.196149828 525.699319827 164.028437462 525.039521522 163.726029906 c 0
 492.757394108 148.335713348 458.000514871 140.628792678 423.373982556 140.628792678 c 0
 364.792588788 140.628792678 306.71889477 162.746264605 262.232579687 207.232579687 c 0
 217.4846576 251.980501775 195.231457163 310.425847196 195.231457163 369.320585566 c 0
 195.231457163 430.188762425 218.995328367 491.530168992 266.232579687 538.767420313 c 0
 313.093908272 585.628748897 374.393416566 609.400375317 435.303747337 609.400375317 c 0
 493.904902383 609.400375317 552.145335615 587.38950501 596.767420313 542.767420313 c 0
 641.435604965 498.09923566 663.772727273 439.883613675 663.772727273 380.886551465 c 0
 663.772727273 367.844838325 662.681687863 354.767863078 660.500409151 341.79123891 c 0
558.5 236 m 0
 558.5 237.3797875 559.6202125 238.5 561 238.5 c 0
 562.3797875 238.5 563.5 237.3797875 563.5 236 c 0
 563.5 234.6202125 562.3797875 233.5 561 233.5 c 0
 559.6202125 233.5 558.5 234.6202125 558.5 236 c 0
659.489200345 325.96300318 m 0
 658.923284589 329.052610478 655.489972096 339.138361534 655.489972096 341.853586624 c 0
 655.489972096 342.008492135 655.494917142 342.181700157 655.535014915 342.418945311 c 0
 657.693761916 355.191531736 658.772727273 368.060288013 658.772727273 380.886551465 c 0
 658.772727273 438.612254093 636.928031399 495.537127976 593.232579687 539.232579687 c 0
 549.594531307 582.870628068 492.646951147 604.400375317 435.303747337 604.400375317 c 0
 375.698510312 604.400375317 315.665290504 581.130449879 269.767420313 535.232579687 c 0
 223.488325438 488.953484813 200.231457163 428.881181154 200.231457163 369.320585566 c 0
 200.231457163 311.692001572 221.998724548 254.536116077 265.767420313 210.767420313 c 0
 309.274913282 167.259927343 366.058185345 145.628792678 423.373982556 145.628792678 c 0
 457.221187874 145.628792678 491.301073659 153.192812974 522.960478478 168.273970094 c 0
 524.355154881 168.913196779 525.869633493 169.196149828 527.426871501 169.196149828 c 0
 541.868832981 169.196149828 564.911116068 145.94725205 586.532536185 121.35010732 c 0
 613.813508465 90.314494493 639.001833524 55.4976372389 639.026698247 55.4632736313 c 0
 639.324433056 55.0517974122 639.5 54.5462398421 639.5 54 c 0
 639.5 53.1264941166 639.051039978 52.3570209929 638.371483988 51.9099446838 c 0
 571.546860599 7.94637666474 495.121320373 -14.1216971948 419.304353118 -14.1216971948 c 0
 321.600253269 -14.1216971948 224.925965844 22.539193531 151.232579687 96.2325796875 c 0
 77.5883078161 169.876851559 40.8375626288 267.047527081 40.8375626288 365.214411221 c 0
 40.8375626288 467.010812945 80.3510986635 569.885939288 159.232579687 648.767420313 c 0
 237.737686246 727.272526871 340.574340482 766.794698066 442.414006689 766.794698066 c 0
 540.286884536 766.794698066 637.249379249 730.285461376 710.767420313 656.767420313 c 0
 785.151119859 582.383720766 822.704763781 480.593424837 822.704763781 379.287390992 c 0
 822.704763781 324.232268288 811.61481053 269.315567761 789.286436001 218.988120411 c 0
 789.071865282 218.504484823 788.70828633 218.10140202 788.254104028 217.837276885 c 0
 746.979264544 193.83431052 707.314106834 185.087356031 668.713943782 185.087356031 c 0
 606.110453353 185.087356031 542.759943655 209.048703795 486.29643111 225.600533741 c 0
 485.987849738 225.690991918 485.703939076 225.839416818 485.457313543 226.033194023 c 2
 472.132473988 236.502710816 l 1
 399.183827902 236.958736096 340.5 294.894807524 340.5 368 c 0
 340.5 440.48479469 399.765917813 494.5 473 494.5 c 2
 561 494.5 l 2
 562.34548633 494.5 563.444143178 493.434791603 563.497936325 492.102409031 c 2
 570.502803732 318.601434929 l 1
 573.296018758 301.26281554 602.282815104 270.974292985 626.018169673 270.974292985 c 0
 641.353536639 270.974292985 656.11317919 283.486645584 659.489200345 325.96300318 c 0
EndSplineSet
EndChar

StartChar: A
Encoding: 65 65 32
Width: 752
VWidth: 0
Flags: HW
HStem: 227 140<297.449 406.827>
LayerCount: 2
Fore
SplineSet
461 230.636672974 m 0
 462.059824356 230.636672974 462.966502506 229.975760736 463.330015836 229.043954873 c 2
 551.70866939 2.5 l 1
 698.411200746 2.5 l 1
 416.257754712 766.5 l 1
 267.895042153 766.5 l 1
 53.2994634789 2.5 l 1
 200.066538002 2.5 l 1
 258.617958502 227.63017974 l 2
 258.897577481 228.70531456 259.875576576 229.5 261.037719727 229.5 c 2
 458.904600975 229.5 l 2
 459.350873467 230.184117953 460.123003838 230.636672974 461 230.636672974 c 0
300.990129581 369.5 m 1
 403.482517056 369.5 l 1
 356.979965456 527.132941459 l 1
 300.990129581 369.5 l 1
406.827056885 364.5 m 2
 297.448638916 364.5 l 2
 296.068851416 364.5 294.948638916 365.6202125 294.948638916 367 c 0
 294.948638916 367.293124742 294.999195877 367.574534454 295.092058143 367.835977481 c 2
 354.843614539 536.059610293 l 2
 355.18787059 537.028823599 356.113532554 537.723632812 357.200195312 537.723632812 c 0
 358.334246296 537.723632812 359.292948152 536.966902446 359.598462108 535.931280487 c 2
 409.225323681 367.707647675 l 2
 409.291525233 367.483239658 409.327056885 367.245736516 409.327056885 367 c 0
 409.327056885 365.6202125 408.206844385 364.5 406.827056885 364.5 c 2
202 -2.5 m 2
 50 -2.5 l 2
 48.6202125 -2.5 47.5 -1.3797875 47.5 0 c 0
 47.5 0.234427485614 47.5323365037 0.461361975081 47.5927885705 0.676582527852 c 2
 263.592788571 769.676582528 l 2
 263.888143784 770.728101785 264.854639986 771.5 266 771.5 c 2
 418 771.5 l 2
 419.075751014 771.5 419.993718385 770.819074607 420.346034765 769.865091168 c 2
 704.346034765 0.865091168425 l 2
 704.445608954 0.595469510052 704.5 0.304036486069 704.5 0 c 0
 704.5 -1.3797875 703.3797875 -2.5 702 -2.5 c 2
 550 -2.5 l 2
 548.940175644 -2.5 548.033497494 -1.83908776191 547.669984164 -0.907281899444 c 2
 459.734766088 224.5 l 1
 262.971181725 224.5 l 1
 204.419761225 -0.630179739536 l 2
 204.140142246 -1.70531455966 203.162143151 -2.5 202 -2.5 c 2
EndSplineSet
EndChar

StartChar: B
Encoding: 66 66 33
Width: 512
VWidth: 0
Flags: HW
HStem: 4 129<202.375 290.409> 346 105<202.375 290.409> 664 116<202.375 290.409>
VStem: 50 152<133.026 345.974 451.026 663.974 779.664 780> 333 151<176.465 303.767 492.806 610.788>
LayerCount: 2
Fore
SplineSet
220 777.5 m 0
 213.688385732 777.5 207.923462097 777.163574219 202 777.163574219 c 0
 201.543687163 777.163574219 201.115764223 777.286092636 200.74736065 777.5 c 2
 52.5 777.5 l 1
 52.5 6.5 l 1
 202 6.5 l 2
 202.105883667 6.5 202.210238725 6.49340319039 202.312676245 6.4805985004 c 0
 210.108945925 5.50606479039 217.998874662 5.5 226 5.5 c 0
 367.628820233 5.5 481.5 119.38315218 481.5 260 c 0
 481.5 313.061539031 423.766045162 357.364614318 393.074178394 394.406522486 c 0
 392.71561857 394.8392671 392.5 395.394652044 392.5 396 c 0
 392.5 396.566015692 392.688509372 397.088350101 393.006116814 397.507591925 c 0
 399.824537123 406.507906733 408.922134935 416.054201538 418.590865549 426.213018894 c 0
 445.170917125 454.140354969 475.5 486.385660156 475.5 522 c 0
 475.5 663.624367268 361.624367268 777.5 220 777.5 c 0
226 135.5 m 0
 284.646612756 135.5 330.5 181.382255391 330.5 239 c 0
 330.5 297.635839577 284.635839577 343.5 226 343.5 c 0
 218.841640646 343.5 211.677757261 342.678050034 204.5 341.028482329 c 1
 204.5 137.971517671 l 1
 211.677757261 136.321949966 218.841640646 135.5 226 135.5 c 0
199.5 136 m 2
 199.5 343 l 2
 199.5 344.170321463 200.305909623 345.153898009 201.392559781 345.425560548 c 0
 209.581335542 347.472754489 217.787399004 348.5 226 348.5 c 0
 287.364160423 348.5 335.5 300.364160423 335.5 239 c 0
 335.5 178.617744609 287.353387244 130.5 226 130.5 c 0
 217.787399004 130.5 209.581335542 131.527245511 201.392559781 133.574439452 c 0
 200.305909623 133.846101991 199.5 134.829678537 199.5 136 c 2
226 453.5 m 0
 284.646612756 453.5 330.5 499.382255391 330.5 557 c 0
 330.5 615.635839577 284.635839577 661.5 226 661.5 c 0
 218.841640646 661.5 211.677757261 660.678050034 204.5 659.028482329 c 1
 204.5 455.971517671 l 1
 211.677757261 454.321949966 218.841640646 453.5 226 453.5 c 0
199.5 454 m 2
 199.5 661 l 2
 199.5 662.170321463 200.305909623 663.153898009 201.392559781 663.425560548 c 0
 209.581335542 665.472754489 217.787399004 666.5 226 666.5 c 0
 287.364160423 666.5 335.5 618.364160423 335.5 557 c 0
 335.5 496.617744609 287.353387244 448.5 226 448.5 c 0
 217.787399004 448.5 209.581335542 449.527245511 201.392559781 451.574439452 c 0
 200.305909623 451.846101991 199.5 452.829678537 199.5 454 c 2
398.205309144 396.065706942 m 1
 429.422245388 359.171829456 486.5 315.473398637 486.5 260 c 0
 486.5 116.61684782 370.371179767 0.5 226 0.5 c 0
 218.052196235 0.5 209.946710518 1.5 201.843531345 1.5 c 2
 50 1.5 l 2
 48.6202125 1.5 47.5 2.6202125 47.5 4 c 2
 47.5 780 l 2
 47.5 781.3797875 48.6202125 782.5 50 782.5 c 2
 202 782.5 l 2
 202.409141408 782.5 202.795459155 782.401503029 203.136514216 782.226948112 c 0
 208.646438484 782.497011357 213.94112692 782.500001533 219.614011304 782.500001533 c 0
 219.742477956 782.500001533 219.871138557 782.5 220 782.5 c 0
 364.375632732 782.5 480.5 666.375632732 480.5 522 c 0
 480.5 470.775993315 425.515098275 430.987128469 398.205309144 396.065706942 c 1
EndSplineSet
EndChar

StartChar: C
Encoding: 67 67 34
Width: 555
VWidth: 0
Flags: HW
HStem: -14 157<337.027 503.909> 612 161<337.027 503.909>
VStem: 50 153<281.299 476.2>
LayerCount: 2
Fore
SplineSet
200.5 378 m 0
 200.5 508.327371251 303.571487916 614.5 432 614.5 c 0
 456.610750835 614.5 480.293991436 610.599992325 502.5 603.37666373 c 1
 502.5 763.774180671 l 1
 479.656469893 768.190186783 456.090726027 770.5 432 770.5 c 0
 222.440093519 770.5 52.5 595.681843628 52.5 380 c 0
 52.5 163.313255241 222.442974481 -11.5 432 -11.5 c 0
 456.090783249 -11.5 479.656524541 -9.19020323703 502.5 -4.7726777204 c 1
 502.5 151.630380058 l 1
 480.293768049 144.399949422 456.610496615 140.5 432 140.5 c 0
 303.566650496 140.5 200.5 246.680853767 200.5 378 c 0
432 609.5 m 0
 306.428512084 609.5 205.5 505.672628749 205.5 378 c 0
 205.5 249.319146233 306.433349504 145.5 432 145.5 c 0
 457.271900663 145.5 481.541367573 149.704100393 504.189913224 157.467758395 c 0
 504.444010526 157.554859994 504.716527145 157.602142334 505 157.602142334 c 0
 506.3797875 157.602142334 507.5 156.481929834 507.5 155.102142334 c 2
 507.5 -6.83008432388 l 2
 507.5 -8.04209914403 506.635645569 -9.05382624965 505.490257474 -9.28194487444 c 0
 481.703064066 -14.0194673518 457.133401064 -16.5 432 -16.5 c 0
 219.557025519 -16.5 47.5 160.686744759 47.5 380 c 0
 47.5 598.318156372 219.559906481 775.5 432 775.5 c 0
 457.133403351 775.5 481.703007821 773.01943874 505.490091777 768.283619619 c 0
 506.635562207 768.055565572 507.5 767.043799339 507.5 765.831726074 c 2
 507.5 599.906005859 l 2
 507.5 598.526218359 506.3797875 597.406005859 505 597.406005859 c 0
 504.71680439 597.406005859 504.444543596 597.453195757 504.190658822 597.540134348 c 0
 481.541655746 605.295906374 457.271898117 609.5 432 609.5 c 0
EndSplineSet
EndChar

StartChar: D
Encoding: 68 68 35
Width: 630
VWidth: 0
Flags: HW
HStem: -13.9789 157.014<202 287.489> 611.965 161.035<202 293.477>
VStem: 50 152<-14 -13.9789 143.035 611.965> 427 153<282.064 475.736>
LayerCount: 2
Fore
SplineSet
198 770.5 m 0
 159.793305589 770.5 121.935886496 763.271434529 83.638012206 763.271434529 c 0
 73.3047783963 763.271434529 62.9286513173 763.797562713 52.5 765.137785203 c 1
 52.5 -11.4996529195 l 1
 201.99964611 -11.4788990267 l 1
 409.726563271 -9.28639335541 577.5 164.68436816 577.5 380 c 0
 577.5 595.681843628 407.559906481 770.5 198 770.5 c 0
83.638012206 768.271434529 m 0
 121.787178622 768.271434529 159.648258534 775.5 198 775.5 c 0
 410.440093519 775.5 582.5 598.318156372 582.5 380 c 0
 582.5 162.07408521 412.587218467 -14.2562072764 202.00035389 -16.4788989775 c 1
 50.0003538897 -16.4999999754 l 2
 48.6205663897 -16.4999999754 47.5 -15.3797875 47.5 -14 c 2
 47.5 768 l 2
 47.5 769.3797875 48.6202125 770.5 50 770.5 c 0
 50.1208790635 770.5 50.2397658918 770.474785822 50.3560818069 770.474785822 c 0
 61.4656834648 768.887699871 72.5505030641 768.271434529 83.638012206 768.271434529 c 0
424.5 378 m 0
 424.5 503.46211342 327.035095268 605.897970968 204.5 609.407038073 c 1
 204.5 145.592950291 l 1
 327.030320888 149.102153987 424.5 251.547056991 424.5 378 c 0
199.5 143.03477478 m 2
 199.5 611.965209961 l 2
 199.5 613.344997461 200.6202125 614.465209961 202.044265265 614.464825138 c 0
 328.586680852 612.26309 429.5 506.956402263 429.5 378 c 0
 429.5 248.062337104 328.59157589 142.737072497 202 140.53477478 c 0
 200.6202125 140.53477478 199.5 141.65498728 199.5 143.03477478 c 2
EndSplineSet
EndChar

StartChar: E
Encoding: 69 69 36
Width: 668
VWidth: 0
Flags: HW
HStem: -3 152<202 617> 333 152<202 509> 626 152<202 617>
VStem: 50 568<-3 149 626 778> 50 152<149 333 485 626>
LayerCount: 2
Fore
SplineSet
202 482.5 m 2
 200.6202125 482.5 199.5 483.6202125 199.5 485 c 2
 199.5 626 l 2
 199.5 627.3797875 200.6202125 628.5 202 628.5 c 2
 615.483497489 628.5 l 1
 614.516392226 775.5 l 1
 52.5165036475 775.5 l 1
 52.5165036475 775.005586721 52.5262624743 774.511173443 52.5262624743 774.016760164 c 0
 52.5262624743 773.891833013 52.5173078804 773.769117115 52.5 773.649216533 c 2
 52.5 -0.00535087354695 l 2
 52.6864480423 -0.146451249421 52.8525317971 -0.313074144148 52.9930317066 -0.5 c 2
 615.483497489 -0.5 l 1
 614.516392226 146.5 l 1
 202 146.5 l 2
 200.6202125 146.5 199.5 147.6202125 199.5 149 c 2
 199.5 333 l 2
 199.5 334.3797875 200.6202125 335.5 202 335.5 c 2
 507.483497489 335.5 l 1
 506.516392226 482.5 l 1
 202 482.5 l 2
510 330.5 m 2
 204.5 330.5 l 1
 204.5 151.5 l 1
 617 151.5 l 2
 618.374196881 151.5 619.490917992 150.388846856 619.499944885 149.016759014 c 2
 620.499944885 -2.98324098603 l 2
 620.499944885 -4.3797875 619.3797875 -5.5 618 -5.5 c 2
 51 -5.5 l 2
 50.0531933454 -5.5 49.2286119743 -4.97252897802 48.8043344765 -4.19566552357 c 0
 48.027471022 -3.77138802571 47.5 -2.94680665467 47.5 -2 c 2
 47.5 774 l 2
 47.5 774.117843063 47.5081711663 774.233792709 47.5239773373 774.347312775 c 2
 47.5000551221 777.983239836 l 2
 47.5000551221 779.3797875 48.6202125 780.5 50 780.5 c 2
 617 780.5 l 2
 618.374196881 780.5 619.490917992 779.388846856 619.499944885 778.016759014 c 2
 620.499944885 626.016759014 l 2
 620.499944885 624.6202125 619.3797875 623.5 618 623.5 c 2
 204.5 623.5 l 1
 204.5 487.5 l 1
 509 487.5 l 2
 510.374196881 487.5 511.499944885 486.388846856 511.499944885 485.016759014 c 2
 512.499944885 333.016759014 l 2
 512.499944885 331.6202125 511.3797875 330.5 510 330.5 c 2
EndSplineSet
EndChar

StartChar: F
Encoding: 70 70 37
Width: 668
VWidth: 0
Flags: HW
HStem: -2 21G<50 202> 333 152<202 509> 626 152<202 617>
VStem: 50 152<-2 333 485 626>
LayerCount: 2
Fore
SplineSet
202 482.5 m 2
 200.6202125 482.5 199.5 483.6202125 199.5 485 c 2
 199.5 626 l 2
 199.5 627.3797875 200.6202125 628.5 202 628.5 c 2
 615.483497489 628.5 l 1
 614.516392226 775.5 l 1
 52.5165036475 775.5 l 1
 52.5165036475 775.005586721 52.5262624743 774.511173443 52.5262624743 774.016760164 c 0
 52.5262624743 773.891833013 52.5173078804 773.769117115 52.5 773.649216533 c 2
 52.5 0.5 l 1
 199.5 0.5 l 1
 199.5 333 l 2
 199.5 334.3797875 200.6202125 335.5 202 335.5 c 2
 507.483497489 335.5 l 1
 506.516392226 482.5 l 1
 202 482.5 l 2
510 330.5 m 2
 204.5 330.5 l 1
 204.5 -2 l 2
 204.5 -3.3797875 203.3797875 -4.5 202 -4.5 c 2
 50 -4.5 l 2
 48.6202125 -4.5 47.5 -3.3797875 47.5 -2 c 2
 47.5 774 l 2
 47.5 774.117843063 47.5081711663 774.233792709 47.5239773373 774.347312775 c 2
 47.5000551221 777.983239836 l 2
 47.5000551221 779.3797875 48.6202125 780.5 50 780.5 c 2
 617 780.5 l 2
 618.374196881 780.5 619.490917992 779.388846856 619.499944885 778.016759014 c 2
 620.499944885 626.016759014 l 2
 620.499944885 624.6202125 619.3797875 623.5 618 623.5 c 2
 204.5 623.5 l 1
 204.5 487.5 l 1
 509 487.5 l 2
 510.374196881 487.5 511.499944885 486.388846856 511.499944885 485.016759014 c 2
 512.499944885 333.016759014 l 2
 512.499944885 331.6202125 511.3797875 330.5 510 330.5 c 2
EndSplineSet
EndChar

StartChar: G
Encoding: 71 71 38
Width: 651
VWidth: 0
Flags: HW
HStem: -14 157<337.532 449> 612 161<337.027 503.909>
VStem: 50 153<281.299 476.2> 449 152<-14 -13.6178 143 313>
LayerCount: 2
Fore
SplineSet
432 -11.5 m 0
 437.697103537 -11.5 443.363166237 -11.1177682877 449 -11.1177682877 c 0
 449.487954305 -11.1177682877 449.943445004 -11.2578670537 450.328407512 -11.5 c 2
 598.5 -11.5 l 1
 598.5 310.5 l 1
 451.5 310.5 l 1
 451.5 143.631622314 l 2
 451.5 142.315171121 450.480269223 141.23501136 449.188284842 141.138620205 c 0
 443.514811534 140.715339046 437.783010264 140.5 432 140.5 c 0
 303.566650496 140.5 200.5 246.680853767 200.5 378 c 0
 200.5 508.327371251 303.571487916 614.5 432 614.5 c 0
 456.610750835 614.5 480.293991436 610.599992325 502.5 603.37666373 c 1
 502.5 763.774180671 l 1
 479.656469893 768.190186783 456.090726027 770.5 432 770.5 c 0
 222.440093519 770.5 52.5 595.681843628 52.5 380 c 0
 52.5 163.313255241 222.442974481 -11.5 432 -11.5 c 0
432 609.5 m 0
 306.428512084 609.5 205.5 505.672628749 205.5 378 c 0
 205.5 249.319146233 306.433349504 145.5 432 145.5 c 0
 436.872073454 145.5 441.706880595 145.65626129 446.5 145.964150044 c 1
 446.5 313 l 2
 446.5 314.3797875 447.6202125 315.5 449 315.5 c 2
 601 315.5 l 2
 602.3797875 315.5 603.5 314.3797875 603.5 313 c 2
 603.5 -14 l 2
 603.5 -15.3797875 602.3797875 -16.5 601 -16.5 c 2
 449 -16.5 l 2
 448.550859431 -16.5 448.129223315 -16.3813027731 447.764776205 -16.1735928717 c 0
 442.53607793 -16.390507122 437.280487602 -16.5 432 -16.5 c 0
 219.557025519 -16.5 47.5 160.686744759 47.5 380 c 0
 47.5 598.318156372 219.559906481 775.5 432 775.5 c 0
 457.133403351 775.5 481.703007821 773.01943874 505.490091777 768.283619619 c 0
 506.635562207 768.055565572 507.5 767.043799339 507.5 765.831726074 c 2
 507.5 599.906005859 l 2
 507.5 598.526218359 506.3797875 597.406005859 505 597.406005859 c 0
 504.71680439 597.406005859 504.444543596 597.453195757 504.190658822 597.540134348 c 0
 481.541655746 605.295906374 457.271898117 609.5 432 609.5 c 0
EndSplineSet
EndChar

StartChar: H
Encoding: 72 72 39
Width: 652
VWidth: 0
Flags: HW
HStem: -2 21G<50 202 450 602> 333 152<202 450> 754 20G<50 202 450 602>
VStem: 50 152<-2 333 485 774> 450 152<-2 333 485 774>
LayerCount: 2
Fore
SplineSet
599.5 771.5 m 1
 452.5 771.5 l 1
 452.5 485 l 2
 452.5 483.6202125 451.3797875 482.5 450 482.5 c 2
 202 482.5 l 2
 200.6202125 482.5 199.5 483.6202125 199.5 485 c 2
 199.5 771.5 l 1
 52.5 771.5 l 1
 52.5 0.5 l 1
 199.5 0.5 l 1
 199.5 333 l 2
 199.5 334.3797875 200.6202125 335.5 202 335.5 c 2
 450 335.5 l 2
 451.3797875 335.5 452.5 334.3797875 452.5 333 c 2
 452.5 0.5 l 1
 599.5 0.5 l 1
 599.5 771.5 l 1
450 776.5 m 2
 602 776.5 l 2
 603.3797875 776.5 604.5 775.3797875 604.5 774 c 2
 604.5 -2 l 2
 604.5 -3.3797875 603.3797875 -4.5 602 -4.5 c 2
 450 -4.5 l 2
 448.6202125 -4.5 447.5 -3.3797875 447.5 -2 c 2
 447.5 330.5 l 1
 204.5 330.5 l 1
 204.5 -2 l 2
 204.5 -3.3797875 203.3797875 -4.5 202 -4.5 c 2
 50 -4.5 l 2
 48.6202125 -4.5 47.5 -3.3797875 47.5 -2 c 2
 47.5 774 l 2
 47.5 775.3797875 48.6202125 776.5 50 776.5 c 2
 202 776.5 l 2
 203.3797875 776.5 204.5 775.3797875 204.5 774 c 2
 204.5 487.5 l 1
 447.5 487.5 l 1
 447.5 774 l 2
 447.5 775.3797875 448.6202125 776.5 450 776.5 c 2
EndSplineSet
EndChar

StartChar: I
Encoding: 73 73 40
Width: 252
VWidth: 0
Flags: HW
HStem: -2 21G<50 202> 754 20G<50 202>
VStem: 50 152<-2 774>
LayerCount: 2
Fore
SplineSet
199.5 771.5 m 1
 52.5 771.5 l 1
 52.5 0.5 l 1
 199.5 0.5 l 1
 199.5 771.5 l 1
50 776.5 m 2
 202 776.5 l 2
 203.3797875 776.5 204.5 775.3797875 204.5 774 c 2
 204.5 -2 l 2
 204.5 -3.3797875 203.3797875 -4.5 202 -4.5 c 2
 50 -4.5 l 2
 48.6202125 -4.5 47.5 -3.3797875 47.5 -2 c 2
 47.5 774 l 2
 47.5 775.3797875 48.6202125 776.5 50 776.5 c 2
EndSplineSet
EndChar

StartChar: J
Encoding: 74 74 41
Width: 419
VWidth: 0
Flags: HW
HStem: -3 151<55.4451 185.159> 741 20G<202 369>
VStem: 202 164<168.881 761>
LayerCount: 2
Fore
SplineSet
204.5 758.5 m 1
 204.5 185 l 2
 204.5 184.373124241 204.268772782 183.799828321 203.887028481 183.360822375 c 0
 183.445128802 159.852637744 154.73836319 145.5 121 145.5 c 0
 95.2796183641 145.5 71.3599436005 154.360350299 52.5 168.788468016 c 1
 52.5 7.93863542691 l 1
 74.6807106417 2.31047603126 96.8815540676 -0.5 121 -0.5 c 0
 237.728403012 -0.5 332.690338382 76.5383238348 363.501824697 184.35757462 c 1
 366.48696729 758.5 l 1
 204.5 758.5 l 1
47.5 6 m 2
 47.5 174 l 2
 47.5 175.3797875 48.6202125 176.5 50 176.5 c 0
 50.612549563 176.5 51.1739402589 176.27922064 51.6088699422 175.912964064 c 0
 70.1759207872 160.277552826 94.6267246781 150.5 121 150.5 c 0
 152.925978352 150.5 179.986401562 163.864858154 199.5 185.940023149 c 1
 199.5 761 l 2
 199.5 762.3797875 200.6202125 763.5 202 763.5 c 2
 369 763.5 l 2
 370.3797875 763.5 371.5 762.3797875 371.5 761 c 2
 368.49996557 183.986753344 l 2
 368.49875646 183.75420119 368.465727387 183.529118998 368.40501381 183.315642227 c 0
 337.117862665 73.3059817505 240.153702501 -5.5 121 -5.5 c 0
 95.7955266489 -5.5 72.5642732454 -2.47048879461 49.3680415379 3.58070208563 c 0
 48.2938090612 3.86093664475 47.5 4.83849783148 47.5 6 c 2
EndSplineSet
EndChar

StartChar: K
Encoding: 75 75 42
Width: 703
VWidth: 0
Flags: HW
HStem: -2 20G<50 202 511 686.026> 754 20G<50 202>
VStem: 50 152<-2 218.505 432.895 774>
LayerCount: 2
Fore
SplineSet
199.5 771.5 m 1
 52.5 771.5 l 1
 52.5 0.5 l 1
 199.5 0.5 l 1
 199.5 218.504714966 l 2
 199.5 219.028429733 199.66138592 219.514748247 199.937096006 219.916608754 c 2
 257.14482916 303.2995891 l 2
 257.59550938 303.956476865 258.351660421 304.387695312 259.207733154 304.387695312 c 0
 259.982173394 304.387695312 260.674839817 304.034795177 261.133555997 303.481171333 c 2
 512.179766763 0.493889944612 l 1
 697.575732928 -0.471714045835 l 1
 370.093300914 385.383719445 l 2
 369.72329852 385.819673928 369.5 386.383965661 369.5 387 c 0
 369.5 387.523076333 369.660992685 388.008847532 369.936088202 388.410423748 c 2
 628.291873238 765.550477765 l 1
 448.263258127 767.486269326 l 1
 204.023608473 431.427210515 l 2
 203.569017386 430.801720538 202.831660777 430.394744873 202 430.394744873 c 0
 200.6202125 430.394744873 199.5 431.514957373 199.5 432.894744873 c 2
 199.5 771.5 l 1
50 776.5 m 2
 202 776.5 l 2
 203.3797875 776.5 204.5 775.3797875 204.5 774 c 2
 204.5 440.586492245 l 1
 444.976391527 771.467534358 l 2
 445.430982614 772.093024335 446.168339223 772.5 447.027377751 772.499852869 c 2
 633.027377751 770.499852869 l 2
 634.394575168 770.485151822 635.5 769.370650116 635.5 768 c 0
 635.5 767.476923667 635.339007315 766.991152468 635.063911798 766.589576252 c 2
 375.14103445 387.161927709 l 1
 704.906699086 -1.38371944528 l 2
 705.27670148 -1.81967392789 705.5 -2.38396566128 705.5 -3 c 0
 705.5 -4.3797875 704.3797875 -5.5 703 -5.5 c 2
 510.98673036 -4.49996545046 l 2
 510.217650281 -4.49595982505 509.530271793 -4.14393592793 509.074177157 -3.59347602148 c 2
 259.395736768 297.743045427 l 1
 204.5 217.729909306 l 1
 204.5 -2 l 2
 204.5 -3.3797875 203.3797875 -4.5 202 -4.5 c 2
 50 -4.5 l 2
 48.6202125 -4.5 47.5 -3.3797875 47.5 -2 c 2
 47.5 774 l 2
 47.5 775.3797875 48.6202125 776.5 50 776.5 c 2
EndSplineSet
EndChar

StartChar: L
Encoding: 76 76 43
Width: 718
VWidth: 0
Flags: HW
HStem: -3 152<202 667> 754 20G<50 202>
VStem: 50 152<149 774>
LayerCount: 2
Fore
SplineSet
199.5 771.5 m 1
 52.5 771.5 l 1
 52.5 -0.00535087354695 l 2
 52.6864480423 -0.146451249421 52.8525317971 -0.313074144148 52.9930317066 -0.5 c 2
 665.483497489 -0.5 l 1
 664.516392226 146.5 l 1
 202 146.5 l 2
 200.6202125 146.5 199.5 147.6202125 199.5 149 c 2
 199.5 771.5 l 1
50 776.5 m 2
 202 776.5 l 2
 203.3797875 776.5 204.5 775.3797875 204.5 774 c 2
 204.5 151.5 l 1
 667 151.5 l 2
 668.374196881 151.5 669.490917992 150.388846856 669.499944885 149.016759014 c 2
 670.499944885 -2.98324098603 l 2
 670.499944885 -4.3797875 669.3797875 -5.5 668 -5.5 c 2
 51 -5.5 l 2
 50.0531933454 -5.5 49.2286119743 -4.97252897802 48.8043344765 -4.19566552357 c 0
 48.027471022 -3.77138802571 47.5 -2.94680665467 47.5 -2 c 2
 47.5 774 l 2
 47.5 775.3797875 48.6202125 776.5 50 776.5 c 2
EndSplineSet
EndChar

StartChar: M
Encoding: 77 77 44
Width: 1052
VWidth: 0
Flags: HW
HStem: -2 21G<50 202 850 1002>
VStem: 50 152<-2 476.16> 850 152<-2 476.16>
LayerCount: 2
Fore
SplineSet
52.5 765.5 m 1
 52.5 0.5 l 1
 199.5 0.5 l 1
 199.5 476.160003662 l 2
 199.5 477.539791162 200.6202125 478.660003662 202 478.660003662 c 0
 202.964321042 478.660003662 203.801853037 478.112837428 204.21879816 477.312302786 c 2
 451.516870626 2.5 l 1
 600.483129374 2.5 l 1
 847.78120184 477.312302786 l 2
 848.198146963 478.112837428 849.035678958 478.660003662 850 478.660003662 c 0
 851.3797875 478.660003662 852.5 477.539791162 852.5 476.160003662 c 2
 852.5 0.5 l 1
 999.5 0.5 l 1
 999.5 765.5 l 1
 851.516870622 765.5 l 1
 528.218798157 144.767699041 l 2
 527.801853034 143.967164401 526.96432104 143.419998169 526 143.419998169 c 0
 525.03567896 143.419998169 524.198146966 143.967164401 523.781201843 144.767699041 c 2
 200.483129378 765.5 l 1
 52.5 765.5 l 1
50 770.5 m 2
 202 770.5 l 2
 202.96432104 770.5 203.801853034 769.952833768 204.218798157 769.152299128 c 2
 526 151.332389772 l 1
 847.781201843 769.152299128 l 2
 848.198146966 769.952833768 849.03567896 770.5 850 770.5 c 2
 1002 770.5 l 2
 1003.3797875 770.5 1004.5 769.3797875 1004.5 768 c 2
 1004.5 -2 l 2
 1004.5 -3.3797875 1003.3797875 -4.5 1002 -4.5 c 2
 850 -4.5 l 2
 848.6202125 -4.5 847.5 -3.3797875 847.5 -2 c 2
 847.5 465.947612002 l 1
 604.21879816 -1.15229912418 l 2
 603.801853037 -1.95283376632 602.964321042 -2.5 602 -2.5 c 2
 450 -2.5 l 2
 449.035678958 -2.5 448.198146963 -1.95283376632 447.78120184 -1.15229912418 c 2
 204.5 465.947612002 l 1
 204.5 -2 l 2
 204.5 -3.3797875 203.3797875 -4.5 202 -4.5 c 2
 50 -4.5 l 2
 48.6202125 -4.5 47.5 -3.3797875 47.5 -2 c 2
 47.5 768 l 2
 47.5 769.3797875 48.6202125 770.5 50 770.5 c 2
EndSplineSet
EndChar

StartChar: N
Encoding: 78 78 45
Width: 852
VWidth: 0
Flags: HW
HStem: -2 21G<50 202 632.937 802> 754 20G<50 219.116 650 802>
VStem: 50 152<-2 523.101> 650 152<250.522 774>
LayerCount: 2
Fore
SplineSet
52.5 771.5 m 1
 52.5 0.5 l 1
 199.5 0.5 l 1
 199.5 523.10144043 l 2
 199.5 524.48122793 200.6202125 525.60144043 202 525.60144043 c 0
 202.761420294 525.60144043 203.443793232 525.260306516 203.902489279 524.722668223 c 2
 651.152748527 0.5 l 1
 799.5 0.5 l 1
 799.5 771.5 l 1
 652.5 771.5 l 1
 652.5 250.521743774 l 2
 652.5 249.141956274 651.3797875 248.021743774 650 248.021743774 c 0
 649.239961655 248.021743774 648.55868399 248.361640522 648.100010477 248.897590546 c 2
 200.849572372 771.5 l 1
 52.5 771.5 l 1
50 776.5 m 2
 202 776.5 l 2
 202.760038345 776.5 203.44131601 776.160103252 203.899989523 775.624153228 c 2
 647.5 257.287189062 l 1
 647.5 774 l 2
 647.5 775.3797875 648.6202125 776.5 650 776.5 c 2
 802 776.5 l 2
 803.3797875 776.5 804.5 775.3797875 804.5 774 c 2
 804.5 -2 l 2
 804.5 -3.3797875 803.3797875 -4.5 802 -4.5 c 2
 650 -4.5 l 2
 649.238579706 -4.5 648.556206768 -4.15886608596 648.097510721 -3.62122779275 c 2
 204.5 516.320048659 l 1
 204.5 -2 l 2
 204.5 -3.3797875 203.3797875 -4.5 202 -4.5 c 2
 50 -4.5 l 2
 48.6202125 -4.5 47.5 -3.3797875 47.5 -2 c 2
 47.5 774 l 2
 47.5 775.3797875 48.6202125 776.5 50 776.5 c 2
EndSplineSet
EndChar

StartChar: O
Encoding: 79 79 46
Width: 864
VWidth: 0
Flags: HW
HStem: -14 157<337.027 526.973> 612 161<337.027 526.973>
VStem: 50 153<278.712 478.774> 661 153<278.712 478.774>
LayerCount: 2
Fore
SplineSet
811.5 380 m 0
 811.5 595.681843628 641.559906481 770.5 432 770.5 c 0
 222.440093519 770.5 52.5 595.681843628 52.5 380 c 0
 52.5 163.313255241 222.442974481 -11.5 432 -11.5 c 0
 641.557025519 -11.5 811.5 163.313255241 811.5 380 c 0
816.5 380 m 0
 816.5 160.686744759 644.442974481 -16.5 432 -16.5 c 0
 219.557025519 -16.5 47.5 160.686744759 47.5 380 c 0
 47.5 598.318156372 219.559906481 775.5 432 775.5 c 0
 644.440093519 775.5 816.5 598.318156372 816.5 380 c 0
658.5 378 m 0
 658.5 505.672628749 557.571487916 609.5 432 609.5 c 0
 306.428512084 609.5 205.5 505.672628749 205.5 378 c 0
 205.5 249.319146233 306.433349504 145.5 432 145.5 c 0
 557.566650496 145.5 658.5 249.319146233 658.5 378 c 0
663.5 378 m 0
 663.5 246.680853767 560.433349504 140.5 432 140.5 c 0
 303.566650496 140.5 200.5 246.680853767 200.5 378 c 0
 200.5 508.327371251 303.571487916 614.5 432 614.5 c 0
 560.428512084 614.5 663.5 508.327371251 663.5 378 c 0
EndSplineSet
EndChar

StartChar: P
Encoding: 80 80 47
Width: 534
VWidth: 0
Flags: HW
HStem: 265 151<202 290.529> 629 150<202.375 290.409>
VStem: 50 152<3 266 416.026 628.974> 333 151<458.471 586.934>
LayerCount: 2
Fore
SplineSet
52.5 5.5 m 1
 199.5 5.5 l 1
 199.5 266 l 2
 199.5 267.3797875 200.6202125 268.5 202 268.5 c 0
 202.105883667 268.5 202.210238725 268.49340319 202.312676245 268.4805985 c 0
 210.108945925 267.50606479 217.998874662 267.5 226 267.5 c 0
 367.624367268 267.5 481.5 381.375632732 481.5 523 c 0
 481.5 663.61684782 367.628820233 777.5 226 777.5 c 0
 217.998874662 777.5 210.108945925 777.49393521 202.312676245 776.5194015 c 0
 202.210238725 776.50659681 202.105883667 776.5 202 776.5 c 2
 52.5 776.5 l 1
 52.5 5.5 l 1
202 0.5 m 2
 50 0.5 l 2
 48.6202125 0.5 47.5 1.6202125 47.5 3 c 2
 47.5 779 l 2
 47.5 780.3797875 48.6202125 781.5 50 781.5 c 2
 201.843496769 781.5 l 2
 209.807493724 782.483258361 217.507983063 782.500020887 225.186887076 782.500020887 c 0
 225.457948067 782.500020887 225.728982161 782.5 226 782.5 c 0
 370.371179767 782.5 486.5 666.38315218 486.5 523 c 0
 486.5 378.624367268 370.375632732 262.5 226 262.5 c 0
 218.920748106 262.5 211.716394732 263.206676566 204.5 263.206676566 c 1
 204.5 3 l 2
 204.5 1.6202125 203.3797875 0.5 202 0.5 c 2
226 418.5 m 0
 284.635839577 418.5 330.5 464.364160423 330.5 523 c 0
 330.5 580.617744609 284.646612756 626.5 226 626.5 c 0
 218.841640646 626.5 211.677757261 625.678050034 204.5 624.028482329 c 1
 204.5 420.971517671 l 1
 211.677757261 419.321949966 218.841640646 418.5 226 418.5 c 0
226 631.5 m 0
 287.353387244 631.5 335.5 583.382255391 335.5 523 c 0
 335.5 461.635839577 287.364160423 413.5 226 413.5 c 0
 217.787399004 413.5 209.581335542 414.527245511 201.392559781 416.574439452 c 0
 200.305909623 416.846101991 199.5 417.829678537 199.5 419 c 2
 199.5 626 l 2
 199.5 627.170321463 200.305909623 628.153898009 201.392559781 628.425560548 c 0
 209.581335542 630.472754489 217.787399004 631.5 226 631.5 c 0
EndSplineSet
EndChar

StartChar: Q
Encoding: 81 81 48
Width: 864
VWidth: 0
Flags: HW
HStem: -14 157<337.027 513.045> 612 161<337.027 526.973>
VStem: 50 153<281.299 476.2> 661 153<280.102 476.2>
LayerCount: 2
Fore
SplineSet
658.5 378 m 0
 658.5 505.672628749 557.571487916 609.5 432 609.5 c 0
 306.428512084 609.5 205.5 505.672628749 205.5 378 c 0
 205.5 249.319146233 306.433349504 145.5 432 145.5 c 0
 557.566650496 145.5 658.5 249.319146233 658.5 378 c 0
663.5 378 m 0
 663.5 246.680853767 560.433349504 140.5 432 140.5 c 0
 303.566650496 140.5 200.5 246.680853767 200.5 378 c 0
 200.5 508.327371251 303.571487916 614.5 432 614.5 c 0
 560.428512084 614.5 663.5 508.327371251 663.5 378 c 0
811.5 380 m 0
 811.5 595.681843628 641.559906481 770.5 432 770.5 c 0
 222.440093519 770.5 52.5 595.681843628 52.5 380 c 0
 52.5 163.313255241 222.442974481 -11.5 432 -11.5 c 0
 455.284914366 -11.5 478.079386105 -9.34214604881 500.20519671 -5.20890384539 c 0
 500.354687195 -5.18097807166 500.508842571 -5.16637468338 500.666381836 -5.16637468338 c 0
 501.356275607 -5.16637468338 501.981275625 -5.44642782571 502.433802191 -5.89895441288 c 2
 683.99360785 -187.458767156 l 1
 818.471528544 -52.0063687761 l 1
 683.416661519 83.0485283733 l 2
 682.964135074 83.50105492 682.684082031 84.1260548377 682.684082031 84.8159484863 c 0
 682.684082031 85.5470795526 682.99861522 86.2053271683 683.499634611 86.6626443474 c 0
 762.000167233 158.315843326 811.5 263.069961565 811.5 380 c 0
432 -16.5 m 0
 219.557025519 -16.5 47.5 160.686744759 47.5 380 c 0
 47.5 598.318156372 219.559906481 775.5 432 775.5 c 0
 644.440093519 775.5 816.5 598.318156372 816.5 380 c 0
 816.5 262.594675277 767.204672209 157.279258336 688.795163176 84.7397075553 c 1
 823.767420512 -50.232579887 l 2
 824.219946957 -50.6851064337 824.5 -51.3101063514 824.5 -52 c 0
 824.5 -52.6866264276 824.222593245 -53.3089723206 823.773838165 -53.7609792494 c 2
 685.773838165 -192.760979249 l 2
 685.320812268 -193.217287942 684.693161072 -193.5 684 -193.5 c 0
 683.310106229 -193.5 682.685106211 -193.219946858 682.232579645 -192.76742027 c 2
 499.829181605 -10.3640151139 l 1
 477.811405881 -14.3964848792 455.144701294 -16.5 432 -16.5 c 0
EndSplineSet
EndChar

StartChar: R
Encoding: 82 82 49
Width: 512
VWidth: 0
Flags: HW
HStem: -3 21G<359.703 512> 629 150<202.375 290.409>
VStem: 50 152<3 266 416.026 628.974> 333 151<460.25 586.934>
LayerCount: 2
Fore
SplineSet
226 418.5 m 0
 284.635839577 418.5 330.5 464.364160423 330.5 523 c 0
 330.5 580.617744609 284.646612756 626.5 226 626.5 c 0
 218.841640646 626.5 211.677757261 625.678050034 204.5 624.028482329 c 1
 204.5 420.971517671 l 1
 211.677757261 419.321949966 218.841640646 418.5 226 418.5 c 0
226 631.5 m 0
 287.353387244 631.5 335.5 583.382255391 335.5 523 c 0
 335.5 461.635839577 287.364160423 413.5 226 413.5 c 0
 217.787399004 413.5 209.581335542 414.527245511 201.392559781 416.574439452 c 0
 200.305909623 416.846101991 199.5 417.829678537 199.5 419 c 2
 199.5 626 l 2
 199.5 627.170321463 200.305909623 628.153898009 201.392559781 628.425560548 c 0
 209.581335542 630.472754489 217.787399004 631.5 226 631.5 c 0
52.5 5.5 m 1
 199.5 5.5 l 1
 199.5 266 l 2
 199.5 267.3797875 200.6202125 268.5 202 268.5 c 0
 204.316198307 268.5 208.087677798 268.366110154 209.044603338 266.809731211 c 2
 373.397577906 -0.5 l 1
 507.189674547 -0.5 l 1
 311.20794684 278.565586147 l 2
 310.922714454 278.971739025 310.755218506 279.46646348 310.755218506 280 c 0
 310.755218506 281.085421213 311.448440945 282.010209318 312.415920034 282.355398528 c 0
 411.213416172 317.605596698 481.5 411.734029159 481.5 523 c 0
 481.5 663.61684782 367.628820233 777.5 226 777.5 c 0
 217.998874662 777.5 210.108945925 777.49393521 202.312676245 776.5194015 c 0
 202.210238725 776.50659681 202.105883667 776.5 202 776.5 c 2
 52.5 776.5 l 1
 52.5 5.5 l 1
202 0.5 m 2
 50 0.5 l 2
 48.6202125 0.5 47.5 1.6202125 47.5 3 c 2
 47.5 779 l 2
 47.5 780.3797875 48.6202125 781.5 50 781.5 c 2
 201.843496769 781.5 l 2
 209.807493724 782.483258361 217.507983063 782.500020887 225.186887076 782.500020887 c 0
 225.457948067 782.500020887 225.728982161 782.5 226 782.5 c 0
 370.371179767 782.5 486.5 666.38315218 486.5 523 c 0
 486.5 410.741568751 416.292975586 315.553255572 317.176299347 278.76622809 c 1
 514.047271666 -1.56558614689 l 2
 514.332504052 -1.97173902539 514.5 -2.46646348003 514.5 -3 c 0
 514.5 -4.3797875 513.3797875 -5.5 512 -5.5 c 2
 372 -5.5 l 2
 371.099043366 -5.5 370.308760889 -5.02237860018 369.868757258 -4.30674048762 c 2
 205.445177793 263.117825128 l 2
 205.130260038 263.14606884 204.815200046 263.175609544 204.5 263.206507878 c 1
 204.5 3 l 2
 204.5 1.6202125 203.3797875 0.5 202 0.5 c 2
EndSplineSet
EndChar

StartChar: S
Encoding: 83 83 50
Width: 512
VWidth: 0
Flags: HW
LayerCount: 2
Fore
SplineSet
456.403979223 229.281687212 m 0
 456.403979223 311.217667976 381.381107899 369.13811492 295.171837553 415.606300298 c 1
 247.18670057 424.08311239 216.515191141 470.602576227 216.515191141 516.798973979 c 0
 216.515191141 533.914744835 220.716467606 551.053210156 229.854678009 566.283560828 c 0
 250.379515216 599.807461599 286.439722053 618.24097028 323.632357259 618.24097028 c 0
 342.123832162 618.24097028 360.896150627 613.693445387 378.20051307 604.193011105 c 0
 387.172050782 599.707242249 393.01351133 595.19467654 398.355591694 590.785083636 c 1
 470.743124855 711.430972238 l 1
 464.416056444 716.345974055 457.342146336 719.255439387 451.502311913 724.965860916 c 0
 410.585036729 746.82831797 366.218449654 757.242277947 322.661726118 757.242278255 c 0
 234.378761262 757.242278255 149.467716983 714.479249645 103.142057318 637.71101363 c 0
 79.8758240068 598.656979143 69.6874183843 561.770791235 69.6874183843 527.420484531 c 0
 69.6874183843 438.94521591 137.531151877 366.22010765 227.830368181 317.393029544 c 1
 269.014985787 310.107498902 309.565943515 278.734305822 309.565943515 237.22146174 c 0
 309.565943515 225.604629473 306.349303824 213.322267161 299.172194507 200.762325856 c 0
 278.855099744 168.254974235 243.28514229 149.570516088 206.464362378 149.570516088 c 0
 187.623907884 149.570516088 168.450281259 154.440624557 150.808364291 164.800529517 c 0
 141.877702044 169.27483661 135.988753896 173.809256332 130.644840508 178.2156367 c 1
 58.2568751448 57.5690277618 l 1
 64.5862333595 52.6522471772 71.6626340872 49.7425950423 77.5034734118 44.0284813908 c 0
 118.637755798 21.7199916522 196.545576652 13.7501749978 206.994494062 11.0924974686 c 1
 294.947394275 11.0924974686 379.303120866 54.0441051909 424.844993448 131.26728044 c 0
 446.933018531 167.647557047 456.403979223 200.124772711 456.403979223 229.281687212 c 0
130 184.5 m 0
 130.607892533 184.5 131.165401133 184.282564916 131.598928128 183.92129242 c 0
 137.602717209 178.918134853 143.355571587 174.117542596 153.115605112 169.237525833 c 0
 153.166365645 169.212145566 153.21614427 169.18508847 153.26486819 169.156427341 c 0
 170.14734503 159.225558611 188.473450441 154.570516088 206.464362378 154.570516088 c 0
 241.615405732 154.570516088 275.465228609 172.257551129 294.827805493 203.237674144 c 0
 301.6274456 215.137044332 304.565943515 226.550909432 304.565943515 237.22146174 c 0
 304.565943515 275.340934069 266.536918254 305.619557311 226.571370987 312.536671261 c 0
 226.302186531 312.583260878 226.047695079 312.672961717 225.815276375 312.798394034 c 0
 134.659976538 361.993317755 64.6874183843 436.049409104 64.6874183843 527.420484531 c 0
 64.6874183843 562.792130362 75.2117249627 600.597120913 98.8579426816 640.28898637 c 0
 146.188457004 718.722410104 232.8028384 762.242278255 322.661726118 762.242278255 c 0
 367.141520815 762.242278255 412.427305995 751.583593365 454.178446709 729.204981942 c 0
 454.395992649 729.088377319 454.594324145 728.94051648 454.767420313 728.767420313 c 0
 460.717123177 722.817717448 468.910425855 719.65461396 475.625618468 713.898734577 c 0
 476.160722675 713.440073828 476.5 712.759345488 476.5 712 c 0
 476.5 711.530861964 476.370497757 711.091732115 476.145321991 710.716439172 c 2
 401.145321991 585.716439172 l 2
 400.708230613 584.987953542 399.910649464 584.5 399 584.5 c 0
 398.392107467 584.5 397.834598867 584.717435084 397.401071872 585.07870758 c 0
 391.397282791 590.081865147 385.559520456 594.926972132 375.79948693 599.806988895 c 0
 359.244318861 608.896100776 341.292039248 613.24097028 323.632357259 613.24097028 c 0
 288.072749124 613.24097028 253.703113895 595.660832615 234.145321991 563.716439172 c 0
 225.515164457 549.332843282 221.515191141 533.088497312 221.515191141 516.798973979 c 0
 221.515191141 472.446835597 251.101626768 428.25390897 296.425766578 420.46382244 c 0
 296.695207053 420.417512358 296.949964118 420.3280162 297.182645528 420.20272621 c 0
 383.534219398 373.705724895 461.403979223 314.705919717 461.403979223 229.281687212 c 0
 461.403979223 199.006675946 451.594220057 165.691424157 429.155006552 128.73271956 c 0
 382.618118707 49.8223445201 296.538874547 6.09249746861 206.994494062 6.09249746861 c 0
 162.322605583 6.09249746861 116.778151012 16.9705744078 74.8079529446 39.8023621567 c 0
 74.5957369705 39.9178076466 74.4020620185 40.0630973565 74.2325796875 40.2325796875 c 0
 68.2828768227 46.1822825523 60.0895741453 49.3453860402 53.3743815316 55.1012654234 c 0
 52.8392773252 55.5599261717 52.5 56.2406545119 52.5 57 c 0
 52.5 57.4691380355 52.6295022434 57.9082678852 52.854678009 58.2835608279 c 2
 127.854678009 183.283560828 l 2
 128.291769387 184.012046458 129.089350536 184.5 130 184.5 c 0
EndSplineSet
EndChar

StartChar: T
Encoding: 84 84 51
Width: 676
VWidth: 0
Flags: HW
HStem: -2 21G<265 417> 614 152<53 265 417 629>
VStem: 265 152<-2 614>
LayerCount: 2
Fore
SplineSet
55.5 763.5 m 1
 55.5 616.5 l 1
 265 616.5 l 2
 266.3797875 616.5 267.5 615.3797875 267.5 614 c 2
 267.5 0.5 l 1
 414.5 0.5 l 1
 414.5 614 l 2
 414.5 615.3797875 415.6202125 616.5 417 616.5 c 2
 626.5 616.5 l 1
 626.5 763.5 l 1
 55.5 763.5 l 1
50.5 614 m 2
 50.5 766 l 2
 50.5 767.3797875 51.6202125 768.5 53 768.5 c 2
 629 768.5 l 2
 630.3797875 768.5 631.5 767.3797875 631.5 766 c 2
 631.5 614 l 2
 631.5 612.6202125 630.3797875 611.5 629 611.5 c 2
 419.5 611.5 l 1
 419.5 -2 l 2
 419.5 -3.3797875 418.3797875 -4.5 417 -4.5 c 2
 265 -4.5 l 2
 263.6202125 -4.5 262.5 -3.3797875 262.5 -2 c 2
 262.5 611.5 l 1
 53 611.5 l 2
 51.6202125 611.5 50.5 612.6202125 50.5 614 c 2
EndSplineSet
EndChar

StartChar: U
Encoding: 85 85 52
Width: 669
VWidth: 0
Flags: HW
HStem: 741 20G<50 217 452 619>
VStem: 53 164<172.77 761> 452 164<172.95 761>
LayerCount: 2
Fore
SplineSet
454.5 758.5 m 1
 454.5 185 l 2
 454.5 184.392107467 454.282564916 183.834598867 453.92129242 183.401071872 c 0
 434.296498482 159.851319145 384.831638863 149.102807984 335.671714374 149.102807984 c 0
 285.880308254 149.102807984 235.309047157 160.135339439 215.112971661 183.360822211 c 0
 214.731227276 183.799828179 214.5 184.373124163 214.5 185 c 2
 214.5 758.5 l 1
 52.5130327104 758.5 l 1
 55.4981746253 184.357705031 l 1
 89.6871134864 64.8132427229 211.10591761 5.42490303204 333.390192075 5.42490303204 c 0
 456.708409089 5.42490303204 579.609991657 65.8334565772 613.501824962 184.357625718 c 1
 616.48696729 758.5 l 1
 454.5 758.5 l 1
50 763.5 m 2
 217 763.5 l 2
 218.3797875 763.5 219.5 762.3797875 219.5 761 c 2
 219.5 185.950475895 l 1
 238.245127439 165.366428007 286.84686984 154.102807984 335.671714374 154.102807984 c 0
 383.919972304 154.102807984 431.343047315 165.107459668 449.5 185.920322098 c 1
 449.5 761 l 2
 449.5 762.3797875 450.6202125 763.5 452 763.5 c 2
 619 763.5 l 2
 620.3797875 763.5 621.5 762.3797875 621.5 761 c 2
 618.49996557 183.986753344 l 2
 618.498756836 183.754273447 618.465747909 183.52925887 618.405070395 183.315841219 c 0
 583.811795032 61.642834591 458.163775039 0.424903032036 333.390192075 0.424903032036 c 0
 209.644707713 0.424903032036 85.4816445507 60.6496565939 50.5949861999 183.315642193 c 0
 50.5342726166 183.529118974 50.50124354 183.754201178 50.5000344299 183.986753344 c 2
 47.5000344299 760.986753344 l 2
 47.5000344299 762.3797875 48.6202125 763.5 50 763.5 c 2
EndSplineSet
EndChar

StartChar: V
Encoding: 86 86 53
Width: 652
VWidth: 0
Flags: HW
LayerCount: 2
Fore
SplineSet
326 289.720001221 m 0
 324.837856819 289.720001221 323.859857704 290.514686702 323.580238754 291.589821563 c 2
 200.066537934 766.5 l 1
 53.2338521845 766.5 l 1
 251.933462067 2.5 l 1
 400.066537933 2.5 l 1
 598.766147815 766.5 l 1
 451.933462066 766.5 l 1
 328.419761246 291.589821563 l 2
 328.140142296 290.514686702 327.162143181 289.720001221 326 289.720001221 c 0
50 771.5 m 2
 202 771.5 l 2
 203.162143181 771.5 204.140142296 770.705314519 204.419761246 769.630179658 c 2
 326 302.154162847 l 1
 447.580238754 769.630179658 l 2
 447.859857704 770.705314519 448.837856819 771.5 450 771.5 c 2
 602 771.5 l 2
 603.3797875 771.5 604.5 770.3797875 604.5 769 c 0
 604.5 768.782355681 604.472127837 768.571169884 604.419761247 768.369820344 c 2
 404.419761247 -0.630179656218 l 2
 404.140142297 -1.70531451861 403.162143181 -2.5 402 -2.5 c 2
 250 -2.5 l 2
 248.837856819 -2.5 247.859857703 -1.70531451861 247.580238753 -0.630179656218 c 2
 47.5802387534 768.369820344 l 2
 47.527872163 768.571169884 47.5 768.782355681 47.5 769 c 0
 47.5 770.3797875 48.6202125 771.5 50 771.5 c 2
EndSplineSet
EndChar

StartChar: W
Encoding: 87 87 54
Width: 1000
VWidth: 0
Flags: HW
LayerCount: 2
Fore
SplineSet
526.5 481.2025 m 0
 527.662143181 481.2025 528.640142297 480.407814519 528.919761247 479.332679656 c 2
 652.933462067 2.5 l 1
 801.066537933 2.5 l 1
 999.766147815 766.5 l 1
 852.933686373 766.5 l 1
 729.419831362 291.37009 l 2
 729.140305821 290.294818362 728.162240339 289.5 727 289.5 c 0
 725.837759661 289.5 724.859694179 290.294818362 724.580168638 291.37009 c 2
 601.066313627 766.5 l 1
 451.933462066 766.5 l 1
 328.419761246 291.589821563 l 2
 328.140142296 290.514686702 327.162143181 289.720001221 326 289.720001221 c 0
 324.837856819 289.720001221 323.859857704 290.514686702 323.580238754 291.589821563 c 2
 200.066537934 766.5 l 1
 53.2338521845 766.5 l 1
 251.933462067 2.5 l 1
 400.066537933 2.5 l 1
 524.080238753 479.332679656 l 2
 524.359857703 480.407814519 525.337856819 481.2025 526.5 481.2025 c 0
50 771.5 m 2
 202 771.5 l 2
 203.162143181 771.5 204.140142296 770.705314519 204.419761246 769.630179658 c 2
 326 302.154162847 l 1
 447.580238754 769.630179658 l 2
 447.859857704 770.705314519 448.837856819 771.5 450 771.5 c 2
 603 771.5 l 2
 604.162240339 771.5 605.140305821 770.705181638 605.419831362 769.62991 c 2
 727 301.938454837 l 1
 848.580168638 769.62991 l 2
 848.859694179 770.705181638 849.837759661 771.5 851 771.5 c 2
 1003 771.5 l 2
 1004.3797875 771.5 1005.5 770.3797875 1005.5 769 c 0
 1005.5 768.782355681 1005.47212784 768.571169884 1005.41976125 768.369820344 c 2
 805.419761247 -0.630179656218 l 2
 805.140142297 -1.70531451861 804.162143181 -2.5 803 -2.5 c 2
 651 -2.5 l 2
 649.837856819 -2.5 648.859857703 -1.70531451861 648.580238753 -0.630179656218 c 2
 526.5 468.76833835 l 1
 404.419761247 -0.630179656218 l 2
 404.140142297 -1.70531451861 403.162143181 -2.5 402 -2.5 c 2
 250 -2.5 l 2
 248.837856819 -2.5 247.859857703 -1.70531451861 247.580238753 -0.630179656218 c 2
 47.5802387534 768.369820344 l 2
 47.527872163 768.571169884 47.5 768.782355681 47.5 769 c 0
 47.5 770.3797875 48.6202125 771.5 50 771.5 c 2
EndSplineSet
EndChar

StartChar: X
Encoding: 88 88 55
Width: 724
VWidth: 0
Flags: HW
HStem: -1 20G<62.6104 229 487.368 674>
LayerCount: 2
Fore
SplineSet
277 384 m 0
 277 383.543763093 276.877522354 383.115906636 276.663680993 382.747544561 c 2
 55.385169043 1.57426894164 l 1
 227.545437943 4.47584650737 l 1
 360.445016145 233.75756984 l 2
 360.877688098 234.504026468 361.685386071 235.006546021 362.609527588 235.006546021 c 0
 363.532353154 235.006546021 364.339066565 234.505456596 364.772188414 233.760757153 c 2
 500.428510287 0.516492170337 l 1
 669.723938269 2.45129706156 l 1
 450.555522602 386.746635199 l 2
 450.347592513 387.111224977 450.228759766 387.533086016 450.228759766 387.98248291 c 0
 450.228759766 388.438128907 450.350920356 388.865467923 450.564248342 389.233506763 c 2
 668.675565235 765.524669453 l 1
 499.434673651 766.491760262 l 1
 367.714126481 539.590623053 l 2
 367.28125198 538.844955665 366.4739961 538.343078613 365.550445557 538.343078613 c 0
 364.620055026 538.343078613 363.807688138 538.852417184 363.377208497 539.60723072 c 2
 234.53884839 765.515564054 l 1
 54.3735705741 767.452825106 l 1
 276.662660854 385.254211083 l 2
 276.877132786 384.885453107 277 384.456961914 277 384 c 0
675.5 768 m 0
 675.5 767.544354003 675.37783941 767.117014987 675.164511424 766.748976147 c 2
 455.612564999 387.972402937 l 1
 676.173237164 1.23584771063 l 2
 676.381167253 0.871257932749 676.5 0.449396894447 676.5 0 c 0
 676.5 -1.37007576852 675.395501392 -2.48421775115 674.029096315 -2.49983380917 c 2
 674.029096315 -2.49983380917 499.029096315 -4.49983380917 499 -4.5 c 0
 498.077174434 -4.5 497.270461023 -3.99891057517 496.837339174 -3.25421113219 c 2
 362.613201441 227.527590381 l 1
 231.164511443 0.748976181479 l 2
 230.738544847 0.014087804752 229.949086131 -0.484365764545 229.042880937 -0.499638885797 c 2
 229.042880937 -0.499638885797 51.0428809372 -3.4996388858 51 -3.5 c 0
 49.6202125 -3.5 48.5 -2.3797875 48.5 -1 c 0
 48.5 -0.543763092987 48.622477646 -0.115906636083 48.8363190067 0.252455439311 c 2
 271.608563841 383.998827972 l 1
 47.8373391457 768.745788917 l 2
 47.6228672142 769.114546893 47.5 769.543038086 47.5 770 c 0
 47.5 771.3797875 48.6202938337 772.514982804 50.0273777515 772.499852869 c 2
 236.027377751 770.499852869 l 2
 236.94631024 770.489971875 237.746985168 769.98324839 238.17323706 769.235847893 c 2
 365.569678402 545.855810205 l 1
 495.836319076 770.25245556 l 2
 496.269193577 770.998122948 497.076449457 771.5 498 771.5 c 2
 673.014557848 770.499958415 l 2
 674.387658284 770.492112127 675.5 769.374931657 675.5 768 c 0
EndSplineSet
EndChar

StartChar: Y
Encoding: 89 89 56
Width: 512
VWidth: 0
Flags: HW
VStem: 193 152<1 450>
LayerCount: 2
Fore
SplineSet
195.865081787 451 m 0
 195.865081787 450.523683369 195.731586021 450.078300301 195.5 449.699256307 c 2
 195.5 3.5 l 1
 342.5 3.5 l 1
 342.5 450 l 2
 342.5 451.245909897 343.413375322 452.280172987 344.606484554 452.469147856 c 2
 541.451470042 762.5 l 1
 395.274921704 762.5 l 1
 272.025182684 592.534634093 l 2
 271.570720754 591.907916432 270.832621458 591.5 270 591.5 c 0
 269.167378542 591.5 268.429279246 591.907916432 267.974817316 592.534634093 c 2
 144.725078296 762.5 l 1
 -1.45147001256 762.5 l 1
 195.477169935 452.33739585 l 2
 195.722790647 451.950543234 195.865081787 451.491757428 195.865081787 451 c 0
347.5 1 m 2
 347.5 -0.3797875 346.3797875 -1.5 345 -1.5 c 2
 193 -1.5 l 2
 191.6202125 -1.5 190.5 -0.3797875 190.5 1 c 2
 190.5 450.848569117 l 1
 -8.11208814841 763.66260415 l 2
 -8.35770885997 764.049456766 -8.5 764.508242572 -8.5 765 c 0
 -8.5 766.3797875 -7.3797875 767.5 -6 767.5 c 2
 146 767.5 l 2
 146.832621458 767.5 147.570720754 767.092083568 148.025182684 766.465365907 c 2
 270 598.258158156 l 1
 391.974817316 766.465365907 l 2
 392.429279246 767.092083568 393.167378542 767.5 394 767.5 c 2
 546 767.5 l 2
 547.3797875 767.5 548.5 766.3797875 548.5 765 c 0
 548.5 764.508242577 548.357708863 764.049456775 548.112088156 763.662604162 c 2
 348.112088156 448.662604162 l 2
 347.949545924 448.406600147 347.741752805 448.182097673 347.5 448.000387941 c 2
 347.5 1 l 2
EndSplineSet
EndChar

StartChar: Z
Encoding: 90 90 57
Width: 783
VWidth: 0
Flags: HW
HStem: 10 152<301 733> 610 152<50 480>
LayerCount: 2
Fore
SplineSet
730.5 12.5 m 1
 730.5 159.5 l 1
 301 159.5 l 2
 299.6202125 159.5 298.5 160.6202125 298.5 162 c 0
 298.5 162.673440464 298.76685443 163.285045571 299.200498505 163.734750538 c 2
 730.5 611.008307644 l 1
 730.5 759.5 l 1
 52.5 759.5 l 1
 52.5 612.5 l 1
 480 612.5 l 2
 481.3797875 612.5 482.5 611.3797875 482.5 610 c 0
 482.5 609.32865768 482.234805782 608.718766013 481.803549768 608.269457422 c 2
 52.5 160.995061385 l 1
 52.5 12.5 l 1
 730.5 12.5 l 1
47.5 10 m 2
 47.5 162 l 2
 47.5 162.67134232 47.7651942185 163.281233987 48.1964502325 163.730542578 c 2
 474.135884812 607.5 l 1
 50 607.5 l 2
 48.6202125 607.5 47.5 608.6202125 47.5 610 c 2
 47.5 762 l 2
 47.5 763.3797875 48.6202125 764.5 50 764.5 c 2
 733 764.5 l 2
 734.3797875 764.5 735.5 763.3797875 735.5 762 c 2
 735.5 610 l 2
 735.5 609.326559536 735.23314557 608.714954429 734.799501495 608.265249462 c 2
 306.883010942 164.5 l 1
 733 164.5 l 2
 734.3797875 164.5 735.5 163.3797875 735.5 162 c 2
 735.5 10 l 2
 735.5 8.6202125 734.3797875 7.5 733 7.5 c 2
 50 7.5 l 2
 48.6202125 7.5 47.5 8.6202125 47.5 10 c 2
EndSplineSet
EndChar

StartChar: bracketleft
Encoding: 91 91 58
Width: 362
VWidth: 0
Flags: HW
HStem: -80 85<144 311> 689 85<144 311>
VStem: 50 262<-80 5 689 774> 50 94<5 689>
LayerCount: 2
Fore
SplineSet
52.5 771.5 m 1
 52.5 -77.5 l 1
 309.470411973 -77.5 l 1
 308.529235502 2.5 l 1
 144 2.5 l 2
 142.6202125 2.5 141.5 3.6202125 141.5 5 c 2
 141.5 689 l 2
 141.5 690.3797875 142.6202125 691.5 144 691.5 c 2
 308.529235502 691.5 l 1
 309.470411973 771.5 l 1
 52.5 771.5 l 1
50 -82.5 m 2
 48.6202125 -82.5 47.5 -81.3797875 47.5 -80 c 2
 47.5 774 l 2
 47.5 775.3797875 48.6202125 776.5 50 776.5 c 2
 312 776.5 l 2
 313.3797875 776.5 314.5 775.3797875 314.499823899 773.970049104 c 2
 313.499823899 688.970049104 l 2
 313.483753181 687.604038118 312.369790131 686.5 311 686.5 c 2
 146.5 686.5 l 1
 146.5 7.5 l 1
 311 7.5 l 2
 312.369790131 7.5 313.483753181 6.39596188178 313.499823899 5.02995089633 c 2
 313.499823899 5.02995089633 314.499823899 -79.9700491037 314.5 -80 c 0
 314.5 -81.3797875 313.3797875 -82.5 312 -82.5 c 2
 50 -82.5 l 2
EndSplineSet
EndChar

StartChar: backslash
Encoding: 92 92 59
Width: 691
VWidth: 0
Flags: HW
LayerCount: 2
Fore
SplineSet
637.58306938 -21.0818925746 m 1
 155.08321345 814.587960995 l 1
 53.4169306201 756.081892575 l 1
 535.91678655 -79.5879609954 l 1
 637.58306938 -21.0818925746 l 1
643.5 -22 m 0
 643.5 -22.9269263701 642.99444725 -23.7367063459 642.244268953 -24.1684127243 c 2
 536.244268953 -85.1684127243 l 2
 535.87776024 -85.3793281159 535.45286113 -85.5 535 -85.5 c 0
 534.074352056 -85.5 533.26552759 -84.9958408151 532.833375674 -84.2473715166 c 2
 47.8333756738 755.752628483 l 2
 47.6213541588 756.119841004 47.5 756.545860444 47.5 757 c 0
 47.5 757.92692637 48.0055527501 758.736706346 48.7557310469 759.168412724 c 2
 154.755731047 820.168412724 l 2
 155.12223976 820.379328116 155.54713887 820.5 156 820.5 c 0
 156.925647944 820.5 157.73447241 819.995840815 158.166624326 819.247371517 c 2
 643.166624326 -20.7526284834 l 2
 643.378645841 -21.1198410042 643.5 -21.545860444 643.5 -22 c 0
EndSplineSet
EndChar

StartChar: bracketright
Encoding: 93 93 60
Width: 362
VWidth: 0
Flags: HW
HStem: -81 85<51 218> 689 85<51 218>
VStem: 50 262<-81 4 689 774> 218 94<4 689>
LayerCount: 2
Fore
SplineSet
309.5 -78.5 m 1
 309.5 771.5 l 1
 52.5295880271 771.5 l 1
 53.4707644977 691.5 l 1
 218 691.5 l 2
 219.3797875 691.5 220.5 690.3797875 220.5 689 c 2
 220.5 4 l 2
 220.5 2.6202125 219.3797875 1.5 218 1.5 c 2
 53.4707644977 1.5 l 1
 52.5295880271 -78.5 l 1
 309.5 -78.5 l 1
312 -83.5 m 2
 50 -83.5 l 2
 48.6202125 -83.5 47.5 -82.3797875 47.5001761011 -80.9700491037 c 2
 48.5001761011 4.02995089633 l 2
 48.5162468186 5.39596188178 49.6302098685 6.5 51 6.5 c 2
 215.5 6.5 l 1
 215.5 686.5 l 1
 51 686.5 l 2
 49.6302098685 686.5 48.5162468186 687.604038118 48.5001761011 688.970049104 c 2
 48.5001761011 688.970049104 47.5001761011 773.970049104 47.5 774 c 0
 47.5 775.3797875 48.6202125 776.5 50 776.5 c 2
 312 776.5 l 2
 313.3797875 776.5 314.5 775.3797875 314.5 774 c 2
 314.5 -81 l 2
 314.5 -82.3797875 313.3797875 -83.5 312 -83.5 c 2
EndSplineSet
EndChar

StartChar: asciicircum
Encoding: 94 94 61
Width: 644
VWidth: 0
Flags: HW
LayerCount: 2
Fore
SplineSet
329 499.5 m 0
 330.214414237 499.5 331.227746959 498.632219869 331.453206147 497.483451623 c 2
 373.057434971 285.5 l 1
 519.583193763 285.5 l 1
 415.17002011 614.5 l 1
 265.649536545 614.5 l 1
 124.790255108 285.5 l 1
 271.069534644 285.5 l 1
 326.581178968 497.63378367 l 2
 326.862044171 498.707089981 327.839155757 499.5 329 499.5 c 0
264 619.5 m 2
 417 619.5 l 2
 418.116286753 619.5 419.062674831 618.76679141 419.383430728 617.756107737 c 2
 525.383430728 283.756107737 l 2
 525.459145519 283.517534716 525.5 283.263500747 525.5 283 c 0
 525.5 281.6202125 524.3797875 280.5 523 280.5 c 2
 371 280.5 l 2
 369.785585763 280.5 368.772253041 281.367780131 368.546793853 282.516548377 c 2
 328.65166517 485.791727857 l 1
 275.418821032 282.36621633 l 2
 275.137955829 281.292910019 274.160844243 280.5 273 280.5 c 2
 121 280.5 l 2
 119.6202125 280.5 118.5 281.6202125 118.5 283 c 0
 118.5 283.348580176 118.571495939 283.680593355 118.70061094 283.982162659 c 2
 261.70061094 617.982162659 l 2
 262.082572808 618.874297371 262.968792676 619.5 264 619.5 c 2
EndSplineSet
EndChar

StartChar: underscore
Encoding: 95 95 62
Width: 544
VWidth: 0
Flags: HW
HStem: 44 152<0 544>
LayerCount: 2
Fore
SplineSet
541.5 46.5 m 1
 541.5 193.5 l 1
 2.5 193.5 l 1
 2.5 46.5 l 1
 541.5 46.5 l 1
546.5 196 m 2
 546.5 44 l 2
 546.5 42.6202125 545.3797875 41.5 544 41.5 c 2
 0 41.5 l 2
 -1.3797875 41.5 -2.5 42.6202125 -2.5 44 c 2
 -2.5 196 l 2
 -2.5 197.3797875 -1.3797875 198.5 0 198.5 c 2
 544 198.5 l 2
 545.3797875 198.5 546.5 197.3797875 546.5 196 c 2
EndSplineSet
EndChar

StartChar: grave
Encoding: 96 96 63
Width: 252
VWidth: 0
Flags: HW
HStem: 516 289
VStem: -19 290
LayerCount: 2
Fore
SplineSet
-15.4569195514 697.991760176 m 1
 163.008201296 519.526639329 l 1
 267.456919551 623.008239824 l 1
 88.9917987045 801.473360671 l 1
 -15.4569195514 697.991760176 l 1
-21.5 698 m 0
 -21.5 698.694103262 -21.2165188583 699.322518436 -20.7591175538 699.775684544 c 2
 87.2408824462 806.775684544 l 2
 87.6927357683 807.223354039 88.3143157622 807.5 89 807.5 c 0
 89.68989375 807.5 90.31489375 807.219946875 90.7674203125 806.767420313 c 2
 272.767420313 624.767420313 l 2
 273.219946875 624.31489375 273.5 623.68989375 273.5 623 c 0
 273.5 622.305896738 273.216518858 621.677481564 272.759117554 621.224315456 c 2
 164.759117554 514.224315456 l 2
 164.307264232 513.776645961 163.685684238 513.5 163 513.5 c 0
 162.31010625 513.5 161.68510625 513.780053125 161.232579687 514.232579687 c 2
 -20.7674203125 696.232579687 l 2
 -21.219946875 696.68510625 -21.5 697.31010625 -21.5 698 c 0
EndSplineSet
EndChar

StartChar: a
Encoding: 97 97 64
Width: 512
VWidth: 0
Flags: HW
HStem: 8 151<243.471 332> 372 143<243.351 331.625>
VStem: 50 151<201.471 329.671> 332 152<1 9 159.012 371.988>
LayerCount: 2
Fore
SplineSet
481.5 511.5 m 1
 332 511.5 l 2
 331.894116333 511.5 331.789761275 511.50659681 331.687323755 511.5194015 c 0
 323.891054075 512.49393521 316.001125338 512.5 308 512.5 c 0
 166.264374967 512.5 52.5 406.541912013 52.5 266 c 0
 52.5 124.375632732 166.375632732 10.5 308 10.5 c 0
 316.001125338 10.5 323.891054075 10.5060647904 331.687323755 11.4805985004 c 0
 331.789761275 11.4934031904 331.894116333 11.5 332 11.5 c 0
 333.3797875 11.5 334.5 10.3797875 334.5 9 c 2
 334.5 3.5 l 1
 481.5 3.5 l 1
 481.5 511.5 l 1
308 369.5 m 0
 249.353387244 369.5 203.5 323.617744609 203.5 266 c 0
 203.5 207.364160423 249.364160423 161.5 308 161.5 c 0
 315.158359354 161.5 322.322242739 162.321949966 329.5 163.971517671 c 1
 329.5 367.028482329 l 1
 322.322242739 368.678050034 315.158359354 369.5 308 369.5 c 0
334.5 369 m 2
 334.5 162 l 2
 334.5 160.829678537 333.694090377 159.846101991 332.607440219 159.574439452 c 0
 324.418664458 157.527245511 316.212600996 156.5 308 156.5 c 0
 246.635839577 156.5 198.5 204.635839577 198.5 266 c 0
 198.5 326.382255391 246.646612756 374.5 308 374.5 c 0
 316.212600996 374.5 324.418664458 373.472754489 332.607440219 371.425560548 c 0
 333.694090377 371.153898009 334.5 370.170321463 334.5 369 c 2
332.156468655 516.5 m 2
 484 516.5 l 2
 485.3797875 516.5 486.5 515.3797875 486.5 514 c 2
 486.5 1 l 2
 486.5 -0.3797875 485.3797875 -1.5 484 -1.5 c 2
 332 -1.5 l 2
 330.6202125 -1.5 329.5 -0.3797875 329.5 1 c 2
 329.5 6.20562975629 l 1
 322.474242376 5.5132094317 315.635159221 5.49997911305 308.813112924 5.49997911305 c 0
 308.542051933 5.49997911305 308.271017839 5.5 308 5.5 c 0
 163.624367268 5.5 47.5 121.624367268 47.5 266 c 0
 47.5 409.458087987 163.735625033 517.5 308 517.5 c 0
 315.947803765 517.5 324.053289482 516.5 332.156468655 516.5 c 2
EndSplineSet
EndChar

StartChar: b
Encoding: 98 98 65
Width: 512
VWidth: 0
Flags: HW
HStem: 4 150<202.375 290.649> 367 151<202 290.529>
VStem: 50 152<154.012 366.988 517 780> 333 151<196.066 324.529>
LayerCount: 2
Fore
SplineSet
52.5 6.5 m 1
 202 6.5 l 2
 202.105883667 6.5 202.210238725 6.49340319039 202.312676245 6.4805985004 c 0
 210.108945925 5.50606479039 217.998874662 5.5 226 5.5 c 0
 367.628820233 5.5 481.5 119.38315218 481.5 260 c 0
 481.5 401.624367268 367.624367268 515.5 226 515.5 c 0
 217.998874662 515.5 210.108945925 515.49393521 202.312676245 514.5194015 c 0
 202.210238725 514.50659681 202.105883667 514.5 202 514.5 c 0
 200.6202125 514.5 199.5 515.6202125 199.5 517 c 2
 199.5 777.5 l 1
 52.5 777.5 l 1
 52.5 6.5 l 1
226 156.5 m 0
 284.646612756 156.5 330.5 202.382255391 330.5 260 c 0
 330.5 318.635839577 284.635839577 364.5 226 364.5 c 0
 218.841640646 364.5 211.677757261 363.678050034 204.5 362.028482329 c 1
 204.5 158.971517671 l 1
 211.677757261 157.321949966 218.841640646 156.5 226 156.5 c 0
199.5 157 m 2
 199.5 364 l 2
 199.5 365.170321463 200.305909623 366.153898009 201.392559781 366.425560548 c 0
 209.581335542 368.472754489 217.787399004 369.5 226 369.5 c 0
 287.364160423 369.5 335.5 321.364160423 335.5 260 c 0
 335.5 199.617744609 287.353387244 151.5 226 151.5 c 0
 217.787399004 151.5 209.581335542 152.527245511 201.392559781 154.574439452 c 0
 200.305909623 154.846101991 199.5 155.829678537 199.5 157 c 2
201.843531345 1.5 m 2
 50 1.5 l 2
 48.6202125 1.5 47.5 2.6202125 47.5 4 c 2
 47.5 780 l 2
 47.5 781.3797875 48.6202125 782.5 50 782.5 c 2
 202 782.5 l 2
 203.3797875 782.5 204.5 781.3797875 204.5 780 c 2
 204.5 519.794370244 l 1
 211.065404475 520.441420675 223.384367249 520.501535191 225.642485183 520.501535191 c 0
 225.876790527 520.501535191 226 520.5 226 520.5 c 2
 370.375632732 520.5 486.5 404.375632732 486.5 260 c 0
 486.5 116.61684782 370.371179767 0.5 226 0.5 c 0
 218.052196235 0.5 209.946710518 1.5 201.843531345 1.5 c 2
EndSplineSet
EndChar

StartChar: c
Encoding: 99 99 66
Width: 384
VWidth: 0
Flags: HW
HStem: 3 151<243.471 334> 367 151<243.471 334>
VStem: 50 151<196.066 324.529>
LayerCount: 2
Fore
SplineSet
52.5 260 m 0
 52.5 119.38315218 166.371179767 5.5 308 5.5 c 0
 315.92026507 5.5 323.758907398 5.86126943482 331.5 6.56824650202 c 1
 331.5 153.989649688 l 1
 323.927281111 152.358280944 316.063955413 151.5 308 151.5 c 0
 246.646612756 151.5 198.5 199.617744609 198.5 260 c 0
 198.5 321.364160423 246.635839577 369.5 308 369.5 c 0
 316.063691158 369.5 323.927032545 368.641760291 331.5 367.007959056 c 1
 331.5 514.431579101 l 1
 323.758922292 515.138717318 315.920280134 515.5 308 515.5 c 0
 166.375632732 515.5 52.5 401.624367268 52.5 260 c 0
308 0.5 m 0
 163.628820233 0.5 47.5 116.61684782 47.5 260 c 0
 47.5 404.375632732 163.624367268 520.5 308 520.5 c 0
 316.85801646 520.5 325.615776804 520.056780668 334.251882377 519.191117959 c 0
 335.513574974 519.06464889 336.5 517.998448525 336.5 516.703674316 c 2
 336.5 363.864593506 l 2
 336.5 362.484806006 335.3797875 361.364593506 334 361.364593506 c 0
 333.793568838 361.364593506 333.592947847 361.389667673 333.401019131 361.436933905 c 0
 325.267502761 363.439972732 316.758154015 364.5 308 364.5 c 0
 249.364160423 364.5 203.5 318.635839577 203.5 260 c 0
 203.5 202.382255391 249.353387244 156.5 308 156.5 c 0
 316.758154152 156.5 325.267848013 157.5600162 333.40197226 159.559791101 c 0
 333.59361201 159.606905744 333.793910529 159.631896973 334 159.631896973 c 0
 335.3797875 159.631896973 336.5 158.511684473 336.5 157.131896973 c 2
 336.5 4.29609966278 l 2
 336.5 3.00130455317 335.513543127 1.93509066609 334.251821276 1.80864989564 c 0
 325.615753423 0.943204732894 316.858013717 0.5 308 0.5 c 0
EndSplineSet
EndChar

StartChar: d
Encoding: 100 100 67
Width: 512
VWidth: 0
Flags: HW
HStem: 3 151<242.454 332> 367 151<243.471 332>
VStem: 50 151<196.066 324.529> 332 152<4 4.10351 154.011 366.989 516.896 780>
LayerCount: 2
Fore
SplineSet
481.5 777.5 m 1
 334.5 777.5 l 1
 334.5 516.89630127 l 2
 334.5 515.51651377 333.3797875 514.39630127 332 514.39630127 c 0
 331.921604925 514.39630127 331.844047795 514.399917479 331.767486464 514.406992046 c 0
 323.939516008 515.130327161 316.011515373 515.5 308 515.5 c 0
 166.375632732 515.5 52.5 401.624367268 52.5 260 c 0
 52.5 119.38315218 166.371179767 5.5 308 5.5 c 0
 316.01152187 5.5 323.939539401 5.86964245491 331.76753666 6.5928213805 c 0
 331.844081695 6.59989288985 331.921622058 6.60350751877 332 6.60350751877 c 0
 332.247922895 6.60350751877 332.487465255 6.56734078654 332.713634403 6.5 c 2
 481.5 6.5 l 1
 481.5 777.5 l 1
332 782.5 m 2
 484 782.5 l 2
 485.3797875 782.5 486.5 781.3797875 486.5 780 c 2
 486.5 4 l 2
 486.5 2.6202125 485.3797875 1.5 484 1.5 c 2
 332 1.5 l 2
 331.83186446 1.5 331.667583326 1.5166339369 331.508713862 1.54834454641 c 0
 323.762880002 0.854446013846 315.921531681 0.500000000397 308 0.5 c 0
 163.628820233 0.5 47.5 116.61684782 47.5 260 c 0
 47.5 404.375632732 163.624367268 520.5 308 520.5 c 0
 315.237489253 520.5 322.408053544 520.204101093 329.5 519.623668052 c 1
 329.5 780 l 2
 329.5 781.3797875 330.6202125 782.5 332 782.5 c 2
308 364.5 m 0
 249.364160423 364.5 203.5 318.635839577 203.5 260 c 0
 203.5 202.382255391 249.353387244 156.5 308 156.5 c 0
 315.367716048 156.5 322.559610999 157.250153637 329.5 158.678885947 c 1
 329.5 362.31902402 l 1
 322.559838833 363.749786952 315.367956338 364.5 308 364.5 c 0
308 151.5 m 0
 246.646612756 151.5 198.5 199.617744609 198.5 260 c 0
 198.5 321.364160423 246.635839577 369.5 308 369.5 c 0
 316.437994069 369.5 324.656608336 368.560234197 332.552701924 366.775440407 c 0
 333.666915994 366.52358899 334.5 365.526741883 334.5 364.336853027 c 2
 334.5 156.660415649 l 2
 334.5 155.470238239 333.666511892 154.473196217 332.551891267 154.221645175 c 0
 324.656317436 152.439747571 316.437992935 151.5 308 151.5 c 0
EndSplineSet
EndChar

StartChar: e
Encoding: 101 101 68
Width: 617
VWidth: 0
Flags: HW
HStem: 3 151<243.073 556.239> 205.32 128.941<230.301 387.264> 367 151<242.682 372.767>
VStem: 50 517<208.188 330.811>
LayerCount: 2
Fore
SplineSet
564.491340827 210.480924143 m 1
 564.382971008 226.497871121 563.5 243.235724644 563.5 260 c 0
 563.5 401.615780347 448.626106441 515.5 308 515.5 c 0
 166.375632732 515.5 52.5 401.624367268 52.5 260 c 0
 52.5 119.38315218 166.371179767 5.5 308 5.5 c 0
 321.267537304 5.5 528.618593603 6.5050082987 554.5 8.27041984548 c 1
 554.5 158.895553335 l 1
 523.006272492 153.862164294 322.107369515 151.5 308 151.5 c 0
 267.535669316 151.5 232.792035316 172.426772598 213.839533818 204.037634136 c 0
 213.614616694 204.41277322 213.485275269 204.851648952 213.485275269 205.320495605 c 0
 213.485275269 206.693796264 214.594979543 207.809956882 215.965832046 207.820421416 c 2
 564.491340827 210.480924143 l 1
568.5 260 m 0
 568.5 242.610174145 569.5 224.662186317 569.5 208 c 0
 569.5 206.626699341 568.390295726 205.510538723 567.019443223 205.500074189 c 2
 220.490510312 202.854812514 l 1
 238.984627359 174.839881314 270.924962341 156.5 308 156.5 c 0
 322.22411511 156.5 544.567459789 159.897254611 556.103791268 164.33430518 c 0
 556.382055418 164.441329853 556.684230203 164.5 557 164.5 c 0
 558.3797875 164.5 559.5 163.3797875 559.5 162 c 2
 559.5 6 l 2
 559.5 4.75029299153 558.581048877 3.71352481188 557.382599092 3.52914792182 c 0
 543.664856922 1.41872604958 322.129983153 0.5 308 0.5 c 0
 163.628820233 0.5 47.5 116.61684782 47.5 260 c 0
 47.5 404.375632732 163.624367268 520.5 308 520.5 c 0
 451.373893559 520.5 568.5 404.384219653 568.5 260 c 0
401.252076523 296.675670732 m 1
 376.555260892 325.070053832 343.165021135 372.599609375 307.8046875 372.599609375 c 0
 273.07279981 372.599609375 240.647630234 326.071447427 216.332281386 299.101850254 c 1
 401.252076523 296.675670732 l 1
307.8046875 377.599609375 m 0
 348.922413716 377.599609375 382.711575636 324.330443495 408.731643018 295.784740285 c 0
 409.136685877 295.340381972 409.383789062 294.74960154 409.383789062 294.1015625 c 0
 409.383789062 292.721775 408.263576562 291.6015625 406.850392773 291.60178147 c 2
 210.647267773 294.17600022 l 2
 209.282846236 294.193901665 208.180664062 295.307142946 208.180664062 296.67578125 c 0
 208.180664062 297.344666731 208.443920827 297.952550505 208.872386309 298.401384523 c 0
 234.705953038 325.463036063 267.328283091 377.599609375 307.8046875 377.599609375 c 0
EndSplineSet
EndChar

StartChar: f
Encoding: 102 102 69
Width: 512
VWidth: 0
Flags: HW
HStem: -3 21G<145 312> 359 152<50 146.882 312 409> 610 151<328.841 458.555>
VStem: 145 167<-3 359 511 589.119>
LayerCount: 2
Fore
SplineSet
393 758.5 m 0
 276.271596988 758.5 181.309661618 681.461676165 150.498175303 573.64242538 c 1
 150.172409244 510.986753344 l 2
 150.165266939 509.613049912 149.047812951 508.5 147.672443674 508.5 c 2
 52.5 508.5 l 1
 52.5 361.5 l 1
 146.882149047 361.5 l 2
 148.261936547 361.5 149.382149047 360.3797875 149.382149047 359 c 2
 147.513032471 -0.5 l 1
 309.5 -0.5 l 1
 309.5 359 l 2
 309.5 360.3797875 310.6202125 361.5 312 361.5 c 2
 406.5 361.5 l 1
 406.5 508.5 l 1
 312 508.5 l 2
 310.6202125 508.5 309.5 509.6202125 309.5 511 c 2
 309.5 573 l 2
 309.5 573.626875759 309.731227218 574.200171679 310.112971519 574.639177625 c 0
 330.554871198 598.147362256 359.26163681 612.5 393 612.5 c 0
 418.720381636 612.5 442.640056399 603.639649701 461.5 589.211531984 c 1
 461.5 750.061364573 l 1
 439.319289358 755.689523969 417.118445932 758.5 393 758.5 c 0
466.5 752 m 2
 466.5 584 l 2
 466.5 582.6202125 465.3797875 581.5 464 581.5 c 0
 463.387450437 581.5 462.826059741 581.72077936 462.391130058 582.087035936 c 0
 443.824079213 597.722447174 419.373275322 607.5 393 607.5 c 0
 361.074021648 607.5 334.013598438 594.135141846 314.5 572.059976851 c 1
 314.5 513.5 l 1
 409 513.5 l 2
 410.3797875 513.5 411.5 512.3797875 411.5 511 c 2
 411.5 359 l 2
 411.5 357.6202125 410.3797875 356.5 409 356.5 c 2
 314.5 356.5 l 1
 314.5 -3 l 2
 314.5 -4.3797875 313.3797875 -5.5 312 -5.5 c 2
 145 -5.5 l 2
 143.6202125 -5.5 142.5 -4.3797875 142.5 -3 c 2
 144.369116576 356.5 l 1
 50 356.5 l 2
 48.6202125 356.5 47.5 357.6202125 47.5 359 c 2
 47.5 511 l 2
 47.5 512.3797875 48.6202125 513.5 50 513.5 c 2
 145.185407497 513.5 l 1
 145.50003443 574.013246656 l 2
 145.50124354 574.24579881 145.534272613 574.470881002 145.59498619 574.684357773 c 0
 176.882137335 684.694018249 273.846297499 763.5 393 763.5 c 0
 418.204473351 763.5 441.435726755 760.470488795 464.631958462 754.419297914 c 0
 465.706190939 754.139063355 466.5 753.161502169 466.5 752 c 2
EndSplineSet
EndChar

StartChar: g
Encoding: 103 103 70
Width: 620
VWidth: 0
Flags: HW
HStem: -205 151<129.297 399.488> 498 20G<307.408 308.151 311.478 383.333>
VStem: 50 151<197.15 323.449> 419 151<-33.1189 25.9655 195.937 324.857>
LayerCount: 2
Fore
SplineSet
286 361.5 m 0
 285.45823071 361.5 284.95648051 361.672704944 284.546848091 361.966016142 c 0
 237.596200662 351.596578131 203.5 310.560745964 203.5 260 c 0
 203.5 210.31937789 237.583858379 169.388510939 284.544071366 159.031992827 c 0
 284.954212129 159.326513382 285.457005954 159.5 286 159.5 c 0
 286.209466037 159.5 286.412949808 159.474183151 286.607440219 159.425560548 c 0
 293.784498249 157.631296041 301.858669283 156.653997299 309.997579864 156.516866278 c 0
 318.083637881 156.659451972 325.860359662 157.705684505 333.401972044 159.559791048 c 0
 333.59361186 159.606905725 333.793910451 159.631896973 334 159.631896973 c 0
 334.603257735 159.631896973 335.156896899 159.417764861 335.588990427 159.061427703 c 0
 382.480498009 169.465857651 416.5 210.366314118 416.5 260 c 0
 416.5 310.511677019 382.469932341 351.516919748 335.589809611 361.935738949 c 0
 335.157596761 361.578996758 334.603639078 361.3645939 334 361.364593506 c 0
 333.793567665 361.364593506 333.592945567 361.389667958 333.401015859 361.436934711 c 0
 325.859970731 363.294076674 317.995828471 364.340568713 309.90981188 364.483183494 c 0
 301.77091386 364.346067625 293.784507331 363.368691418 286.607435545 361.574438283 c 0
 286.412946549 361.525816435 286.209464359 361.5 286 361.5 c 0
419 28.4655418396 m 0
 420.3797875 28.4655418396 421.5 27.3453293396 421.5 25.9655418396 c 2
 421.5 -17 l 2
 421.5 -17.6268757587 421.268772782 -18.2001716787 420.887028481 -18.6391776247 c 0
 400.179757938 -42.4525387492 358.587440904 -56.5 325 -56.5 c 0
 299.221362612 -56.5 154.608372274 -48.1827884201 122.5 -32.4629820892 c 1
 122.5 -194.000391948 l 1
 150.368438498 -199.493622184 300.839501672 -202.5 325 -202.5 c 0
 441.706478734 -202.5 533.688829988 -125.498591327 564.503770543 -17.635646913 c 1
 567.419397621 253.516055893 l 2
 567.472588538 255.658984964 567.5 257.844229393 567.5 260 c 0
 567.5 260.330180104 567.5 260.660360207 567.5 260.990540311 c 0
 566.970476211 402.154902924 453.294158171 515.5 312 515.5 c 0
 310.665177766 515.5 309.330355533 515.5 307.995533299 515.5 c 0
 301.88197963 515.5 296.288078539 515.391823738 290.334552051 514.905707438 c 0
 157.042752966 505.882505054 52.5 395.674820095 52.5 260 c 0
 52.5 124.833845135 126.778288443 15.3862799554 259.169699584 6.4943195057 c 0
 262.89888517 6.24385181709 289.364930576 5.57362195328 300.357037054 5.54070290056 c 2
 304.461841998 5.5236140203 l 2
 305.631362703 5.50802467398 306.826388686 5.5 308 5.5 c 0
 309.333761721 5.5 310.667523442 5.5 312.001285164 5.5 c 0
 349.856613974 5.5 385.726841457 13.6366625181 417.970415207 28.2440399043 c 0
 418.28445868 28.3863117123 418.63304976 28.4655418396 419 28.4655418396 c 0
325 -207.5 m 0
 299.768873021 -207.5 143.289538969 -204.659688549 119.368041538 -198.419297914 c 0
 118.293809061 -198.139063355 117.5 -197.161502169 117.5 -196 c 2
 117.5 -28 l 2
 117.5 -26.6202125 118.6202125 -25.5 120 -25.5 c 0
 120.612549563 -25.5 121.173940259 -25.7207793604 121.608869942 -26.0870359358 c 0
 138.98322011 -40.7180676564 298.138824246 -51.5 325 -51.5 c 0
 357.073157782 -51.5 396.974877557 -37.8381335499 416.5 -16.0550754599 c 1
 416.5 22.1196100711 l 1
 384.545340109 8.2130973799 349.209160057 0.500000323957 311.998714836 0.500000323957 c 0
 310.665809891 0.500000323957 309.332904945 0.500000323957 308 0.500000323957 c 0
 306.803738268 0.500000323957 305.632736419 0.507767695859 304.440623822 0.523658185058 c 2
 300.341794311 0.540725690695 l 2
 289.520417617 0.573133443529 264.080874614 0.548528044742 258.681220738 1.51573713153 c 0
 123.166216967 10.6961745378 47.500000097 123.14604955 47.5 260 c 0
 47.5 398.307845921 154.034700648 510.690004712 289.922894239 519.888970296 c 0
 296.102408129 520.393538879 301.747015487 520.499996086 308.004466701 520.499996086 c 0
 309.336311134 520.499996086 310.668155567 520.499996086 312 520.499996086 c 0
 456.038849641 520.499996086 571.958278205 404.916569244 572.498090354 261.009459689 c 0
 572.498090354 260.672973126 572.498090354 260.336486563 572.498090354 260 c 0
 572.498090354 257.802010841 572.473334314 255.646129782 572.419103355 253.461300065 c 2
 569.499852867 -18.0273779144 l 2
 569.497406183 -18.2549182303 569.46449681 -18.4752078704 569.40501381 -18.6843577727 c 0
 538.129318535 -128.653737934 444.178140078 -207.5 325 -207.5 c 0
334 367.328063965 m 0
 334.169513397 367.328063965 334.335108955 367.311156284 334.495190812 367.278936784 c 0
 384.745084362 357.165195958 421.5 313.617356979 421.5 260 c 0
 421.5 207.238882135 384.733230882 163.816243226 334.494529524 153.71894657 c 0
 334.334652926 153.686813546 334.169279991 153.669952393 334 153.669952393 c 0
 333.419144859 153.669952393 332.884291444 153.86847578 332.459647462 154.201314848 c 0
 325.203843242 152.573140587 317.617326271 151.653462872 309.911843964 151.517588068 c 0
 302.164048673 151.648129259 294.470140735 152.502285811 287.398258828 154.097759044 c 0
 286.999054076 153.827716482 286.517805542 153.669952393 286 153.669952393 c 0
 285.83072006 153.669952393 285.665347175 153.686813535 285.505470622 153.718946541 c 0
 235.266753727 163.816243181 198.5 207.238882566 198.5 260 c 0
 198.5 313.61735655 235.254900248 357.165196004 285.504809334 367.278936814 c 0
 285.664891146 367.311156294 285.830486655 367.328063965 286 367.328063965 c 0
 286.517058186 367.328063965 286.997664713 367.170754506 287.396529627 366.901425544 c 0
 294.482100115 368.497408337 302.250428536 369.351843352 309.999550912 369.482392678 c 0
 317.703980679 369.346508024 325.217094914 368.426879232 332.459377526 366.796489992 c 0
 332.884064775 367.129456534 333.419021787 367.328063965 334 367.328063965 c 0
EndSplineSet
EndChar

StartChar: h
Encoding: 104 104 71
Width: 597
VWidth: 0
Flags: HW
HStem: 373 151<233.435 363.159>
VStem: 50 169<6 355.866 512 768> 380 167<6 352.119>
LayerCount: 2
Fore
SplineSet
216.5 765.5 m 1
 52.5 765.5 l 1
 52.5 8.5 l 1
 216.5 8.5 l 1
 216.5 338 l 2
 216.5 338.646835892 216.746186494 339.236625591 217.149891672 339.680701287 c 0
 237.614484713 362.191753632 266.302758521 375.5 299 375.5 c 0
 332.73836319 375.5 361.445128802 361.147362256 381.887028481 337.639177625 c 0
 382.268772782 337.200171679 382.5 336.626875759 382.5 336 c 2
 382.5 8.5 l 1
 544.477236755 8.5 l 1
 541.503179183 336.637685433 l 1
 510.693121509 444.45941832 415.730113542 521.5 299 521.5 c 0
 271.243924276 521.5 245.512140554 517.541401732 219.73525516 509.61005238 c 0
 219.502751819 509.53851289 219.255838002 509.5 219 509.5 c 0
 217.6202125 509.5 216.5 510.6202125 216.5 512 c 2
 216.5 765.5 l 1
50 770.5 m 2
 219 770.5 l 2
 220.3797875 770.5 221.5 769.3797875 221.5 768 c 2
 221.5 515.364869481 l 1
 246.651504033 522.784130584 271.917469024 526.5 299 526.5 c 0
 418.153702501 526.5 515.117862665 447.694018249 546.40501381 337.684357773 c 0
 546.464871139 337.473891681 546.49781933 337.252145205 546.499895438 337.023081291 c 2
 549.499895438 6.02308129143 l 2
 549.499895438 4.6202125 548.3797875 3.5 547 3.5 c 2
 380 3.5 l 2
 378.6202125 3.5 377.5 4.6202125 377.5 6 c 2
 377.5 335.059976851 l 1
 357.986401562 357.135141846 330.925978352 370.5 299 370.5 c 0
 268.042845491 370.5 240.989082315 358.086950686 221.5 337.027834767 c 1
 221.5 6 l 2
 221.5 4.6202125 220.3797875 3.5 219 3.5 c 2
 50 3.5 l 2
 48.6202125 3.5 47.5 4.6202125 47.5 6 c 2
 47.5 768 l 2
 47.5 769.3797875 48.6202125 770.5 50 770.5 c 2
EndSplineSet
EndChar

StartChar: i
Encoding: 105 105 72
Width: 252
VWidth: 0
Flags: HW
HStem: -2 21G<50 202> 492 20G<50 202> 630 142<50 202>
VStem: 50 152<-2 512 630 772>
LayerCount: 2
Fore
SplineSet
199.5 509.5 m 1
 52.5 509.5 l 1
 52.5 0.5 l 1
 199.5 0.5 l 1
 199.5 509.5 l 1
50 514.5 m 2
 202 514.5 l 2
 203.3797875 514.5 204.5 513.3797875 204.5 512 c 2
 204.5 -2 l 2
 204.5 -3.3797875 203.3797875 -4.5 202 -4.5 c 2
 50 -4.5 l 2
 48.6202125 -4.5 47.5 -3.3797875 47.5 -2 c 2
 47.5 512 l 2
 47.5 513.3797875 48.6202125 514.5 50 514.5 c 2
199.5 769.5 m 1
 52.5 769.5 l 1
 52.5 632.5 l 1
 199.5 632.5 l 1
 199.5 769.5 l 1
50 774.5 m 2
 202 774.5 l 2
 203.3797875 774.5 204.5 773.3797875 204.5 772 c 2
 204.5 630 l 2
 204.5 628.6202125 203.3797875 627.5 202 627.5 c 2
 50 627.5 l 2
 48.6202125 627.5 47.5 628.6202125 47.5 630 c 2
 47.5 772 l 2
 47.5 773.3797875 48.6202125 774.5 50 774.5 c 2
EndSplineSet
EndChar

StartChar: j
Encoding: 106 106 73
Width: 419
VWidth: 0
Flags: HW
HStem: -204 151<55.4451 185.159> 497 20G<202 369> 630 142<214 366>
VStem: 202 164<-32.1189 517> 214 152<630 772>
LayerCount: 2
Fore
SplineSet
121 -201.5 m 0
 237.728588425 -201.5 332.690640059 -124.461431428 363.50197152 -16.6419115961 c 1
 366.485914844 514.5 l 1
 204.5 514.5 l 1
 204.5 -16 l 2
 204.5 -16.6268757587 204.268772782 -17.2001716787 203.887028481 -17.6391776247 c 0
 183.445128802 -41.1473622556 154.73836319 -55.5 121 -55.5 c 0
 95.2796183641 -55.5 71.3599436005 -46.6396497011 52.5 -32.2115319844 c 1
 52.5 -193.061364573 l 1
 74.6807106417 -198.689523969 96.8815540676 -201.5 121 -201.5 c 0
47.5 -195 m 2
 47.5 -27 l 2
 47.5 -25.6202125 48.6202125 -24.5 50 -24.5 c 0
 50.612549563 -24.5 51.1739402589 -24.7207793604 51.6088699422 -25.0870359358 c 0
 70.1759207872 -40.7224471737 94.6267246781 -50.5 121 -50.5 c 0
 152.925978352 -50.5 179.986401562 -37.1351418464 199.5 -15.0599768507 c 1
 199.5 517 l 2
 199.5 518.3797875 200.6202125 519.5 202 519.5 c 2
 369 519.5 l 2
 370.3797875 519.5 371.5 518.3797875 371.5 517 c 2
 368.499959804 -17.0143126488 l 2
 368.498655456 -17.2464866503 368.465634614 -17.4712072019 368.40501381 -17.6843577727 c 0
 337.117862665 -127.694018249 240.153702501 -206.5 121 -206.5 c 0
 95.7955266489 -206.5 72.5642732454 -203.470488795 49.3680415379 -197.419297914 c 0
 48.2938090612 -197.139063355 47.5 -196.161502169 47.5 -195 c 2
363.5 769.5 m 1
 216.5 769.5 l 1
 216.5 632.5 l 1
 363.5 632.5 l 1
 363.5 769.5 l 1
214 774.5 m 2
 366 774.5 l 2
 367.3797875 774.5 368.5 773.3797875 368.5 772 c 2
 368.5 630 l 2
 368.5 628.6202125 367.3797875 627.5 366 627.5 c 2
 214 627.5 l 2
 212.6202125 627.5 211.5 628.6202125 211.5 630 c 2
 211.5 772 l 2
 211.5 773.3797875 212.6202125 774.5 214 774.5 c 2
EndSplineSet
EndChar

StartChar: k
Encoding: 107 107 74
Width: 753
VWidth: 0
Flags: HW
HStem: -2 20G<61 202 463 630.185> 754 20G<61 202>
VStem: 61 141<-2 154 317 774>
LayerCount: 2
Fore
SplineSet
199.5 749.5 m 1
 63.5 749.5 l 1
 63.5 0.5 l 1
 199.5 0.5 l 1
 199.5 154 l 2
 199.5 154.58523083 199.70152568 155.123764244 200.038907309 155.549930512 c 2
 257.038907309 227.549930512 l 2
 257.496963874 228.128528279 258.20544333 228.5 259 228.5 c 0
 259.740111146 228.5 260.405537472 228.177692886 260.863455612 227.665902024 c 2
 464.122524276 0.494001751793 l 1
 643.186887249 -0.468709877093 l 1
 377.179079721 282.287737384 l 2
 376.758084071 282.735240167 376.5 283.337718537 376.5 284 c 0
 376.5 284.750857572 376.831734876 285.424845729 377.356511053 285.883270895 c 2
 633.416756907 509.568083366 l 1
 447.868468705 511.490863555 l 1
 203.564840805 315.050803569 l 2
 203.136357931 314.70626836 202.592077159 314.5 202 314.5 c 0
 200.6202125 314.5 199.5 315.6202125 199.5 317 c 2
 199.5 749.5 l 1
61 754.5 m 2
 202 754.5 l 2
 203.3797875 754.5 204.5 753.3797875 204.5 752 c 2
 204.5 322.217660262 l 1
 445.435159195 515.949196431 l 2
 445.863642069 516.29373164 446.407922841 516.5 447.026385988 516.49986334 c 2
 640.026385988 514.49986334 l 2
 641.394040545 514.485690754 642.5 513.370981523 642.5 512 c 0
 642.5 511.249142428 642.168265124 510.575154271 641.643488947 510.116729105 c 2
 382.597573783 283.823745743 l 1
 650.820920279 -1.28773738389 l 2
 651.241915929 -1.73524016715 651.5 -2.33771853685 651.5 -3 c 0
 651.5 -4.3797875 650.3797875 -5.5 649 -5.5 c 2
 462.98630257 -4.49996318645 l 2
 462.251681479 -4.49601361069 461.591635824 -4.17453362855 461.136544388 -3.66590202373 c 2
 259.116982502 222.120667143 l 1
 204.5 153.13079451 l 1
 204.5 -2 l 2
 204.5 -3.3797875 203.3797875 -4.5 202 -4.5 c 2
 61 -4.5 l 2
 59.6202125 -4.5 58.5 -3.3797875 58.5 -2 c 2
 58.5 752 l 2
 58.5 753.3797875 59.6202125 754.5 61 754.5 c 2
EndSplineSet
EndChar

StartChar: l
Encoding: 108 108 75
Width: 419
VWidth: 0
Flags: HW
HStem: -3 151<233.008 363.885> 741 20G<50 217>
VStem: 53 164<166.215 761>
LayerCount: 2
Fore
SplineSet
298 -0.5 m 0
 321.785586538 -0.5 344.614358683 2.31231774081 366.5 7.93220660482 c 1
 366.5 168.782932454 l 1
 346.382506143 153.289133273 323.48361502 145.5 298 145.5 c 0
 264.658731686 145.499999999 236.888526839 158.182822689 215.108547578 183.365923711 c 0
 214.729441524 183.804265085 214.5 184.375549513 214.5 185 c 2
 214.5 758.5 l 1
 52.5130327104 758.5 l 1
 55.4981466677 184.363082201 l 1
 71.3878466099 129.649721479 101.362491926 85.2559687006 145.530878158 50.9760271475 c 0
 189.767173628 16.6433799162 240.516909638 -0.5 298 -0.5 c 0
298 -5.5 m 0
 239.483090362 -5.5 187.566159704 12.0232867506 142.469121842 47.0239728525 c 0
 97.393408934 82.0081082441 66.7332120966 127.504191563 50.5979876107 183.305176244 c 0
 50.5353616185 183.521757801 50.501263317 183.750397408 50.5000344299 183.986753344 c 2
 47.5000344299 760.986753344 l 2
 47.5000344299 762.3797875 48.6202125 763.5 50 763.5 c 2
 217 763.5 l 2
 218.3797875 763.5 219.5 762.3797875 219.5 761 c 2
 219.5 185.93560855 l 1
 240.286902527 162.252772786 266.317870064 150.5 298 150.5 c 0
 324.099739955 150.5 347.151382245 158.937698206 367.394963371 175.916185604 c 0
 367.829355967 176.280514878 368.3892485 176.5 369 176.5 c 0
 370.3797875 176.5 371.5 175.3797875 371.5 174 c 2
 371.5 6 l 2
 371.5 4.84160181327 370.710427998 3.86616279947 369.640564735 3.5829637005 c 0
 346.758452222 -2.47406608235 322.873303681 -5.5 298 -5.5 c 0
EndSplineSet
EndChar

StartChar: m
Encoding: 109 109 76
Width: 924
VWidth: 0
Flags: HW
HStem: 373 151<232.824 364.747 559.824 690.715>
VStem: 50 169<6 356.608 512 522> 380 166<6 355.109> 707 167<6 352.119>
LayerCount: 2
Fore
SplineSet
216.5 519.5 m 1
 52.5 519.5 l 1
 52.5 8.5 l 1
 216.5 8.5 l 1
 216.5 338 l 2
 216.5 338.646835892 216.746186494 339.236625591 217.149891672 339.680701287 c 0
 237.614484713 362.191753632 266.302758521 375.5 299 375.5 c 0
 332.73836319 375.5 361.445128802 361.147362256 381.887028481 337.639177625 c 0
 382.268772782 337.200171679 382.5 336.626875759 382.5 336 c 2
 382.5 323.25 l 1
 379.523753653 8.5 l 1
 544.477236755 8.5 l 1
 543.500104562 116.310252042 l 1
 543.500104562 338 l 2
 543.500104562 338.646835892 543.746186494 339.236625591 544.149891672 339.680701287 c 0
 564.614484713 362.191753632 593.302758521 375.5 626 375.5 c 0
 659.73836319 375.5 688.445128802 361.147362256 708.887028481 337.639177625 c 0
 709.268772782 337.200171679 709.5 336.626875759 709.5 336 c 2
 709.5 8.5 l 1
 871.477236755 8.5 l 1
 868.503179183 336.637685433 l 1
 837.693121509 444.45941832 742.730113542 521.5 626 521.5 c 0
 598.315283419 521.5 572.644463563 517.561730186 546.934066605 509.67114662 c 1
 459.553669224 465.716158847 l 2
 459.216431543 465.546518074 458.835620242 465.450979903 458.432670891 465.450979903 c 0
 457.835775959 465.450979903 457.287458423 465.660618761 456.857393338 466.010221422 c 0
 413.990535164 500.856964935 359.422885728 521.5 299 521.5 c 0
 271.243924276 521.5 245.512140554 517.541401732 219.73525516 509.61005238 c 0
 219.502751819 509.53851289 219.255838002 509.5 219 509.5 c 0
 217.6202125 509.5 216.5 510.6202125 216.5 512 c 2
 216.5 519.5 l 1
50 524.5 m 2
 219 524.5 l 2
 220.3797875 524.5 221.5 523.3797875 221.5 522 c 2
 221.5 515.364869481 l 1
 246.651504033 522.784130584 271.917469024 526.5 299 526.5 c 0
 359.997619004 526.5 415.202646804 505.84841043 458.748749096 470.908694005 c 1
 544.879001667 514.234821056 l 2
 545.002122576 514.296754604 545.131051331 514.348811156 545.26474484 514.38994762 c 0
 571.487859446 522.458598268 597.756075724 526.5 626 526.5 c 0
 745.153702501 526.5 842.117862665 447.694018249 873.40501381 337.684357773 c 0
 873.464871139 337.473891681 873.49781933 337.252145205 873.499895438 337.023081291 c 2
 876.499895438 6.02308129143 l 2
 876.499895438 4.6202125 875.3797875 3.5 874 3.5 c 2
 707 3.5 l 2
 705.6202125 3.5 704.5 4.6202125 704.5 6 c 2
 704.5 335.059976851 l 1
 684.986401562 357.135141846 657.925978352 370.5 626 370.5 c 0
 595.042845248 370.5 567.98908189 358.086950491 548.499999541 337.027834272 c 1
 548.499999541 263.470694389 548.499895438 189.913554507 548.499895438 116.356414624 c 2
 549.499895438 6.02308129143 l 2
 549.499895438 4.6202125 548.3797875 3.5 547 3.5 c 2
 377 3.5 l 2
 375.6202125 3.5 374.5 4.6202125 374.5 6 c 2
 377.5 323.25 l 1
 377.5 335.059976851 l 1
 357.986401562 357.135141846 330.925978352 370.5 299 370.5 c 0
 268.042845491 370.5 240.989082315 358.086950686 221.5 337.027834767 c 1
 221.5 6 l 2
 221.5 4.6202125 220.3797875 3.5 219 3.5 c 2
 50 3.5 l 2
 48.6202125 3.5 47.5 4.6202125 47.5 6 c 2
 47.5 522 l 2
 47.5 523.3797875 48.6202125 524.5 50 524.5 c 2
EndSplineSet
EndChar

StartChar: n
Encoding: 110 110 77
Width: 597
VWidth: 0
Flags: HW
HStem: 373 151<232.824 363.715>
VStem: 50 169<6 356.608 512 522> 380 167<6 352.119>
LayerCount: 2
Fore
SplineSet
216.5 519.5 m 1
 52.5 519.5 l 1
 52.5 8.5 l 1
 216.5 8.5 l 1
 216.5 338 l 2
 216.5 338.646835892 216.746186494 339.236625591 217.149891672 339.680701287 c 0
 237.614484713 362.191753632 266.302758521 375.5 299 375.5 c 0
 332.73836319 375.5 361.445128802 361.147362256 381.887028481 337.639177625 c 0
 382.268772782 337.200171679 382.5 336.626875759 382.5 336 c 2
 382.5 8.5 l 1
 544.477236755 8.5 l 1
 541.503179183 336.637685433 l 1
 510.693121509 444.45941832 415.730113542 521.5 299 521.5 c 0
 271.243924276 521.5 245.512140554 517.541401732 219.73525516 509.61005238 c 0
 219.502751819 509.53851289 219.255838002 509.5 219 509.5 c 0
 217.6202125 509.5 216.5 510.6202125 216.5 512 c 2
 216.5 519.5 l 1
50 524.5 m 2
 219 524.5 l 2
 220.3797875 524.5 221.5 523.3797875 221.5 522 c 2
 221.5 515.364869481 l 1
 246.651504033 522.784130584 271.917469024 526.5 299 526.5 c 0
 418.153702501 526.5 515.117862665 447.694018249 546.40501381 337.684357773 c 0
 546.464871139 337.473891681 546.49781933 337.252145205 546.499895438 337.023081291 c 2
 546.499895438 337.023081291 549.499895438 6.02308129143 549.5 6 c 0
 549.5 4.6202125 548.3797875 3.5 547 3.5 c 2
 380 3.5 l 2
 378.6202125 3.5 377.5 4.6202125 377.5 6 c 2
 377.5 335.059976851 l 1
 357.986401562 357.135141846 330.925978352 370.5 299 370.5 c 0
 268.042845491 370.5 240.989082315 358.086950686 221.5 337.027834767 c 1
 221.5 6 l 2
 221.5 4.6202125 220.3797875 3.5 219 3.5 c 2
 50 3.5 l 2
 48.6202125 3.5 47.5 4.6202125 47.5 6 c 2
 47.5 522 l 2
 47.5 523.3797875 48.6202125 524.5 50 524.5 c 2
EndSplineSet
EndChar

StartChar: o
Encoding: 111 111 78
Width: 616
VWidth: 0
Flags: HW
HStem: 3 21G<307.408 308.151 311.478 383.5> 498 20G<307.408 308.151 311.478 383.5>
VStem: 50 151<197.14 323.449> 419 151<195.844 324.753>
LayerCount: 2
Fore
SplineSet
567.5 260 m 0
 567.5 401.624367268 453.624367268 515.5 312 515.5 c 0
 310.665177766 515.5 309.330355533 515.5 307.995533299 515.5 c 0
 301.88197963 515.5 296.288078539 515.391823738 290.334552051 514.905707438 c 0
 157.042752966 505.882505054 52.5 395.674820095 52.5 260 c 0
 52.5 125.28890219 157.006066748 15.1157398822 290.305007921 6.09646829695 c 0
 296.264842898 5.61002394769 301.879316942 5.5 308 5.5 c 0
 309.333761721 5.5 310.667523442 5.5 312.001285164 5.5 c 0
 453.630105396 5.5 567.5 119.38315218 567.5 260 c 0
47.5 260 m 0
 47.5 398.307845921 154.034700648 510.690004712 289.922894239 519.888970296 c 0
 296.102408129 520.393538879 301.747015487 520.499996086 308.004466701 520.499996086 c 0
 309.336311134 520.499996086 310.668155567 520.499996086 312 520.499996086 c 0
 456.375632732 520.499996086 572.5 404.375632732 572.5 260 c 0
 572.5 116.61684782 456.369894604 0.500000323957 311.998714836 0.500000323957 c 0
 310.665809891 0.500000323957 309.332904945 0.500000323957 308 0.500000323957 c 0
 301.753145432 0.500000323957 296.13243973 0.604454466428 289.963119521 1.10799709231 c 0
 154.076971582 10.3023242352 47.5 122.640815828 47.5 260 c 0
286 361.5 m 0
 285.45823071 361.5 284.95648051 361.672704944 284.546848091 361.966016142 c 0
 237.596200662 351.596578131 203.5 310.560745964 203.5 260 c 0
 203.5 210.31937789 237.583858379 169.388510939 284.544071366 159.031992827 c 0
 284.954212129 159.326513382 285.457005954 159.5 286 159.5 c 0
 286.209466037 159.5 286.412949808 159.474183151 286.607440219 159.425560548 c 0
 293.784498249 157.631296041 301.858669283 156.653997299 309.997579864 156.516866278 c 0
 318.083637881 156.659451972 325.860359662 157.705684505 333.401972044 159.559791048 c 0
 333.59361186 159.606905725 333.793910451 159.631896973 334 159.631896973 c 0
 334.603257735 159.631896973 335.156896899 159.417764861 335.588990427 159.061427703 c 0
 382.480498009 169.465857651 416.5 210.366314118 416.5 260 c 0
 416.5 310.511677019 382.469932341 351.516919748 335.589809611 361.935738949 c 0
 335.157596761 361.578996758 334.603639078 361.3645939 334 361.364593506 c 0
 333.793567665 361.364593506 333.592945567 361.389667958 333.401015859 361.436934711 c 0
 325.859970731 363.294076674 317.995828471 364.340568713 309.90981188 364.483183494 c 0
 301.77091386 364.346067625 293.784507331 363.368691418 286.607435545 361.574438283 c 0
 286.412946549 361.525816435 286.209464359 361.5 286 361.5 c 0
334 367.328063965 m 0
 334.169513397 367.328063965 334.335108955 367.311156284 334.495190812 367.278936784 c 0
 384.745084362 357.165195958 421.5 313.617356979 421.5 260 c 0
 421.5 207.238882135 384.733230882 163.816243226 334.494529524 153.71894657 c 0
 334.334652926 153.686813546 334.169279991 153.669952393 334 153.669952393 c 0
 333.419144859 153.669952393 332.884291444 153.86847578 332.459647462 154.201314848 c 0
 325.203843242 152.573140587 317.617326271 151.653462872 309.911843964 151.517588068 c 0
 302.164048673 151.648129259 294.470140735 152.502285811 287.398258828 154.097759044 c 0
 286.999054076 153.827716482 286.517805542 153.669952393 286 153.669952393 c 0
 285.83072006 153.669952393 285.665347175 153.686813535 285.505470622 153.718946541 c 0
 235.266753727 163.816243181 198.5 207.238882566 198.5 260 c 0
 198.5 313.61735655 235.254900248 357.165196004 285.504809334 367.278936814 c 0
 285.664891146 367.311156294 285.830486655 367.328063965 286 367.328063965 c 0
 286.517058186 367.328063965 286.997664713 367.170754506 287.396529627 366.901425544 c 0
 294.482100115 368.497408337 302.250428536 369.351843352 309.999550912 369.482392678 c 0
 317.703980679 369.346508024 325.217094914 368.426879232 332.459377526 366.796489992 c 0
 332.884064775 367.129456534 333.419021787 367.328063965 334 367.328063965 c 0
EndSplineSet
EndChar

StartChar: p
Encoding: 112 112 79
Width: 512
VWidth: 0
Flags: HW
HStem: -202 21G<50 202> -5 151<202 290.529> 359 150<202.375 290.409>
VStem: 50 152<-202 -4 146.026 358.974> 333 151<188.471 316.934>
LayerCount: 2
Fore
SplineSet
52.5 -199.5 m 1
 199.5 -199.5 l 1
 199.5 -4 l 2
 199.5 -2.6202125 200.6202125 -1.5 202 -1.5 c 0
 202.105883667 -1.5 202.210238725 -1.50659680961 202.312676245 -1.5194014996 c 0
 210.108945925 -2.49393520961 217.998874662 -2.5 226 -2.5 c 0
 367.624367268 -2.5 481.5 111.375632732 481.5 253 c 0
 481.5 393.61684782 367.628820233 507.5 226 507.5 c 0
 217.998874662 507.5 210.108945925 507.49393521 202.312676245 506.5194015 c 0
 202.210238725 506.50659681 202.105883667 506.5 202 506.5 c 2
 52.5 506.5 l 1
 52.5 -199.5 l 1
202 -204.5 m 2
 50 -204.5 l 2
 48.6202125 -204.5 47.5 -203.3797875 47.5 -202 c 2
 47.5 509 l 2
 47.5 510.3797875 48.6202125 511.5 50 511.5 c 2
 201.843496769 511.5 l 2
 209.205546874 512.408940242 222.941539605 512.502806943 225.565560466 512.502806943 c 0
 225.850959908 512.502806943 226 512.5 226 512.5 c 2
 370.371179767 512.5 486.5 396.38315218 486.5 253 c 0
 486.5 108.624367268 370.375632732 -7.5 226 -7.5 c 0
 218.920748106 -7.5 211.716394732 -6.79332343387 204.5 -6.79332343387 c 1
 204.5 -202 l 2
 204.5 -203.3797875 203.3797875 -204.5 202 -204.5 c 2
226 148.5 m 0
 284.635839577 148.5 330.5 194.364160423 330.5 253 c 0
 330.5 310.617744609 284.646612756 356.5 226 356.5 c 0
 218.841640646 356.5 211.677757261 355.678050034 204.5 354.028482329 c 1
 204.5 150.971517671 l 1
 211.677757261 149.321949966 218.841640646 148.5 226 148.5 c 0
226 361.5 m 0
 287.353387244 361.5 335.5 313.382255391 335.5 253 c 0
 335.5 191.635839577 287.364160423 143.5 226 143.5 c 0
 217.787399004 143.5 209.581335542 144.527245511 201.392559781 146.574439452 c 0
 200.305909623 146.846101991 199.5 147.829678537 199.5 149 c 2
 199.5 356 l 2
 199.5 357.170321463 200.305909623 358.153898009 201.392559781 358.425560548 c 0
 209.581335542 360.472754489 217.787399004 361.5 226 361.5 c 0
EndSplineSet
EndChar

StartChar: q
Encoding: 113 113 80
Width: 512
VWidth: 0
Flags: HW
HStem: -202 21G<332 484> -5 151<243.471 332> 359 151<243.591 331.625>
VStem: 50 151<188.471 316.934> 332 152<-202 -4 146.026 358.974>
LayerCount: 2
Fore
SplineSet
481.5 506.5 m 1
 332 506.5 l 2
 331.894116333 506.5 331.789761275 506.50659681 331.687323755 506.5194015 c 0
 323.891054075 507.49393521 316.001125338 507.5 308 507.5 c 0
 166.371179767 507.5 52.5 393.61684782 52.5 253 c 0
 52.5 111.375632732 166.375632732 -2.5 308 -2.5 c 0
 316.001125338 -2.5 323.891054075 -2.49393520961 331.687323755 -1.5194014996 c 0
 331.789761275 -1.50659680961 331.894116333 -1.5 332 -1.5 c 0
 333.3797875 -1.5 334.5 -2.6202125 334.5 -4 c 2
 334.5 -199.5 l 1
 481.5 -199.5 l 1
 481.5 506.5 l 1
308 356.5 m 0
 249.353387244 356.5 203.5 310.617744609 203.5 253 c 0
 203.5 194.364160423 249.364160423 148.5 308 148.5 c 0
 315.158359354 148.5 322.322242739 149.321949966 329.5 150.971517671 c 1
 329.5 354.028482329 l 1
 322.322242739 355.678050034 315.158359354 356.5 308 356.5 c 0
334.5 356 m 2
 334.5 149 l 2
 334.5 147.829678537 333.694090377 146.846101991 332.607440219 146.574439452 c 0
 324.418664458 144.527245511 316.212600996 143.5 308 143.5 c 0
 246.635839577 143.5 198.5 191.635839577 198.5 253 c 0
 198.5 313.382255391 246.646612756 361.5 308 361.5 c 0
 316.212600996 361.5 324.418664458 360.472754489 332.607440219 358.425560548 c 0
 333.694090377 358.153898009 334.5 357.170321463 334.5 356 c 2
332.156468655 511.5 m 2
 484 511.5 l 2
 485.3797875 511.5 486.5 510.3797875 486.5 509 c 2
 486.5 -202 l 2
 486.5 -203.3797875 485.3797875 -204.5 484 -204.5 c 2
 332 -204.5 l 2
 330.6202125 -204.5 329.5 -203.3797875 329.5 -202 c 2
 329.5 -6.79437024371 l 1
 322.474242376 -7.4867905683 315.635159221 -7.50002088695 308.813112924 -7.50002088695 c 0
 308.542051933 -7.50002088695 308.271017839 -7.5 308 -7.5 c 0
 163.624367268 -7.5 47.5 108.624367268 47.5 253 c 0
 47.5 396.38315218 163.628820233 512.5 308 512.5 c 0
 315.947803765 512.5 324.053289482 511.5 332.156468655 511.5 c 2
EndSplineSet
EndChar

StartChar: r
Encoding: 114 114 81
Width: 587
VWidth: 0
Flags: HW
HStem: 373 151<232.824 364.013>
VStem: 50 169<6 356.608 512 522>
LayerCount: 2
Fore
SplineSet
216.5 519.5 m 1
 52.5 519.5 l 1
 52.5 8.5 l 1
 216.5 8.5 l 1
 216.5 338 l 2
 216.5 338.646835892 216.746186494 339.236625591 217.149891672 339.680701287 c 0
 237.614484713 362.191753632 266.302758521 375.5 299 375.5 c 0
 327.715905486 375.5 352.799356107 365.104608133 372.234463389 347.5 c 1
 533.359251179 347.5 l 1
 495.851491184 443.217517476 406.720963578 521.5 299 521.5 c 0
 271.243924276 521.5 245.512140554 517.541401732 219.73525516 509.61005238 c 0
 219.502751819 509.53851289 219.255838002 509.5 219 509.5 c 0
 217.6202125 509.5 216.5 510.6202125 216.5 512 c 2
 216.5 519.5 l 1
50 524.5 m 2
 219 524.5 l 2
 220.3797875 524.5 221.5 523.3797875 221.5 522 c 2
 221.5 515.364869481 l 1
 246.651504033 522.784130584 271.917469024 526.5 299 526.5 c 0
 410.559792567 526.5 502.056053328 444.63333381 539.339756971 345.881902539 c 0
 539.443320637 345.607598776 539.5 345.310366243 539.5 345 c 0
 539.5 343.6202125 538.3797875 342.5 537 342.5 c 2
 373.717080591 342.5 l 2
 373.269088784 342.076317862 372.664661213 341.816375732 372 341.816375732 c 0
 371.338759562 341.816375732 370.73713436 342.073649088 370.289848791 342.4934714 c 0
 351.540122913 360.091967365 327.17081942 370.5 299 370.5 c 0
 268.042845491 370.5 240.989082315 358.086950686 221.5 337.027834767 c 1
 221.5 6 l 2
 221.5 4.6202125 220.3797875 3.5 219 3.5 c 2
 50 3.5 l 2
 48.6202125 3.5 47.5 4.6202125 47.5 6 c 2
 47.5 522 l 2
 47.5 523.3797875 48.6202125 524.5 50 524.5 c 2
EndSplineSet
EndChar

StartChar: s
Encoding: 115 115 82
Width: 508
VWidth: 0
Flags: HW
LayerCount: 2
Fore
SplineSet
242.37504 5.24131045199 m 0
 321.586435312 5.24131045199 393.272637736 30.7283752901 430.676816056 76.5786583911 c 0
 448.520779642 97.4748789068 456.158445187 116.559258527 456.158445187 134.040839914 c 0
 456.158445187 190.088792966 376.847966272 234.353887323 285.909266044 272.584299117 c 1
 250.12316187 278.743774977 232.565549029 283.461278787 232.565549029 296.192564275 c 0
 232.565549029 304.964746412 241.138328916 314.951567622 253.716086784 329.625618468 c 0
 269.689469734 348.670805832 284.753923213 359.304442414 306.40822673 359.304442414 c 0
 320.287695422 359.304442414 336.576536023 355.018600018 357.49012729 346.343895971 c 0
 365.676423973 343.600553834 372.203975949 339.310725192 377.677185356 335.638186357 c 1
 442.458826224 461.333907445 l 1
 436.342786776 465.962113194 429.644468518 467.695549414 422.631833063 470.700964609 c 0
 373.002452832 491.80322077 319.340704831 501.996769894 268.736928114 501.996769894 c 0
 190.622407605 501.996769894 120.059603899 477.667491131 82.5402851989 432.406090795 c 0
 61.7507010534 407.735784275 52.5 383.762571636 52.5 360.996541692 c 0
 52.5 302.785685656 113.51093929 250.041826479 205.291413052 213.422069852 c 1
 243.33305858 207.087448757 291.530895683 202.05911466 291.530895683 179.332647753 c 0
 291.530895683 173.595597606 288.51319658 167.408431551 282.517525519 160.379024101 c 0
 266.359623488 141.113833217 243.395915704 130.483324145 215.943815821 130.483324145 c 0
 197.898586015 130.483324145 177.969836201 135.054253246 156.702791459 144.668312727 c 0
 148.757431287 147.322036799 142.038633879 150.087801091 136.181314913 155.077199367 c 1
 71.9188618096 47.6533971641 l 1
 79.1397230889 42.2969385744 85.4084530878 38.0880802884 91.3020690701 36.4041900077 c 0
 91.406481938 36.3743577598 91.5081112987 36.3379006422 91.6064725627 36.2953032443 c 0
 140.229222899 15.2382066421 192.731082505 5.24131045199 242.37504 5.24131045199 c 0
135.614821361 161.5 m 0
 136.304715111 161.5 136.929715111 161.219946875 137.382241674 160.767420313 c 0
 142.960094514 155.189567472 149.481575159 152.346821157 158.404974409 149.372354741 c 0
 158.486606836 149.345143932 158.566372374 149.313834154 158.644026337 149.278670096 c 0
 179.434547393 139.864094523 198.727680135 135.483324145 215.943815821 135.483324145 c 0
 242.058978637 135.483324145 263.523605682 145.511596778 278.712117203 163.620975899 c 0
 284.352372717 170.233689261 286.530895683 175.434747442 286.530895683 179.332647753 c 0
 286.530895683 195.443665707 243.841486984 201.927406515 204.201481206 208.534074145 c 0
 204.024314443 208.563601939 203.85342605 208.611788186 203.690907075 208.67654184 c 0
 111.51919461 245.401208525 47.5 299.058026421 47.5 360.996541692 c 0
 47.5 385.18427851 57.3441102077 410.264215725 78.6893575229 435.593909205 c 0
 117.606997175 482.542172912 189.723879736 506.996769894 268.736928114 506.996769894 c 0
 320.017376107 506.996769894 374.314391647 496.679386357 424.597809659 475.299035391 c 0
 432.636345874 471.853948442 439.778111588 470.295015926 447.240439829 463.898734577 c 0
 447.775544036 463.440073828 448.114821361 462.759345488 448.114821361 462 c 0
 448.114821361 461.588347353 448.015111565 461.199799403 447.838546719 460.857210894 c 2
 380.838546719 330.857210894 l 2
 380.423297156 330.051502788 379.582956214 329.5 378.614821361 329.5 c 0
 377.344734213 329.5 376.418691116 330.460983061 375.588652848 331.018406331 c 0
 369.954279354 334.802245004 363.638948931 339.022885053 355.824668313 341.627645259 c 0
 355.768200884 341.646467736 355.712626737 341.667251517 355.658026861 341.689915617 c 0
 334.99545009 350.266834277 319.249462017 354.304442414 306.40822673 354.304442414 c 0
 286.694061467 354.304442414 273.125094347 344.988138866 257.513555938 326.374381532 c 0
 244.710740038 311.437762982 237.565549029 301.834391849 237.565549029 296.192564275 c 0
 237.565549029 289.296090926 249.160192291 283.974515442 287.040587939 277.46382244 c 0
 287.228913395 277.431454002 287.410065546 277.377987815 287.581520243 277.305948026 c 0
 377.864973097 239.371724138 461.158445187 194.707524948 461.158445187 134.040839914 c 0
 461.158445187 115.030706544 452.900568572 94.9075130513 434.552826666 73.4213416089 c 0
 395.757717587 25.8660466079 322.517244811 0.241310451991 242.37504 0.241310451991 c 0
 192.104238578 0.241310451991 139.019613602 10.3379872896 89.7690442377 31.6415605263 c 0
 82.2075332523 33.8455027753 75.0708014964 39.0334011865 67.11692112 44.998811406 c 0
 66.5086574275 45.4550091754 66.1148213609 46.1818748536 66.1148213609 47 c 0
 66.1148213609 47.4679638368 66.2436761571 47.906069514 66.4678104011 48.2807416831 c 2
 133.467810401 160.280741683 l 2
 133.904534121 161.010787304 134.702997698 161.5 135.614821361 161.5 c 0
EndSplineSet
EndChar

StartChar: t
Encoding: 116 116 83
Width: 514
VWidth: 0
Flags: HW
HStem: -3 151<328.285 459.024> 364 152<50 146.274 312 409> 741 20G<145 312>
VStem: 146.274 165.726<168.881 364 516 761>
LayerCount: 2
Fore
SplineSet
393 -0.5 m 0
 417.118445932 -0.5 439.319289358 2.31047603126 461.5 7.93863542691 c 1
 461.5 168.788468016 l 1
 442.640056399 154.360350299 418.720381636 145.5 393 145.5 c 0
 359.26163681 145.5 330.554871198 159.852637744 310.112971519 183.360822375 c 0
 309.731227218 183.799828321 309.5 184.373124241 309.5 185 c 2
 309.5 364 l 2
 309.5 365.3797875 310.6202125 366.5 312 366.5 c 2
 406.5 366.5 l 1
 406.5 513.5 l 1
 312 513.5 l 2
 310.6202125 513.5 309.5 514.6202125 309.5 516 c 2
 309.5 758.5 l 1
 147.513032752 758.5 l 1
 148.773799799 516.013246699 l 2
 148.773799799 514.6202125 147.653621729 513.5 146.273834229 513.5 c 2
 52.5 513.5 l 1
 52.5 366.5 l 1
 147.064117432 366.5 l 2
 148.439486674 366.5 149.55694064 365.386950144 149.564083002 364.01324676 c 2
 150.498175289 184.35757467 l 1
 181.309661588 76.5383238586 276.27159697 -0.5 393 -0.5 c 0
393 -5.5 m 0
 273.846297499 -5.5 176.882137335 73.3059817505 145.59498619 183.315642227 c 0
 145.534272622 183.529118967 145.50124355 183.754201123 145.50003443 183.98675324 c 2
 144.577081357 361.5 l 1
 50 361.5 l 2
 48.6202125 361.5 47.5 362.6202125 47.5 364 c 2
 47.5 516 l 2
 47.5 517.3797875 48.6202125 518.5 50 518.5 c 2
 143.760801477 518.5 l 1
 142.50003443 760.986753301 l 2
 142.50003443 762.3797875 143.6202125 763.5 145 763.5 c 2
 312 763.5 l 2
 313.3797875 763.5 314.5 762.3797875 314.5 761 c 2
 314.5 518.5 l 1
 409 518.5 l 2
 410.3797875 518.5 411.5 517.3797875 411.5 516 c 2
 411.5 364 l 2
 411.5 362.6202125 410.3797875 361.5 409 361.5 c 2
 314.5 361.5 l 1
 314.5 185.940023149 l 1
 334.013598438 163.864858154 361.074021648 150.5 393 150.5 c 0
 419.373275322 150.5 443.824079213 160.277552826 462.391130058 175.912964064 c 0
 462.826059741 176.27922064 463.387450437 176.5 464 176.5 c 0
 465.3797875 176.5 466.5 175.3797875 466.5 174 c 2
 466.5 6 l 2
 466.5 4.83849783148 465.706190939 3.86093664475 464.631958462 3.58070208563 c 0
 441.435726755 -2.47048879461 418.204473351 -5.5 393 -5.5 c 0
EndSplineSet
EndChar

StartChar: u
Encoding: 117 117 84
Width: 598
VWidth: 0
Flags: HW
HStem: 6 151<234.841 364.565> 504 20G<51 218 379 548>
VStem: 54 164<177.881 524> 379 169<8 18 174.134 524>
LayerCount: 2
Fore
SplineSet
381.5 4.5 m 1
 545.5 4.5 l 1
 545.5 515.5 l 1
 381.5 515.5 l 1
 381.5 186 l 2
 381.5 185.353164108 381.253813506 184.763374409 380.850108328 184.319298713 c 0
 360.385515287 161.808246368 331.697241479 148.5 299 148.5 c 0
 265.26163681 148.5 236.554871198 162.852637744 216.112971519 186.360822375 c 0
 215.731227218 186.799828321 215.5 187.373124241 215.5 188 c 2
 215.5 515.5 l 1
 53.5227632447 515.5 l 1
 56.4968208166 187.362314567 l 1
 87.3068784913 79.5405816796 182.269886458 2.5 299 2.5 c 0
 326.756075724 2.5 352.487859446 6.4585982681 378.26474484 14.3899476202 c 0
 378.497248181 14.4614871099 378.744161998 14.5 379 14.5 c 0
 380.3797875 14.5 381.5 13.3797875 381.5 12 c 2
 381.5 4.5 l 1
548 -0.5 m 2
 379 -0.5 l 2
 377.6202125 -0.5 376.5 0.6202125 376.5 2 c 2
 376.5 8.63513051929 l 1
 351.348495967 1.21586941551 326.082530976 -2.5 299 -2.5 c 0
 179.846297499 -2.5 82.882137335 76.3059817505 51.5949861902 186.315642227 c 0
 51.5351288615 186.526108319 51.5021806695 186.747854795 51.5001045615 186.976918709 c 2
 51.5001045615 186.976918709 48.5001045615 517.976918709 48.5 518 c 0
 48.5 519.3797875 49.6202125 520.5 51 520.5 c 2
 218 520.5 l 2
 219.3797875 520.5 220.5 519.3797875 220.5 518 c 2
 220.5 188.940023149 l 1
 240.013598438 166.864858154 267.074021648 153.5 299 153.5 c 0
 329.957154509 153.5 357.010917685 165.913049314 376.5 186.972165233 c 1
 376.5 518 l 2
 376.5 519.3797875 377.6202125 520.5 379 520.5 c 2
 548 520.5 l 2
 549.3797875 520.5 550.5 519.3797875 550.5 518 c 2
 550.5 2 l 2
 550.5 0.6202125 549.3797875 -0.5 548 -0.5 c 2
EndSplineSet
EndChar

StartChar: v
Encoding: 118 118 85
Width: 652
VWidth: 0
Flags: HW
HStem: 491 20G<50 208.757 443.243 602>
LayerCount: 2
Fore
SplineSet
326 141.5 m 0
 324.899844617 141.5 323.964713005 142.212170628 323.630865501 143.200251547 c 2
 200.205337413 508.5 l 1
 53.6635915893 508.5 l 1
 251.706644427 2.5 l 1
 400.293355573 2.5 l 1
 598.336408411 508.5 l 1
 451.794662587 508.5 l 1
 328.369134499 143.200251547 l 2
 328.035286995 142.212170628 327.100155383 141.5 326 141.5 c 0
50 513.5 m 2
 202 513.5 l 2
 203.100155383 513.5 204.035286995 512.787829372 204.369134499 511.799748453 c 2
 326 151.811622334 l 1
 447.630865501 511.799748453 l 2
 447.964713005 512.787829372 448.899844617 513.5 450 513.5 c 2
 602 513.5 l 2
 603.3797875 513.5 604.5 512.3797875 604.5 511 c 0
 604.5 510.679068898 604.439396233 510.372180865 604.329018466 510.090165669 c 2
 404.329018466 -0.909834330903 l 2
 403.964846204 -1.8402944588 403.058856398 -2.5 402 -2.5 c 2
 250 -2.5 l 2
 248.941143602 -2.5 248.035153796 -1.8402944588 247.670981534 -0.909834330903 c 2
 47.6709815343 510.090165669 l 2
 47.5606037668 510.372180865 47.5 510.679068898 47.5 511 c 0
 47.5 512.3797875 48.6202125 513.5 50 513.5 c 2
EndSplineSet
EndChar

StartChar: w
Encoding: 119 119 86
Width: 1044
VWidth: 0
Flags: HW
HStem: 491 20G<50 204.757 439.243 604.54 835.243 994>
LayerCount: 2
Fore
SplineSet
322 141.5 m 0
 320.899844617 141.5 319.964713005 142.212170628 319.630865501 143.200251547 c 2
 196.205337413 508.5 l 1
 53.6635915893 508.5 l 1
 251.706644427 2.5 l 1
 396.293355559 2.5 l 1
 519.670981527 317.729841637 l 2
 520.035153784 318.660301774 520.941143596 319.320007324 522 319.320007324 c 0
 523.058856404 319.320007324 523.964846216 318.660301774 524.329018473 317.729841637 c 2
 647.706644441 2.5 l 1
 792.293355573 2.5 l 1
 990.336408411 508.5 l 1
 843.794662587 508.5 l 1
 720.369134499 143.200251547 l 2
 720.035286995 142.212170628 719.100155383 141.5 718 141.5 c 0
 716.89129194 141.5 715.950183434 142.223286588 715.623188669 143.223345577 c 2
 596.186680411 508.5 l 1
 447.794662587 508.5 l 1
 324.369134499 143.200251547 l 2
 324.035286995 142.212170628 323.100155383 141.5 322 141.5 c 0
446 513.5 m 2
 598 513.5 l 2
 599.10870806 513.5 600.049816566 512.776713412 600.376811331 511.776654423 c 2
 718.038902126 151.926760076 l 1
 839.630865501 511.799748453 l 2
 839.964713005 512.787829372 840.899844617 513.5 842 513.5 c 2
 994 513.5 l 2
 995.3797875 513.5 996.5 512.3797875 996.5 511 c 0
 996.5 510.679068898 996.439396233 510.372180865 996.329018466 510.090165669 c 2
 796.329018466 -0.909834330903 l 2
 795.964846204 -1.8402944588 795.058856398 -2.5 794 -2.5 c 2
 646 -2.5 l 2
 644.941143596 -2.5 644.035153784 -1.84029445023 643.670981527 -0.909834312764 c 2
 522 309.959530676 l 1
 400.329018473 -0.909834312764 l 2
 399.964846216 -1.84029445023 399.058856404 -2.5 398 -2.5 c 2
 250 -2.5 l 2
 248.941143602 -2.5 248.035153796 -1.8402944588 247.670981534 -0.909834330903 c 2
 47.6709815343 510.090165669 l 2
 47.5606037668 510.372180865 47.5 510.679068898 47.5 511 c 0
 47.5 512.3797875 48.6202125 513.5 50 513.5 c 2
 198 513.5 l 2
 199.100155383 513.5 200.035286995 512.787829372 200.369134499 511.799748453 c 2
 322 151.811622334 l 1
 443.630865501 511.799748453 l 2
 443.964713005 512.787829372 444.899844617 513.5 446 513.5 c 2
EndSplineSet
EndChar

